SplineFontDB: 3.2
FontName: CardCharacters
FullName: Card Characters
FamilyName: Card Characters
Weight: Book
Copyright: CARD CHARACTERS font v1.0 (c) 2003 Harold Lohner  HLohner@aol.com  http://www.haroldsfonts.com    Based on the characters on Bicycle playingcards
Version: Macromedia Fontographer 4.1.3 10/25/03
ItalicAngle: 0
UnderlinePosition: -143
UnderlineWidth: 20
Ascent: 800
Descent: 200
InvalidEm: 0
sfntRevision: 0x00010000
LayerCount: 2
Layer: 0 1 "Back" 1
Layer: 1 1 "Fore" 0
XUID: [1021 250 2049552639 7252]
StyleMap: 0x0040
FSType: 1
OS2Version: 1
OS2_WeightWidthSlopeOnly: 0
OS2_UseTypoMetrics: 0
CreationTime: 1067090017
ModificationTime: 1732611636
PfmFamily: 81
TTFWeight: 400
TTFWidth: 5
LineGap: 0
VLineGap: 0
Panose: 0 0 4 0 0 0 0 0 0 0
OS2TypoAscent: 1050
OS2TypoAOffset: 0
OS2TypoDescent: -150
OS2TypoDOffset: 0
OS2TypoLinegap: 0
OS2WinAscent: 1050
OS2WinAOffset: 0
OS2WinDescent: 159
OS2WinDOffset: 0
HheadAscent: 1050
HheadAOffset: 0
HheadDescent: -150
HheadDOffset: 0
OS2SubXSize: 700
OS2SubYSize: 650
OS2SubXOff: 0
OS2SubYOff: 143
OS2SupXSize: 700
OS2SupYSize: 650
OS2SupXOff: 0
OS2SupYOff: 453
OS2StrikeYSize: 50
OS2StrikeYPos: 259
OS2Vendor: 'Alts'
OS2CodePages: c0000001.00000000
OS2UnicodeRanges: 00000000.00000000.00000000.00000000
DEI: 91125
TtTable: prep
NPUSHB
 31
 18
 18
 17
 17
 16
 16
 15
 15
 14
 14
 13
 13
 12
 12
 11
 11
 10
 10
 9
 9
 8
 8
 7
 7
 6
 6
 1
 1
 0
 0
 1
SCANTYPE
PUSHW_1
 511
SCANCTRL
RCVT
ROUND[Grey]
WCVTP
RCVT
ROUND[Grey]
WCVTP
RCVT
ROUND[Grey]
WCVTP
RCVT
ROUND[Grey]
WCVTP
RCVT
ROUND[Grey]
WCVTP
RCVT
ROUND[Grey]
WCVTP
RCVT
ROUND[Grey]
WCVTP
RCVT
ROUND[Grey]
WCVTP
RCVT
ROUND[Grey]
WCVTP
RCVT
ROUND[Grey]
WCVTP
RCVT
ROUND[Grey]
WCVTP
RCVT
ROUND[Grey]
WCVTP
RCVT
ROUND[Grey]
WCVTP
RCVT
ROUND[Grey]
WCVTP
RCVT
ROUND[Grey]
WCVTP
PUSHB_4
 3
 2
 70
 0
CALL
PUSHB_4
 5
 4
 70
 0
CALL
PUSHB_2
 2
 2
RCVT
ROUND[Grey]
WCVTP
PUSHB_2
 4
 4
RCVT
ROUND[Grey]
WCVTP
EndTTInstrs
TtTable: fpgm
NPUSHB
 1
 0
FDEF
SROUND
RCVT
DUP
PUSHB_1
 3
CINDEX
RCVT

StartChar: .notdef
Encoding: 65536 -1 0
Width: 500
GlyphClass: 1
Flags: W
LayerCount: 2
Fore
SplineSet
63 0 m 1,0,-1
 63 1050 l 1,1,-1
 438 1050 l 1,2,-1
 438 0 l 1,3,-1
 63 0 l 1,0,-1
125 63 m 1,4,-1
 375 63 l 1,5,-1
 375 988 l 1,6,-1
 125 988 l 1,7,-1
 125 63 l 1,4,-1
EndSplineSet
Validated: 1
EndChar

StartChar: exclam
Encoding: 33 33 4
Width: 650
GlyphClass: 1
Flags: W
LayerCount: 2
Fore
SplineSet
369 248 m 1,0,-1
 281 248 l 1,1,-1
 258 478 l 1,2,-1
 258 829 l 1,3,-1
 391 829 l 1,4,-1
 391 478 l 1,5,-1
 369 248 l 1,0,-1
256 133 m 1,6,-1
 395 133 l 1,7,-1
 395 -5 l 1,8,-1
 256 -5 l 1,9,-1
 256 133 l 1,6,-1
EndSplineSet
Validated: 1
EndChar

StartChar: quotedbl
Encoding: 34 34 5
Width: 650
GlyphClass: 1
Flags: W
LayerCount: 2
Fore
SplineSet
287 829 m 1,0,-1
 287 676 l 1,1,-1
 265 512 l 1,2,-1
 185 512 l 1,3,-1
 163 676 l 1,4,-1
 163 829 l 1,5,-1
 287 829 l 1,0,-1
487 829 m 1,6,-1
 487 676 l 1,7,-1
 465 512 l 1,8,-1
 385 512 l 1,9,-1
 363 676 l 1,10,-1
 363 829 l 1,11,-1
 487 829 l 1,6,-1
EndSplineSet
Validated: 1
EndChar

StartChar: numbersign
Encoding: 35 35 6
Width: 825
GlyphClass: 1
Flags: W
LayerCount: 2
Fore
SplineSet
607 901 m 1,0,-1
 600 893 l 1,1,2
 557 928 557 928 510 933 c 1,3,4
 455 972 455 972 370 985 c 1,5,-1
 372 996 l 1,6,7
 456 983 456 983 514 943 c 1,8,9
 563 938 563 938 607 901 c 1,0,-1
652 854 m 1,10,-1
 646 845 l 1,11,12
 510 936 510 936 316 974 c 1,13,-1
 318 984 l 1,14,15
 512 947 512 947 652 854 c 1,10,-1
695 800 m 1,16,-1
 688 792 l 1,17,18
 606 851 606 851 500 896 c 0,19,20
 380 948 380 948 294 953 c 1,21,-1
 294 964 l 1,22,23
 386 958 386 958 504 907 c 0,24,25
 603 864 603 864 695 800 c 1,16,-1
721 759 m 1,26,-1
 714 751 l 1,27,28
 618 821 618 821 493 873 c 0,29,30
 353 931 353 931 249 934 c 1,31,-1
 249 945 l 1,32,33
 360 942 360 942 497 885 c 0,34,35
 615 835 615 835 721 759 c 1,26,-1
745 693 m 1,36,-1
 740 683 l 1,37,38
 722 692 722 692 657 745 c 1,39,-1
 635 748 l 1,40,41
 605 777 605 777 526 811 c 0,42,43
 460 839 460 839 404 854 c 0,44,45
 281 886 281 886 191 886 c 1,46,-1
 191 897 l 1,47,48
 296 897 296 897 407 864 c 0,49,50
 580 813 580 813 640 758 c 1,51,-1
 644 758 l 1,52,53
 620 784 620 784 565 815 c 0,54,55
 441 883 441 883 233 914 c 1,56,-1
 234 925 l 1,57,58
 515 882 515 882 637 779 c 0,59,60
 645 771 645 771 662 756 c 1,61,-1
 691 752 l 1,62,63
 706 745 706 745 734 727 c 1,64,-1
 727 718 l 1,65,66
 715 728 715 728 688 742 c 1,67,-1
 677 743 l 1,68,69
 699 724 699 724 745 693 c 1,36,-1
744 646 m 1,70,-1
 739 636 l 1,71,72
 715 648 715 648 673 676 c 1,73,74
 645 702 645 702 572 741 c 0,75,76
 440 811 440 811 268 840 c 1,77,-1
 270 850 l 1,78,79
 444 821 444 821 577 750 c 0,80,81
 605 736 605 736 661 697 c 0,82,83
 713 661 713 661 744 646 c 1,70,-1
764 652 m 1,84,-1
 757 643 l 1,85,86
 646 737 646 737 490 800 c 0,87,88
 324 867 324 867 190 862 c 1,89,-1
 189 873 l 1,90,-1
 200 873 l 1,91,92
 379 878 379 878 586 768 c 0,93,94
 690 713 690 713 764 652 c 1,84,-1
769 555 m 1,95,-1
 761 548 l 1,96,97
 721 599 721 599 670 643 c 1,98,-1
 669 643 l 1,99,-1
 667 646 l 1,100,101
 498 792 498 792 338 795 c 1,102,-1
 337 793 l 1,103,-1
 333 795 l 1,104,-1
 333 795 l 1,105,106
 318 809 318 809 275 806 c 1,107,-1
 274 817 l 1,108,109
 285 818 285 818 296 817 c 1,110,111
 282 822 282 822 270 820 c 1,112,-1
 268 830 l 1,113,114
 273 831 273 831 277 831 c 0,115,116
 301 832 301 832 336 806 c 1,117,118
 501 806 501 806 672 655 c 0,119,120
 674 655 674 655 676 656 c 0,121,122
 707 656 707 656 750 613 c 1,123,-1
 743 605 l 1,124,125
 707 641 707 641 684 645 c 1,126,127
 735 598 735 598 769 555 c 1,95,-1
775 509 m 1,128,-1
 766 503 l 1,129,130
 687 621 687 621 555 701 c 0,131,132
 413 787 413 787 281 783 c 1,133,-1
 281 794 l 1,134,-1
 286 794 l 1,135,136
 467 798 467 798 637 657 c 0,137,138
 722 586 722 586 775 509 c 1,128,-1
775 390 m 1,139,-1
 765 387 l 1,140,-1
 756 412 l 1,141,-1
 766 416 l 1,142,-1
 775 390 l 1,139,-1
770 488 m 1,143,-1
 762 482 l 1,144,145
 623 664 623 664 510 711 c 1,146,147
 645 636 645 636 763 457 c 1,148,-1
 754 451 l 1,149,150
 698 538 698 538 622 611 c 0,151,152
 531 699 531 699 451 725 c 1,153,-1
 451 725 l 1,154,155
 373 758 373 758 288 760 c 1,156,-1
 288 771 l 1,157,158
 379 768 379 768 459 734 c 1,159,160
 492 734 492 734 541 707 c 0,161,162
 647 650 647 650 770 488 c 1,143,-1
755 325 m 1,163,-1
 745 322 l 1,164,-1
 737 350 l 1,165,-1
 747 353 l 1,166,-1
 755 325 l 1,163,-1
252 827 m 1,167,168
 243 820 243 820 233 819 c 0,169,170
 225 819 225 819 214 824 c 1,171,-1
 213 823 l 1,172,-1
 210 825 l 1,173,-1
 174 816 l 1,174,-1
 171 827 l 1,175,-1
 209 835 l 1,176,177
 213 841 213 841 220 845 c 1,178,-1
 171 838 l 1,179,-1
 169 849 l 1,180,-1
 221 856 l 1,181,-1
 223 847 l 1,182,183
 231 852 231 852 244 856 c 1,184,-1
 247 845 l 1,185,186
 229 840 229 840 221 833 c 1,187,188
 230 830 230 830 235 830 c 0,189,190
 239 830 239 830 245 835 c 1,191,-1
 252 827 l 1,167,168
760 430 m 1,192,-1
 751 424 l 1,193,194
 606 644 606 644 444 703 c 0,195,196
 421 711 421 711 376 725.5 c 128,-1,197
 331 740 331 740 296 739 c 0,198,199
 242 738 242 738 188 715 c 0,200,201
 156 700 156 700 92 659 c 1,202,-1
 86 668 l 1,203,204
 192 737 192 737 227 741 c 0,205,206
 250 745 250 745 296 750 c 0,207,208
 333 751 333 751 379 736 c 0,209,210
 438 717 438 717 459 709 c 0,211,212
 503 692 503 692 535 671 c 0,213,214
 647 600 647 600 760 430 c 1,192,-1
259 812 m 1,215,-1
 258 802 l 1,216,217
 240 804 240 804 222 804 c 0,218,219
 183 803 183 803 152 788 c 1,220,-1
 147 798 l 1,221,222
 180 814 180 814 224 814 c 0,223,224
 243 815 243 815 259 812 c 1,215,-1
273 792 m 1,225,-1
 271 782 l 1,226,227
 259 784 259 784 246 784 c 0,228,229
 201 783 201 783 139 761 c 1,230,-1
 136 771 l 1,231,232
 199 794 199 794 245 795 c 0,233,234
 260 795 260 795 273 792 c 1,225,-1
756 387 m 1,235,-1
 745 384 l 1,236,237
 726 449 726 449 699 466 c 1,238,239
 739 396 739 396 745 355 c 1,240,-1
 734 353 l 1,241,242
 728 397 728 397 684 470 c 1,243,-1
 684 470 l 1,244,245
 683 473 683 473 680 478 c 1,246,-1
 680 478 l 1,247,248
 641 549 641 549 572.5 607 c 128,-1,249
 504 665 504 665 428 691 c 0,250,251
 412 696 412 696 368 705 c 0,252,253
 360 708 360 708 347 712 c 0,254,255
 320 719 320 719 290 719 c 0,256,257
 258 718 258 718 206 699 c 0,258,259
 148 677 148 677 136 654 c 1,260,-1
 135 655 l 1,261,-1
 124 644 l 1,262,-1
 117 652 l 1,263,-1
 123 658 l 1,264,265
 106 657 106 657 87 625 c 1,266,-1
 78 630 l 1,267,268
 100 669 100 669 124 669 c 0,269,270
 129 669 129 669 134 667 c 1,271,272
 208 728 208 728 290 729 c 0,273,274
 321 730 321 730 349 722 c 0,275,276
 357 720 357 720 370 715 c 0,277,278
 396 710 396 710 447 696 c 1,279,280
 603 637 603 637 691 481 c 1,281,282
 728 479 728 479 756 387 c 1,235,-1
284 766 m 1,283,-1
 244 758 l 1,284,285
 237 741 237 741 212 741 c 0,286,287
 192 740 192 740 170 727 c 1,288,-1
 164 736 l 1,289,290
 188 751 188 751 218 751 c 0,291,292
 228 751 228 751 233 760 c 1,293,294
 225 764 225 764 215 764 c 0,295,296
 185 763 185 763 132 732 c 1,297,-1
 127 741 l 1,298,299
 179 773 179 773 215 774 c 0,300,301
 231 774 231 774 241 768 c 1,302,-1
 282 777 l 1,303,-1
 284 766 l 1,283,-1
165 722 m 1,304,305
 149 721 149 721 125 701 c 1,306,-1
 118 709 l 1,307,308
 145 732 145 732 159 732 c 2,309,-1
 165 732 l 1,310,-1
 165 722 l 1,304,305
706 181 m 1,311,312
 691 148 691 148 677 137 c 1,313,-1
 671 145 l 1,314,315
 651 116 651 116 613 95 c 1,316,-1
 607 105 l 1,317,318
 669 138 669 138 679 190 c 1,319,-1
 689 187 l 1,320,321
 685 166 685 166 672 147 c 1,322,323
 682 155 682 155 696 186 c 1,324,-1
 706 181 l 1,311,312
635 186 m 1,325,326
 607 145 607 145 578 145 c 0,327,328
 546 144 546 144 516 192 c 0,329,330
 503 215 503 215 476 262 c 0,331,332
 439 326 439 326 379 427 c 2,333,-1
 376 432 l 1,334,-1
 385 437 l 1,335,-1
 388 433 l 1,336,337
 446 336 446 336 483 272 c 0,338,339
 497 247 497 247 525 197 c 0,340,341
 552 156 552 156 576 156 c 256,342,343
 600 156 600 156 627 192 c 1,344,-1
 635 186 l 1,325,326
680 132 m 1,345,346
 659 100 659 100 636 91 c 1,347,-1
 632 102 l 1,348,349
 652 109 652 109 672 138 c 1,350,-1
 680 132 l 1,345,346
746 303 m 1,351,-1
 735 302 l 1,352,353
 730 336 730 336 711 361 c 1,354,355
 683 487 683 487 570 589 c 0,356,357
 533 622 533 622 470 652 c 0,358,359
 411 679 411 679 358 690 c 0,360,361
 321 698 321 698 294 698 c 0,362,363
 233 697 233 697 173 649 c 1,364,365
 161 629 161 629 141 613 c 1,366,367
 146 616 146 616 153 618 c 1,368,369
 178 648 178 648 209 657 c 1,370,371
 235 684 235 684 290 685 c 0,372,373
 356 686 356 686 431 657 c 0,374,375
 572 604 572 604 643 495 c 0,376,377
 687 428 687 428 704 367 c 1,378,379
 738 321 738 321 741 251 c 1,380,-1
 730 250 l 1,381,382
 728 292 728 292 713 329 c 1,383,384
 721 289 721 289 721 257 c 0,385,386
 722 221 722 221 712 202 c 1,387,-1
 703 206 l 1,388,389
 711 224 711 224 711 257 c 0,390,391
 710 293 710 293 698 347 c 0,392,393
 684 405 684 405 668 433 c 0,394,395
 645 473 645 473 632 491 c 0,396,397
 611 523 611 523 591 545 c 0,398,399
 532 607 532 607 427 647 c 0,400,401
 355 675 355 675 290 674 c 0,402,403
 240 673 240 673 216 649 c 1,404,405
 249 667 249 667 293 668 c 0,406,407
 373 669 373 669 458 622 c 0,408,409
 460 622 460 622 462 622 c 0,410,411
 493 623 493 623 559 568.5 c 128,-1,412
 625 514 625 514 676 396 c 0,413,414
 701 338 701 338 702 263 c 0,415,416
 703 232 703 232 698 204 c 1,417,-1
 687 205 l 1,418,419
 691 232 691 232 691 268 c 0,420,421
 689 364 689 364 630 463.5 c 128,-1,422
 571 563 571 563 487 604 c 1,423,424
 562 552 562 552 616 464.5 c 128,-1,425
 670 377 670 377 682 286 c 1,426,-1
 684 284 l 1,427,-1
 683 283 l 1,428,429
 685 267 685 267 685 253 c 0,430,431
 686 192 686 192 650 150 c 0,432,433
 630 126 630 126 620 116 c 0,434,435
 601 99 601 99 582 91 c 1,436,437
 552 59 552 59 520 59 c 0,438,439
 471 58 471 58 426 123 c 0,440,441
 397 165 397 165 358 258.5 c 128,-1,442
 319 352 319 352 306 372 c 1,443,444
 313 306 313 306 381 174 c 0,445,446
 445 51 445 51 521 52 c 0,447,448
 567 53 567 53 617 97 c 1,449,-1
 624 89 l 1,450,451
 602 69 602 69 582 58 c 1,452,453
 618 72 618 72 659 95 c 1,454,-1
 664 86 l 1,455,456
 557 26 557 26 494 25 c 0,457,458
 483 25 483 25 477 26 c 0,459,460
 468 24 468 24 459 24 c 0,461,462
 406 23 406 23 364 82 c 128,-1,463
 322 141 322 141 313 154 c 0,464,465
 286 196 286 196 272 230 c 1,466,-1
 272 235 l 2,467,468
 273 251 273 251 264 264 c 1,469,470
 274 199 274 199 305 148 c 0,471,472
 355 70 355 70 371 53 c 0,473,474
 412 12 412 12 475 13 c 0,475,476
 484 13 484 13 501 13 c 0,477,478
 521 13 521 13 551 29 c 0,479,480
 595 51 595 51 650 68 c 1,481,-1
 655 69 l 1,482,-1
 658 59 l 1,483,-1
 653 57 l 1,484,485
 598 41 598 41 556 19 c 0,486,487
 524 2 524 2 501 2 c 0,488,489
 493 2 493 2 475 2 c 0,490,491
 388 0 388 0 328 92 c 0,492,493
 259 199 259 199 251 276 c 1,494,-1
 249 277 l 1,495,-1
 251 280 l 1,496,497
 228 348 228 348 227 402 c 0,498,499
 227 438 227 438 236 465 c 1,500,-1
 246 462 l 1,501,502
 238 436 238 436 238 403 c 0,503,504
 239 350 239 350 261 282 c 1,505,506
 285 263 285 263 283 232 c 1,507,508
 314 155 314 155 381 78 c 0,509,510
 419 34 419 34 459 35 c 0,511,512
 468 35 468 35 477 38 c 0,513,514
 483 36 483 36 494 36 c 0,515,516
 511 36 511 36 532 41 c 1,517,518
 527 41 527 41 523 41 c 0,519,520
 433 39 433 39 371 170 c 0,521,522
 298 323 298 323 295 373 c 0,523,524
 294 380 294 380 293 394 c 1,525,-1
 295 395 l 1,526,527
 291 410 291 410 291 425 c 0,528,529
 290 489 290 489 334 500 c 0,530,531
 348 502 348 502 375 509 c 1,532,533
 362 515 362 515 350 514 c 0,534,535
 334 514 334 514 320 503 c 1,536,-1
 313 511 l 1,537,538
 331 525 331 525 352 526 c 0,539,540
 364 526 364 526 385 516 c 0,541,542
 451 484 451 484 506 395 c 0,543,544
 517 378 517 378 553 304 c 0,545,546
 569 271 569 271 599 205 c 0,547,548
 602 198 602 198 603 188 c 1,549,550
 605 194 605 194 605 201 c 256,551,552
 605 208 605 208 603 217 c 1,553,-1
 599 221 l 1,554,-1
 601 223 l 1,555,556
 596 244 596 244 582 270 c 0,557,558
 580 274 580 274 575 282 c 0,559,560
 569 300 569 300 556 336 c 0,561,562
 498 473 498 473 402 523 c 0,563,564
 371 539 371 539 333 538 c 0,565,566
 258 537 258 537 257 464 c 1,567,-1
 247 464 l 1,568,569
 247 547 247 547 330 549 c 0,570,571
 373 549 373 549 407 532 c 0,572,573
 506 481 506 481 565 342 c 0,574,575
 572 323 572 323 585 287 c 0,576,577
 588 282 588 282 593 272 c 0,578,579
 607 244 607 244 613 221 c 0,580,581
 618 214 618 214 621 214 c 0,582,583
 625 214 625 214 625 226 c 1,584,585
 548 439 548 439 481 493 c 0,586,587
 437 529 437 529 420 538 c 0,588,589
 395 551 395 551 347 559 c 1,590,-1
 349 570 l 1,591,592
 398 562 398 562 424 548 c 0,593,594
 442 538 442 538 488 502 c 0,595,596
 557 446 557 446 636 227 c 1,597,598
 635 202 635 202 623 202 c 0,599,600
 619 202 619 202 615 205 c 1,601,-1
 615 202 l 2,602,603
 617 165 617 165 585 164 c 0,604,605
 554 164 554 164 525 221 c 0,606,607
 464 341 464 341 459 349 c 0,608,609
 403 450 403 450 376 449 c 2,610,-1
 374 449 l 1,611,612
 370 436 370 436 371 425 c 0,613,614
 371 407 371 407 392 373 c 128,-1,615
 413 339 413 339 485 211 c 0,616,617
 529 131 529 131 571 132 c 0,618,619
 582 132 582 132 593 139 c 0,620,621
 593 140 593 140 594 140 c 0,622,623
 645 177 645 177 645 213 c 0,624,625
 644 256 644 256 594 359 c 0,626,627
 546 459 546 459 512 494 c 0,628,629
 445 562 445 562 362 587 c 1,630,631
 356 581 356 581 318 578 c 0,632,633
 275 574 275 574 249 557 c 0,634,635
 209 531 209 531 188 467 c 1,636,-1
 178 471 l 1,637,638
 213 578 213 578 323 589 c 0,639,640
 335 590 335 590 353 594 c 1,641,-1
 353 592 l 1,642,-1
 353 591 l 1,643,-1
 357 596 l 1,644,645
 352 595 352 595 345 595 c 0,646,647
 335 596 335 596 318 598 c 0,648,649
 293 598 293 598 263 586 c 0,650,651
 156 544 156 544 159 378 c 0,652,653
 160 340 160 340 165 312 c 0,654,655
 182 222 182 222 215 137 c 0,656,657
 262 19 262 19 313 -4 c 0,658,659
 317 -8 317 -8 324 -7 c 0,660,661
 331 -7 331 -7 342 -3 c 1,662,663
 354 -25 354 -25 407 -22 c 1,664,-1
 408 -33 l 1,665,-1
 403 -33 l 2,666,667
 366 -35 366 -35 345 -23 c 1,668,-1
 346 -27 l 1,669,670
 334 -30 334 -30 322 -31 c 0,671,672
 299 -31 299 -31 275 -20 c 1,673,-1
 280 -10 l 1,674,675
 301 -20 301 -20 322 -20 c 0,676,677
 333 -20 333 -20 339 -18 c 1,678,-1
 337 -16 l 1,679,680
 330 -18 330 -18 324 -18 c 0,681,682
 316 -18 316 -18 306 -13 c 0,683,684
 287 -1 287 -1 276 9 c 0,685,686
 233 52 233 52 196 150 c 0,687,688
 165 234 165 234 155 310 c 0,689,690
 149 352 149 352 149 378 c 0,691,692
 146 537 146 537 243 589 c 1,693,694
 130 545 130 545 133 410 c 0,695,696
 133 395 133 395 136 374 c 0,697,698
 136 360 136 360 138 333 c 0,699,700
 161 106 161 106 286 -2 c 1,701,-1
 279 -10 l 1,702,703
 183 71 183 71 145 231 c 0,704,705
 131 290 131 290 123 393 c 1,706,707
 121 368 121 368 122 341 c 0,708,709
 126 123 126 123 247 16 c 1,710,-1
 240 8 l 1,711,712
 166 74 166 74 137 162 c 0,713,714
 113 232 113 232 111 346 c 0,715,716
 108 505 108 505 164 579 c 1,717,718
 126 541 126 541 105 452 c 0,719,720
 88 379 88 379 89 310 c 0,721,722
 90 284 90 284 93 257 c 1,723,-1
 82 256 l 1,724,725
 79 284 79 284 78 310 c 0,726,727
 77 370 77 370 92 442 c 0,728,729
 110 524 110 524 139 566 c 1,730,-1
 127 548 l 1,731,-1
 127 545 l 1,732,-1
 124 545 l 1,733,734
 75 466 75 466 72 361 c 1,735,-1
 61 361 l 1,736,737
 63 460 63 460 107 536 c 1,738,739
 76 509 76 509 61 417 c 1,740,-1
 50 418 l 1,741,742
 61 484 61 484 81 521 c 1,743,-1
 73 524 l 1,744,745
 86 562 86 562 107 576 c 1,746,-1
 113 567 l 1,747,748
 97 556 97 556 86 529 c 1,749,750
 99 549 99 549 118 554 c 1,751,752
 157 615 157 615 212 647 c 1,753,754
 186 639 186 639 163 613 c 1,755,-1
 164 612 l 1,756,757
 161 610 161 610 159 608 c 0,758,759
 145 595 145 595 129 573 c 1,760,-1
 120 579 l 1,761,762
 127 589 127 589 132 595 c 1,763,764
 124 588 124 588 116 576 c 1,765,-1
 107 582 l 1,766,767
 114 594 114 594 123 602 c 1,768,-1
 110 595 l 1,769,-1
 110 595 l 1,770,771
 71 566 71 566 68 507 c 1,772,-1
 57 508 l 1,773,774
 61 570 61 570 102 602 c 1,775,-1
 101 603 l 1,776,-1
 103 604 l 1,777,778
 106 632 106 632 165 657 c 1,779,-1
 166 660 l 1,780,-1
 168 659 l 1,781,782
 225 707 225 707 297 709 c 0,783,784
 415 711 415 711 556 615 c 0,785,786
 614 576 614 576 659.5 506 c 128,-1,787
 705 436 705 436 721 366 c 1,788,789
 741 339 741 339 746 303 c 1,351,-1
120 641 m 1,790,-1
 91 603 l 1,791,-1
 91 603 l 1,792,-1
 72 572 l 1,793,-1
 63 577 l 1,794,-1
 82 611 l 1,795,-1
 83 610 l 1,796,-1
 111 647 l 1,797,-1
 120 641 l 1,790,-1
466 47 m 1,798,-1
 462 37 l 1,799,800
 424 51 424 51 398.5 82 c 128,-1,801
 373 113 373 113 348 143 c 2,802,-1
 347 144 l 1,803,-1
 347 145 l 1,804,805
 302 200 302 200 275 275 c 128,-1,806
 248 350 248 350 247 422 c 0,807,808
 247 434 247 434 247 447 c 1,809,-1
 258 447 l 1,810,811
 258 435 258 435 258 423 c 0,812,813
 260 283 260 283 348 161 c 1,814,815
 342 195 342 195 296 293 c 0,816,817
 266 357 266 357 264 426 c 0,818,819
 263 526 263 526 341 537 c 1,820,-1
 342 526 l 1,821,822
 274 516 274 516 275 428 c 0,823,824
 277 362 277 362 306 298 c 0,825,826
 322 261 322 261 339 224 c 0,827,828
 361 171 361 171 359 148 c 1,829,830
 382 119 382 119 406.5 89 c 128,-1,831
 431 59 431 59 466 47 c 1,798,-1
489 -13 m 1,832,833
 459 -19 459 -19 433 -19 c 0,834,835
 382 -20 382 -20 360 -7 c 0,836,837
 321 15 321 15 276 88 c 0,838,839
 236 153 236 153 222 204 c 0,840,841
 192 309 192 309 190 403 c 0,842,843
 189 439 189 439 194 459 c 0,844,845
 199 476 199 476 215 510 c 0,846,847
 224 529 224 529 226 533 c 0,848,849
 234 545 234 545 244 550 c 1,850,-1
 248 540 l 1,851,852
 236 533 236 533 223 501 c 1,853,-1
 219 503 l 1,854,-1
 222 500 l 1,855,856
 199 475 199 475 201 404 c 0,857,858
 202 311 202 311 232 207 c 0,859,860
 246 158 246 158 285 94 c 0,861,862
 329 22 329 22 365 2 c 0,863,864
 386 -9 386 -9 431 -8 c 0,865,866
 456 -8 456 -8 487 -2 c 1,867,-1
 489 -13 l 1,832,833
416 8 m 1,868,-1
 415 -3 l 1,869,-1
 410 -2 l 2,870,871
 389 -1 389 -1 359 23 c 0,872,873
 257 103 257 103 217 318 c 0,874,875
 211 351 211 351 210 388 c 0,876,877
 209 461 209 461 231 508 c 0,878,879
 261 570 261 570 327 571 c 0,880,881
 333 571 333 571 344 571 c 1,882,-1
 343 560 l 1,883,884
 337 560 337 560 331 560 c 0,885,886
 219 558 219 558 221 391 c 0,887,888
 222 355 222 355 228 320 c 0,889,890
 242 230 242 230 289 135 c 0,891,892
 349 13 349 13 416 8 c 1,868,-1
630 -6 m 1,893,-1
 573 -28 l 1,894,-1
 569 -18 l 1,895,-1
 626 4 l 1,896,-1
 630 -6 l 1,893,-1
662 37 m 1,897,898
 554 -34 554 -34 415 -43 c 1,899,-1
 415 -32 l 1,900,901
 547 -26 547 -26 656 46 c 1,902,-1
 662 37 l 1,897,898
563 -30 m 1,903,904
 551 -39 551 -39 510 -55 c 1,905,-1
 506 -45 l 1,906,907
 524 -38 524 -38 557 -21 c 1,908,-1
 563 -30 l 1,903,904
331 5 m 1,909,-1
 324 -3 l 1,910,911
 250 60 250 60 208 182 c 0,912,913
 173 286 173 286 171 400 c 0,914,915
 170 435 170 435 173 466 c 1,916,-1
 184 465 l 1,917,918
 180 424 180 424 180 383 c 0,919,920
 184 174 184 174 301 37 c 0,921,922
 319 15 319 15 331 5 c 1,909,-1
503 -53 m 1,923,924
 483 -62 483 -62 413 -70 c 1,925,-1
 411 -59 l 1,926,927
 434 -57 434 -57 456 -54 c 0,928,929
 482 -51 482 -51 499 -43 c 1,930,-1
 503 -53 l 1,923,924
500 -75 m 1,931,932
 459 -93 459 -93 398 -93 c 1,933,-1
 388 -94 l 1,934,-1
 388 -83 l 1,935,-1
 399 -83 l 2,936,937
 456 -83 456 -83 496 -65 c 1,938,-1
 500 -75 l 1,931,932
173 80 m 1,939,-1
 165 73 l 1,940,941
 96 154 96 154 92 335 c 0,942,943
 92 354 92 354 93 372 c 1,944,-1
 104 371 l 1,945,946
 103 353 103 353 103 333 c 0,947,948
 106 161 106 161 173 80 c 1,939,-1
409 -71 m 1,949,-1
 342 -77 l 1,950,-1
 341 -66 l 1,951,-1
 408 -61 l 1,952,-1
 409 -71 l 1,949,-1
365 -45 m 1,953,954
 347 -49 347 -49 331 -50 c 0,955,956
 312 -50 312 -50 293 -46 c 1,957,-1
 295 -35 l 1,958,959
 314 -39 314 -39 331 -39 c 0,960,961
 345 -39 345 -39 362 -34 c 1,962,-1
 365 -45 l 1,953,954
226 18 m 1,963,-1
 219 9 l 1,964,965
 185 34 185 34 173 57 c 1,966,-1
 182 62 l 1,967,968
 193 41 193 41 226 18 c 1,963,-1
457 610 m 1,969,-1
 454 611 l 1,970,-1
 456 610 l 1,971,-1
 457 610 l 1,969,-1
454 611 m 1,972,-1
 450 613 l 1,973,-1
 450 613 l 1,974,-1
 454 611 l 1,972,-1
480 555 m 1,975,976
 465 575 465 575 444 579 c 1,977,978
 454 567 454 567 480 555 c 1,975,976
654 247 m 0,979,980
 654 269 654 269 643 293 c 0,981,982
 633 314 633 314 623 336 c 0,983,984
 619 346 619 346 612 366 c 0,985,986
 584 438 584 438 540 488 c 0,987,988
 525 507 525 507 491 541 c 1,989,-1
 490 539 l 1,990,991
 442 558 442 558 430 581 c 1,992,993
 413 594 413 594 373 608 c 1,994,995
 369 601 369 601 362 598 c 1,996,997
 456 571 456 571 519 502 c 0,998,999
 592 423 592 423 652 229 c 1,1000,1001
 654 238 654 238 654 247 c 0,979,980
667 313 m 1,1002,1003
 646 411 646 411 581 497 c 128,-1,1004
 516 583 516 583 429 624 c 0,1005,1006
 357 658 357 658 294 657 c 0,1007,1008
 219 655 219 655 156 587 c 1,1009,1010
 214 647 214 647 299 648 c 0,1011,1012
 320 649 320 649 379 636 c 0,1013,1014
 391 634 391 634 416 627 c 0,1015,1016
 465 608 465 608 534 537.5 c 128,-1,1017
 603 467 603 467 623 417 c 0,1018,1019
 649 350 649 350 667 313 c 1,1002,1003
674 255 m 0,1020,1021
 674 267 674 267 672 281 c 1,1022,1023
 659 298 659 298 640 345 c 0,1024,1025
 614 410 614 410 613 412 c 0,1026,1027
 605 429 605 429 574 471 c 0,1028,1029
 490 587 490 587 412 617 c 0,1030,1031
 402 621 402 621 377 626 c 0,1032,1033
 316 637 316 637 299 637 c 0,1034,1035
 288 637 288 637 278 636 c 1,1036,1037
 310 636 310 636 360 622.5 c 128,-1,1038
 410 609 410 609 435 591 c 1,1039,-1
 437 592 l 1,1040,-1
 437 591 l 1,1041,1042
 474 588 474 588 495 552 c 1,1043,1044
 505 545 505 545 548 495 c 0,1045,1046
 585 452 585 452 618 377 c 0,1047,1048
 623 364 623 364 632 340 c 0,1049,1050
 636 335 636 335 642 323 c 0,1051,1052
 664 282 664 282 665 248 c 0,1053,1054
 665 224 665 224 654 205 c 1,1055,1056
 649 166 649 166 603 133 c 1,1057,1058
 597 105 597 105 558 104 c 0,1059,1060
 507 103 507 103 433 220 c 1,1061,1062
 441 193 441 193 478 151 c 1,1063,-1
 469 144 l 1,1064,1065
 422 197 422 197 422 227 c 0,1066,1067
 422 232 422 232 423 237 c 0,1068,1069
 338 380 338 380 337 432 c 0,1070,1071
 337 461 337 461 355 462 c 0,1072,1073
 361 462 361 462 369 458 c 0,1074,1075
 372 460 372 460 376 460 c 0,1076,1077
 408 460 408 460 466 360 c 0,1078,1079
 503 297 503 297 535 226 c 0,1080,1081
 557 174 557 174 586 175 c 1,1082,1083
 578 180 578 180 571 192 c 0,1084,1085
 570 194 570 194 538 253 c 0,1086,1087
 511 304 511 304 456 404 c 0,1088,1089
 413 478 413 478 364 477 c 0,1090,1091
 324 476 324 476 325 437 c 0,1092,1093
 325 419 325 419 336 395 c 1,1094,-1
 336 395 l 1,1095,1096
 391 261 391 261 410 223 c 0,1097,1098
 473 97 473 97 523 86 c 1,1099,-1
 521 76 l 1,1100,1101
 449 91 449 91 370 282 c 0,1102,1103
 352 325 352 325 318 411 c 1,1104,1105
 318 411 318 411 318 412 c 0,1106,1107
 315 425 315 425 314 437 c 0,1108,1109
 313 487 313 487 364 488 c 0,1110,1111
 420 489 420 489 465 410 c 0,1112,1113
 478 389 478 389 548 259 c 0,1114,1115
 558 237 558 237 581 197 c 0,1116,1117
 587 187 587 187 593 183 c 1,1118,1119
 593 190 593 190 589 201 c 0,1120,1121
 588 202 588 202 567 249 c 0,1122,1123
 519 357 519 357 497 392 c 0,1124,1125
 447 474 447 474 386 503 c 1,1126,1127
 379 497 379 497 364.5 494.5 c 128,-1,1128
 350 492 350 492 337 490 c 0,1129,1130
 299 480 299 480 300 428 c 0,1131,1132
 301 410 301 410 307 388 c 1,1133,1134
 320 376 320 376 364 271 c 0,1135,1136
 400 186 400 186 423 149 c 0,1137,1138
 471 69 471 69 519 70 c 0,1139,1140
 540 70 540 70 560 86 c 1,1141,1142
 557 85 557 85 553 85 c 0,1143,1144
 508 84 508 84 477 132 c 1,1145,-1
 486 138 l 1,1146,1147
 514 96 514 96 554 96 c 0,1148,1149
 565 96 565 96 575 100 c 1,1150,-1
 579 105 l 1,1151,-1
 582 103 l 1,1152,1153
 612 116 612 116 648 165 c 0,1154,1155
 675 200 675 200 674 255 c 0,1020,1021
362 611 m 1,1156,1157
 315 626 315 626 278 625 c 0,1158,1159
 178 623 178 623 142 510 c 1,1160,1161
 165 559 165 559 212 586.5 c 128,-1,1162
 259 614 259 614 313 614 c 2,1163,-1
 319 614 l 1,1164,-1
 319 609 l 1,1165,1166
 333 605 333 605 345 605 c 0,1167,1168
 357 606 357 606 362 611 c 1,1156,1157
152 639 m 1,1169,1170
 124 623 124 623 116 610 c 1,1171,1172
 138 622 138 622 152 639 c 1,1169,1170
586 124 m 1,1173,1174
 579 122 579 122 571 122 c 0,1175,1176
 514 121 514 121 464 227 c 0,1177,1178
 442 273 442 273 382 369 c 0,1179,1180
 360 404 360 404 360 425 c 0,1181,1182
 360 436 360 436 363 449 c 1,1183,1184
 359 450 359 450 356 450 c 0,1185,1186
 347 450 347 450 348 436 c 0,1187,1188
 349 380 349 380 427 250 c 0,1189,1190
 510 114 510 114 559 115 c 0,1191,1192
 578 115 578 115 586 124 c 1,1173,1174
435 239 m 1,1193,-1
 435 238 l 1,1194,-1
 434 239 l 1,1195,-1
 435 239 l 1,1193,-1
EndSplineSet
Validated: 37
EndChar

StartChar: dollar
Encoding: 36 36 7
Width: 650
GlyphClass: 1
Flags: W
LayerCount: 2
Fore
SplineSet
184 284 m 1,0,-1
 198 284 l 1,1,-1
 198 284 l 1,2,-1
 184 284 l 1,0,-1
274 483 m 1,3,-1
 274 646 l 1,4,5
 241 638 241 638 219 618 c 0,6,7
 192 595 192 595 192 564 c 0,8,9
 192 534 192 534 219 511 c 0,10,11
 241 491 241 491 274 483 c 1,3,-1
365 376 m 1,12,-1
 365 177 l 1,13,14
 402 187 402 187 427 215 c 128,-1,15
 452 243 452 243 452 279 c 0,16,17
 452 344 452 344 365 376 c 1,12,-1
274 829 m 1,18,-1
 365 829 l 1,19,-1
 365 736 l 1,20,21
 371 735 371 735 428 705 c 1,22,-1
 428 726 l 1,23,-1
 509 726 l 1,24,-1
 510 560 l 1,25,-1
 428 560 l 1,26,27
 426 621 426 621 365 640 c 1,28,-1
 365 471 l 1,29,30
 437 454 437 454 487 404 c 0,31,32
 543 349 543 349 543 279 c 0,33,34
 543 205 543 205 491.5 150.5 c 128,-1,35
 440 96 440 96 365 83 c 1,36,-1
 365 -4 l 1,37,-1
 274 -4 l 1,38,-1
 274 85 l 1,39,40
 256 89 256 89 199 126 c 1,41,-1
 199 99 l 1,42,-1
 108 98 l 1,43,-1
 107 285 l 1,44,45
 191 284 191 284 198 284 c 1,46,47
 198 209 198 209 274 181 c 1,48,-1
 274 389 l 1,49,50
 204 399 204 399 155 446 c 0,51,52
 101 497 101 497 101 564 c 0,53,54
 101 632 101 632 155 683 c 0,55,56
 205 730 205 730 274 740 c 1,57,-1
 274 829 l 1,18,-1
EndSplineSet
Validated: 5
EndChar

StartChar: percent
Encoding: 37 37 8
Width: 650
GlyphClass: 1
Flags: W
LayerCount: 2
Fore
SplineSet
49 -2 m 1,0,-1
 482 827 l 1,1,-1
 601 827 l 1,2,-1
 169 -2 l 1,3,-1
 49 -2 l 1,0,-1
200 526 m 256,4,5
 138 526 138 526 93.5 570.5 c 128,-1,6
 49 615 49 615 49 678 c 0,7,8
 49 740 49 740 93.5 785 c 128,-1,9
 138 830 138 830 200 830 c 256,10,11
 262 830 262 830 306.5 785 c 128,-1,12
 351 740 351 740 351 678 c 0,13,14
 351 615 351 615 306.5 570.5 c 128,-1,15
 262 526 262 526 200 526 c 256,4,5
200 742 m 256,16,17
 174 742 174 742 155 723 c 128,-1,18
 136 704 136 704 136 678 c 0,19,20
 136 651 136 651 155 632.5 c 128,-1,21
 174 614 174 614 200 614 c 256,22,23
 226 614 226 614 245 632.5 c 128,-1,24
 264 651 264 651 264 678 c 0,25,26
 264 704 264 704 245 723 c 128,-1,27
 226 742 226 742 200 742 c 256,16,17
453 -7 m 256,28,29
 391 -7 391 -7 346.5 37.5 c 128,-1,30
 302 82 302 82 302 145 c 256,31,32
 302 208 302 208 346.5 252.5 c 128,-1,33
 391 297 391 297 453 297 c 256,34,35
 515 297 515 297 559.5 252.5 c 128,-1,36
 604 208 604 208 604 145 c 256,37,38
 604 82 604 82 559.5 37.5 c 128,-1,39
 515 -7 515 -7 453 -7 c 256,28,29
453 209 m 256,40,41
 427 209 427 209 408 190 c 128,-1,42
 389 171 389 171 389 145 c 256,43,44
 389 119 389 119 408 100 c 128,-1,45
 427 81 427 81 453 81 c 256,46,47
 479 81 479 81 497.5 100 c 128,-1,48
 516 119 516 119 516 145 c 256,49,50
 516 171 516 171 497.5 190 c 128,-1,51
 479 209 479 209 453 209 c 256,40,41
EndSplineSet
Validated: 1
EndChar

StartChar: ampersand
Encoding: 38 38 9
Width: 650
GlyphClass: 1
Flags: W
LayerCount: 2
Fore
SplineSet
151 236 m 0,0,1
 151 173 151 173 195 128 c 128,-1,2
 239 83 239 83 302 83 c 0,3,4
 357 83 357 83 403 121 c 1,5,-1
 251 378 l 1,6,7
 151 336 151 336 151 236 c 0,0,1
51 236 m 0,8,9
 51 309 51 309 90.5 370 c 128,-1,10
 130 431 130 431 199 465 c 1,11,-1
 109 616 l 1,12,-1
 110 831 l 1,13,-1
 544 831 l 1,14,-1
 544 621 l 1,15,-1
 445 621 l 1,16,-1
 445 730 l 1,17,-1
 209 730 l 1,18,-1
 209 644 l 1,19,-1
 454 231 l 1,20,-1
 454 362 l 1,21,-1
 413 362 l 1,22,-1
 413 463 l 1,23,-1
 598 463 l 1,24,-1
 598 362 l 1,25,-1
 554 362 l 1,26,27
 554 237 554 237 554 236 c 0,28,29
 549 165 549 165 523 114 c 1,30,-1
 535 94 l 1,31,-1
 599 94 l 1,32,-1
 599 -7 l 1,33,-1
 478 -7 l 1,34,-1
 455 34 l 1,35,36
 384 -18 384 -18 302 -18 c 0,37,38
 198 -18 198 -18 124.5 57 c 128,-1,39
 51 132 51 132 51 236 c 0,8,9
EndSplineSet
Validated: 1
EndChar

StartChar: quotesingle
Encoding: 39 39 10
Width: 650
GlyphClass: 1
Flags: W
LayerCount: 2
Fore
SplineSet
392 677 m 1,0,-1
 370 512 l 1,1,-1
 280 512 l 1,2,-1
 258 677 l 1,3,-1
 258 829 l 1,4,-1
 392 829 l 1,5,-1
 392 677 l 1,0,-1
EndSplineSet
Validated: 1
EndChar

StartChar: parenleft
Encoding: 40 40 11
Width: 650
GlyphClass: 1
Flags: W
LayerCount: 2
Fore
SplineSet
314 391 m 0,0,1
 314 139 314 139 429 7 c 1,2,-1
 344 -67 l 1,3,4
 201 96 201 96 201 391 c 0,5,6
 201 526 201 526 237 647 c 0,7,8
 283 799 283 799 376 878 c 1,9,-1
 449 791 l 1,10,11
 379 731 379 731 343 604 c 0,12,13
 314 502 314 502 314 391 c 0,0,1
EndSplineSet
Validated: 1
EndChar

StartChar: parenright
Encoding: 41 41 12
Width: 650
GlyphClass: 1
Flags: W
LayerCount: 2
Fore
SplineSet
336 391 m 0,0,1
 336 139 336 139 221 7 c 1,2,-1
 306 -67 l 1,3,4
 449 96 449 96 449 391 c 0,5,6
 449 526 449 526 413 647 c 0,7,8
 367 799 367 799 274 878 c 1,9,-1
 201 791 l 1,10,11
 271 731 271 731 307 604 c 0,12,13
 336 502 336 502 336 391 c 0,0,1
EndSplineSet
Validated: 9
EndChar

StartChar: asterisk
Encoding: 42 42 13
Width: 650
GlyphClass: 1
Flags: W
LayerCount: 2
Fore
SplineSet
587 573 m 1,0,-1
 405 514 l 1,1,-1
 517 359 l 1,2,-1
 438 301 l 1,3,-1
 325 456 l 1,4,-1
 213 301 l 1,5,-1
 133 359 l 1,6,-1
 245 513 l 1,7,-1
 63 572 l 1,8,-1
 94 666 l 1,9,-1
 276 607 l 1,10,-1
 276 798 l 1,11,-1
 374 798 l 1,12,-1
 374 608 l 1,13,-1
 556 667 l 1,14,-1
 587 573 l 1,0,-1
EndSplineSet
Validated: 1
EndChar

StartChar: plus
Encoding: 43 43 14
Width: 650
GlyphClass: 1
Flags: W
LayerCount: 2
Fore
SplineSet
270 202 m 1,0,-1
 270 358 l 1,1,-1
 114 358 l 1,2,-1
 114 467 l 1,3,-1
 270 467 l 1,4,-1
 270 623 l 1,5,-1
 380 623 l 1,6,-1
 380 467 l 1,7,-1
 536 467 l 1,8,-1
 536 358 l 1,9,-1
 380 358 l 1,10,-1
 380 202 l 1,11,-1
 270 202 l 1,0,-1
EndSplineSet
Validated: 1
EndChar

StartChar: comma
Encoding: 44 44 15
Width: 650
GlyphClass: 1
Flags: W
LayerCount: 2
Fore
SplineSet
335 -129 m 1,0,-1
 266 -129 l 1,1,-1
 316 -5 l 1,2,-1
 251 -5 l 1,3,-1
 251 149 l 1,4,-1
 400 149 l 1,5,-1
 400 -5 l 1,6,-1
 335 -129 l 1,0,-1
EndSplineSet
Validated: 1
EndChar

StartChar: hyphen
Encoding: 45 45 16
AltUni2: 002010.ffffffff.0 002010.ffffffff.0
Width: 650
GlyphClass: 1
Flags: W
LayerCount: 2
Fore
SplineSet
164 467 m 1,0,-1
 486 467 l 1,1,-1
 486 358 l 1,2,-1
 164 358 l 1,3,-1
 164 467 l 1,0,-1
EndSplineSet
Validated: 1
EndChar

StartChar: period
Encoding: 46 46 17
Width: 650
GlyphClass: 1
Flags: W
LayerCount: 2
Fore
SplineSet
400 -5 m 1,0,-1
 251 -5 l 1,1,-1
 251 149 l 1,2,-1
 400 149 l 1,3,-1
 400 -5 l 1,0,-1
EndSplineSet
Validated: 1
EndChar

StartChar: slash
Encoding: 47 47 18
Width: 650
GlyphClass: 1
Flags: W
LayerCount: 2
Fore
SplineSet
44 -7 m 1,0,-1
 484 832 l 1,1,-1
 606 832 l 1,2,-1
 166 -7 l 1,3,-1
 44 -7 l 1,0,-1
EndSplineSet
Validated: 1
EndChar

StartChar: one
Encoding: 49 49 20
Width: 650
GlyphClass: 1
Flags: W
LayerCount: 2
Fore
SplineSet
557 -7 m 1,0,-1
 93 -7 l 1,1,-1
 93 111 l 1,2,-1
 270 111 l 1,3,-1
 270 713 l 1,4,-1
 93 713 l 1,5,-1
 93 831 l 1,6,-1
 384 831 l 1,7,-1
 384 111 l 1,8,-1
 557 111 l 1,9,-1
 557 -7 l 1,0,-1
EndSplineSet
Validated: 1
EndChar

StartChar: two
Encoding: 50 50 21
Width: 650
GlyphClass: 1
Flags: W
LayerCount: 2
Fore
SplineSet
486 213 m 1,0,-1
 593 213 l 1,1,-1
 593 -3 l 1,2,-1
 58 -3 l 1,3,-1
 58 52 l 2,4,5
 58 203 58 203 168 323 c 0,6,7
 211 369 211 369 373 488 c 0,8,9
 483 569 483 569 483 627 c 0,10,11
 483 681 483 681 422 711 c 0,12,13
 374 735 374 735 313 735 c 0,14,15
 164 735 164 735 164 635 c 0,16,17
 164 614 164 614 175 588 c 1,18,-1
 75 546 l 1,19,20
 57 593 57 593 57 635 c 0,21,22
 57 739 57 739 135 795 c 0,23,24
 205 845 205 845 313 845 c 256,25,26
 421 845 421 845 500 791 c 0,27,28
 591 730 591 730 591 627 c 0,29,30
 591 531 591 531 495 447 c 1,31,32
 401 375 401 375 307 303 c 1,33,34
 197 211 197 211 174 107 c 1,35,-1
 486 107 l 1,36,-1
 486 213 l 1,0,-1
EndSplineSet
Validated: 1
EndChar

StartChar: three
Encoding: 51 51 22
Width: 650
GlyphClass: 1
Flags: W
LayerCount: 2
Fore
SplineSet
313 -19 m 0,0,1
 217 -19 217 -19 141 47 c 0,2,3
 72 107 72 107 39 203 c 1,4,-1
 141 239 l 1,5,6
 162 176 162 176 204 136 c 0,7,8
 252 90 252 90 313 90 c 0,9,10
 389 90 389 90 444 150 c 128,-1,11
 499 210 499 210 499 286 c 0,12,13
 499 361 499 361 452 408 c 128,-1,14
 405 455 405 455 329 455 c 0,15,16
 294 455 294 455 274 446 c 128,-1,17
 254 437 254 437 226 411 c 1,18,-1
 149 487 l 1,19,-1
 398 721 l 1,20,-1
 159 721 l 1,21,-1
 159 614 l 1,22,-1
 51 614 l 1,23,-1
 51 831 l 1,24,-1
 598 831 l 1,25,-1
 598 762 l 1,26,-1
 385 560 l 1,27,28
 486 541 486 541 546.5 465.5 c 128,-1,29
 607 390 607 390 607 286 c 0,30,31
 607 165 607 165 520 73 c 128,-1,32
 433 -19 433 -19 313 -19 c 0,0,1
EndSplineSet
Validated: 1
EndChar

StartChar: four
Encoding: 52 52 23
Width: 650
GlyphClass: 1
Flags: W
LayerCount: 2
Fore
SplineSet
318 103 m 1,0,-1
 386 103 l 1,1,-1
 386 192 l 1,2,-1
 54 192 l 1,3,-1
 54 279 l 1,4,-1
 401 829 l 1,5,-1
 493 829 l 1,6,-1
 493 302 l 1,7,-1
 596 302 l 1,8,-1
 596 192 l 1,9,-1
 493 192 l 1,10,-1
 493 103 l 1,11,-1
 544 103 l 1,12,-1
 544 -6 l 1,13,-1
 318 -6 l 1,14,-1
 318 103 l 1,0,-1
197 302 m 1,15,-1
 386 302 l 1,16,-1
 386 602 l 1,17,-1
 197 302 l 1,15,-1
EndSplineSet
Validated: 1
EndChar

StartChar: five
Encoding: 53 53 24
Width: 650
GlyphClass: 1
Flags: W
LayerCount: 2
Fore
SplineSet
312 -23 m 0,0,1
 222 -23 222 -23 147 39 c 0,2,3
 81 96 81 96 44 186 c 1,4,-1
 144 228 l 1,5,6
 168 169 168 169 208 131 c 0,7,8
 255 86 255 86 312 86 c 0,9,10
 392 86 392 86 445 161 c 0,11,12
 493 228 493 228 493 310 c 0,13,14
 493 393 493 393 445 458 c 0,15,16
 393 529 393 529 312 529 c 0,17,18
 243 529 243 529 175 454 c 1,19,-1
 97 500 l 1,20,-1
 97 831 l 1,21,-1
 503 831 l 1,22,-1
 503 721 l 1,23,-1
 205 721 l 1,24,-1
 205 614 l 1,25,26
 257 638 257 638 312 638 c 0,27,28
 438 638 438 638 522 535 c 0,29,30
 601 439 601 439 601 310 c 256,31,32
 601 181 601 181 523 83 c 0,33,34
 438 -23 438 -23 312 -23 c 0,0,1
EndSplineSet
Validated: 1
EndChar

StartChar: six
Encoding: 54 54 25
Width: 650
GlyphClass: 1
Flags: W
LayerCount: 2
Fore
SplineSet
57 344 m 1,0,-1
 56 344 l 1,1,2
 54 340 54 340 54 415 c 0,3,4
 54 591 54 591 102 698 c 0,5,6
 170 845 170 845 325 845 c 0,7,8
 401 845 401 845 466 804 c 0,9,10
 528 764 528 764 567 696 c 1,11,-1
 474 640 l 1,12,13
 420 735 420 735 325 735 c 0,14,15
 201 735 201 735 171 550 c 1,16,17
 240 611 240 611 324 611 c 0,18,19
 448 611 448 611 526 508 c 0,20,21
 596 415 596 415 596 286 c 0,22,23
 596 166 596 166 521 74 c 0,24,25
 441 -23 441 -23 324 -23 c 0,26,27
 266 -23 266 -23 203 15 c 0,28,29
 136 55 136 55 96 162 c 0,30,31
 65 245 65 245 57 344 c 1,0,-1
324 86 m 0,32,33
 396 86 396 86 444 152 c 0,34,35
 489 212 489 212 489 286 c 0,36,37
 489 369 489 369 448 430 c 0,38,39
 402 501 402 501 324 501 c 0,40,41
 267 501 267 501 221 446 c 0,42,43
 183 400 183 400 165 338 c 1,44,45
 174 246 174 246 205 180 c 0,46,47
 249 86 249 86 324 86 c 0,32,33
EndSplineSet
Validated: 33
EndChar

StartChar: seven
Encoding: 55 55 26
Width: 650
GlyphClass: 1
Flags: W
LayerCount: 2
Fore
SplineSet
55 605 m 1,0,-1
 55 828 l 1,1,-1
 544 828 l 1,2,-1
 599 732 l 1,3,4
 394 438 394 438 314 -4 c 1,5,-1
 197 -4 l 1,6,7
 268 401 268 401 446 710 c 1,8,-1
 170 710 l 1,9,-1
 170 605 l 1,10,-1
 55 605 l 1,0,-1
EndSplineSet
Validated: 1
EndChar

StartChar: eight
Encoding: 56 56 27
Width: 650
GlyphClass: 1
Flags: W
LayerCount: 2
Fore
SplineSet
325 -16 m 256,0,1
 214 -16 214 -16 133 56 c 0,2,3
 49 130 49 130 49 239 c 0,4,5
 49 367 49 367 160 444 c 1,6,7
 80 510 80 510 80 611 c 0,8,9
 80 708 80 708 155 774 c 0,10,11
 227 837 227 837 325 837 c 256,12,13
 423 837 423 837 495 774 c 0,14,15
 570 708 570 708 570 611 c 0,16,17
 570 511 570 511 490 444 c 1,18,19
 601 368 601 368 601 239 c 0,20,21
 601 130 601 130 518.5 57 c 128,-1,22
 436 -16 436 -16 325 -16 c 256,0,1
325 728 m 256,23,24
 272 728 272 728 232 696 c 0,25,26
 187 662 187 662 187 611 c 256,27,28
 187 560 187 560 232 526 c 0,29,30
 272 494 272 494 325 494 c 256,31,32
 378 494 378 494 418 526 c 0,33,34
 463 560 463 560 463 611 c 256,35,36
 463 662 463 662 418 696 c 0,37,38
 378 728 378 728 325 728 c 256,23,24
325 385 m 256,39,40
 260 385 260 385 210 345 c 0,41,42
 156 303 156 303 156 239 c 0,43,44
 156 176 156 176 210 133 c 0,45,46
 260 94 260 94 325 94 c 256,47,48
 390 94 390 94 440 133 c 0,49,50
 494 176 494 176 494 239 c 0,51,52
 494 303 494 303 440 345 c 0,53,54
 390 385 390 385 325 385 c 256,39,40
EndSplineSet
Validated: 1
EndChar

StartChar: nine
Encoding: 57 57 28
Width: 650
GlyphClass: 1
Flags: W
LayerCount: 2
Fore
SplineSet
482 295 m 1,0,1
 412 239 412 239 324 239 c 0,2,3
 206 239 206 239 127 332 c 0,4,5
 51 422 51 422 51 541 c 0,6,7
 51 661 51 661 127 750 c 0,8,9
 206 844 206 844 324 844 c 0,10,11
 470 844 470 844 543 693 c 0,12,13
 599 576 599 576 599 412 c 0,14,15
 599 240 599 240 544 127 c 0,16,17
 472 -22 472 -22 318 -22 c 0,18,19
 168 -22 168 -22 80 132 c 1,20,-1
 174 187 l 1,21,22
 230 88 230 88 318 88 c 0,23,24
 449 88 449 88 482 295 c 1,0,1
324 734 m 0,25,26
 252 734 252 734 204 672 c 0,27,28
 159 615 159 615 159 541 c 256,29,30
 159 467 159 467 204 410 c 0,31,32
 252 348 252 348 324 348 c 0,33,34
 385 348 385 348 430 395 c 0,35,36
 470 437 470 437 485 500 c 1,37,38
 456 734 456 734 324 734 c 0,25,26
EndSplineSet
Validated: 1
EndChar

StartChar: less
Encoding: 60 60 31
Width: 650
GlyphClass: 1
Flags: W
LayerCount: 2
Fore
SplineSet
168 256 m 1,0,-1
 420 509 l 1,1,-1
 482 447 l 1,2,-1
 291 256 l 1,3,-1
 482 65 l 1,4,-1
 420 4 l 1,5,-1
 168 256 l 1,0,-1
EndSplineSet
Validated: 1
EndChar

StartChar: equal
Encoding: 61 61 32
Width: 650
GlyphClass: 1
Flags: W
LayerCount: 2
Fore
SplineSet
409 -23 m 0,0,1
 336 -23 336 -23 284.5 30 c 128,-1,2
 233 83 233 83 233 157 c 2,3,-1
 233 665 l 2,4,5
 233 738 233 738 284.5 791.5 c 128,-1,6
 336 845 336 845 409 845 c 0,7,8
 483 845 483 845 534.5 791.5 c 128,-1,9
 586 738 586 738 586 665 c 2,10,-1
 586 157 l 2,11,12
 586 83 586 83 534.5 30 c 128,-1,13
 483 -23 483 -23 409 -23 c 0,0,1
409 735 m 0,14,15
 381 735 381 735 361 714 c 128,-1,16
 341 693 341 693 341 665 c 2,17,-1
 341 157 l 2,18,19
 341 128 341 128 361 107 c 128,-1,20
 381 86 381 86 409 86 c 0,21,22
 438 86 438 86 458 107 c 128,-1,23
 478 128 478 128 478 157 c 2,24,-1
 478 665 l 2,25,26
 478 693 478 693 458 714 c 128,-1,27
 438 735 438 735 409 735 c 0,14,15
64 830 m 1,28,-1
 172 830 l 1,29,-1
 172 -5 l 1,30,-1
 64 -5 l 1,31,-1
 64 830 l 1,28,-1
EndSplineSet
Validated: 1
EndChar

StartChar: greater
Encoding: 62 62 33
Width: 650
GlyphClass: 1
Flags: W
LayerCount: 2
Fore
SplineSet
482 256 m 1,0,-1
 230 4 l 1,1,-1
 168 65 l 1,2,-1
 359 256 l 1,3,-1
 168 447 l 1,4,-1
 230 509 l 1,5,-1
 482 256 l 1,0,-1
EndSplineSet
Validated: 1
EndChar

StartChar: question
Encoding: 63 63 34
Width: 650
GlyphClass: 1
Flags: W
LayerCount: 2
Fore
SplineSet
259 132 m 1,0,-1
 393 132 l 1,1,-1
 393 -5 l 1,2,-1
 259 -5 l 1,3,-1
 259 132 l 1,0,-1
325 735 m 0,4,5
 248 735 248 735 204 687 c 0,6,7
 163 644 163 644 159 571 c 1,8,-1
 52 571 l 1,9,10
 57 687 57 687 132.5 766 c 128,-1,11
 208 845 208 845 325 845 c 0,12,13
 436 845 436 845 517 769 c 128,-1,14
 598 693 598 693 598 585 c 0,15,16
 598 494 598 494 538 425.5 c 128,-1,17
 478 357 478 357 379 334 c 1,18,-1
 379 251 l 1,19,-1
 272 251 l 1,20,-1
 271 438 l 1,21,-1
 325 438 l 2,22,23
 390 438 390 438 440.5 479.5 c 128,-1,24
 491 521 491 521 491 585 c 0,25,26
 491 650 491 650 439 694 c 0,27,28
 389 735 389 735 325 735 c 0,4,5
EndSplineSet
Validated: 1
EndChar

StartChar: at
Encoding: 64 64 35
Width: 650
GlyphClass: 1
Flags: W
LayerCount: 2
Fore
SplineSet
600 354 m 0,0,1
 600 296 600 296 575 259 c 0,2,3
 545 215 545 215 485 215 c 0,4,5
 443 215 443 215 411 243 c 1,6,7
 373 213 373 213 325 213 c 0,8,9
 268 213 268 213 227.5 253 c 128,-1,10
 187 293 187 293 187 351 c 2,11,-1
 187 474 l 2,12,13
 187 531 187 531 228 571.5 c 128,-1,14
 269 612 269 612 325 612 c 256,15,16
 381 612 381 612 421.5 571.5 c 128,-1,17
 462 531 462 531 462 474 c 2,18,-1
 462 351 l 2,19,20
 462 326 462 326 464 320 c 0,21,22
 468 307 468 307 485 307 c 0,23,24
 509 307 509 307 509 331 c 2,25,-1
 509 566 l 2,26,27
 509 643 509 643 454.5 697 c 128,-1,28
 400 751 400 751 325 751 c 0,29,30
 249 751 249 751 195 697 c 128,-1,31
 141 643 141 643 141 566 c 2,32,-1
 141 270 l 2,33,34
 141 193 141 193 195 139.5 c 128,-1,35
 249 86 249 86 325 86 c 2,36,-1
 547 86 l 1,37,-1
 547 -6 l 1,38,-1
 325 -6 l 2,39,40
 212 -6 212 -6 131 74.5 c 128,-1,41
 50 155 50 155 50 270 c 2,42,-1
 50 566 l 2,43,44
 50 681 50 681 131 762 c 128,-1,45
 212 843 212 843 325 843 c 0,46,47
 439 843 439 843 519.5 761.5 c 128,-1,48
 600 680 600 680 601 558 c 0,49,50
 601 523 601 523 600 354 c 0,0,1
325 305 m 0,51,52
 343 305 343 305 357 318.5 c 128,-1,53
 371 332 371 332 371 351 c 2,54,-1
 371 474 l 2,55,56
 371 493 371 493 357.5 506.5 c 128,-1,57
 344 520 344 520 325 520 c 256,58,59
 306 520 306 520 292.5 506.5 c 128,-1,60
 279 493 279 493 279 474 c 2,61,-1
 279 351 l 2,62,63
 279 332 279 332 292.5 318.5 c 128,-1,64
 306 305 306 305 325 305 c 0,51,52
EndSplineSet
Validated: 1
EndChar

StartChar: A
Encoding: 65 65 36
Width: 650
GlyphClass: 1
Flags: W
LayerCount: 2
Fore
SplineSet
261 281 m 1,0,-1
 389 281 l 1,1,-1
 325 622 l 1,2,-1
 261 281 l 1,0,-1
274 92 m 1,3,-1
 274 -9 l 1,4,-1
 51 -9 l 1,5,-1
 51 92 l 1,6,-1
 124 92 l 1,7,-1
 262 829 l 1,8,-1
 387 829 l 1,9,-1
 526 92 l 1,10,-1
 599 92 l 1,11,-1
 599 -9 l 1,12,-1
 376 -9 l 1,13,-1
 376 92 l 1,14,-1
 424 92 l 1,15,-1
 408 180 l 1,16,-1
 242 180 l 1,17,-1
 226 92 l 1,18,-1
 274 92 l 1,3,-1
EndSplineSet
Validated: 1
EndChar

StartChar: B
Encoding: 66 66 37
Width: 650
GlyphClass: 1
Flags: W
LayerCount: 2
Fore
SplineSet
237 92 m 1,0,-1
 326 92 l 2,1,2
 402 92 402 92 447 124 c 0,3,4
 500 163 500 163 500 241 c 0,5,6
 500 309 500 309 441 351 c 0,7,8
 388 389 388 389 313 389 c 2,9,-1
 237 389 l 1,10,-1
 237 92 l 1,0,-1
237 485 m 1,11,-1
 313 485 l 1,12,13
 376 491 376 491 419 521 c 0,14,15
 468 556 468 556 468 609 c 0,16,17
 468 689 468 689 384 715 c 0,18,19
 339 730 339 730 237 730 c 1,20,-1
 237 485 l 1,11,-1
138 730 m 1,21,-1
 51 730 l 1,22,-1
 51 831 l 1,23,-1
 331 830 l 2,24,25
 427 830 427 830 495 772 c 0,26,27
 568 709 568 709 568 609 c 0,28,29
 568 516 568 516 484 443 c 1,30,31
 599 362 599 362 599 241 c 0,32,33
 599 126 599 126 521 56 c 0,34,35
 446 -10 446 -10 330 -10 c 2,36,-1
 248 -9 l 2,37,38
 206 -9 206 -9 51 -9 c 1,39,-1
 51 92 l 1,40,-1
 138 92 l 1,41,-1
 138 730 l 1,21,-1
EndSplineSet
Validated: 1
EndChar

StartChar: C
Encoding: 67 67 38
Width: 650
GlyphClass: 1
Flags: W
LayerCount: 2
Fore
SplineSet
472 830 m 1,0,-1
 580 830 l 1,1,-1
 580 568 l 1,2,-1
 472 568 l 1,3,4
 472 735 472 735 325 735 c 0,5,6
 256 735 256 735 217 693.5 c 128,-1,7
 178 652 178 652 178 582 c 2,8,-1
 178 242 l 2,9,10
 178 172 178 172 217 129 c 128,-1,11
 256 86 256 86 325 86 c 0,12,13
 398 86 398 86 437 136 c 0,14,15
 472 181 472 181 472 257 c 1,16,-1
 580 257 l 1,17,18
 580 133 580 133 515 57 c 0,19,20
 446 -23 446 -23 325 -23 c 0,21,22
 211 -23 211 -23 140.5 52 c 128,-1,23
 70 127 70 127 70 242 c 2,24,-1
 70 582 l 2,25,26
 70 698 70 698 140 771.5 c 128,-1,27
 210 845 210 845 325 845 c 0,28,29
 367 845 367 845 413 825 c 0,30,31
 453 808 453 808 472 786 c 1,32,-1
 472 830 l 1,0,-1
EndSplineSet
Validated: 1
EndChar

StartChar: D
Encoding: 68 68 39
Width: 650
GlyphClass: 1
Flags: W
LayerCount: 2
Fore
SplineSet
147 101 m 1,0,-1
 147 721 l 1,1,-1
 48 721 l 1,2,-1
 48 831 l 1,3,-1
 290 831 l 2,4,5
 459 831 459 831 538 699 c 0,6,7
 602 593 602 593 602 412 c 0,8,9
 602 252 602 252 542 137 c 0,10,11
 466 -9 466 -9 318 -9 c 2,12,-1
 48 -9 l 1,13,-1
 48 101 l 1,14,-1
 147 101 l 1,0,-1
255 721 m 1,15,-1
 255 101 l 1,16,-1
 312 101 l 2,17,18
 412 101 412 101 459 214 c 0,19,20
 494 297 494 297 494 412 c 0,21,22
 494 721 494 721 296 721 c 2,23,-1
 255 721 l 1,15,-1
EndSplineSet
Validated: 1
EndChar

StartChar: E
Encoding: 69 69 40
Width: 650
GlyphClass: 1
Flags: W
LayerCount: 2
Fore
SplineSet
492 208 m 1,0,-1
 599 208 l 1,1,-1
 599 -9 l 1,2,-1
 51 -9 l 1,3,-1
 51 101 l 1,4,-1
 130 101 l 1,5,-1
 130 721 l 1,6,-1
 51 721 l 1,7,-1
 51 831 l 1,8,-1
 599 831 l 1,9,-1
 599 614 l 1,10,-1
 492 614 l 1,11,-1
 492 721 l 1,12,-1
 238 721 l 1,13,-1
 238 467 l 1,14,-1
 495 467 l 1,15,-1
 495 358 l 1,16,-1
 238 358 l 1,17,-1
 238 101 l 1,18,-1
 492 101 l 1,19,-1
 492 208 l 1,0,-1
EndSplineSet
Validated: 1
EndChar

StartChar: F
Encoding: 70 70 41
Width: 650
GlyphClass: 1
Flags: W
LayerCount: 2
Fore
SplineSet
51 101 m 1,0,-1
 130 101 l 1,1,-1
 130 721 l 1,2,-1
 51 721 l 1,3,-1
 51 831 l 1,4,-1
 599 831 l 1,5,-1
 599 614 l 1,6,-1
 492 614 l 1,7,-1
 492 721 l 1,8,-1
 238 721 l 1,9,-1
 238 467 l 1,10,-1
 495 467 l 1,11,-1
 495 358 l 1,12,-1
 238 358 l 1,13,-1
 238 101 l 1,14,-1
 314 101 l 1,15,-1
 314 -9 l 1,16,-1
 51 -9 l 1,17,-1
 51 101 l 1,0,-1
EndSplineSet
Validated: 1
EndChar

StartChar: G
Encoding: 71 71 42
Width: 650
GlyphClass: 1
Flags: W
LayerCount: 2
Fore
SplineSet
449 830 m 1,0,-1
 557 830 l 1,1,-1
 557 571 l 1,2,-1
 450 571 l 1,3,4
 450 639 450 639 412 685 c 0,5,6
 372 735 372 735 306 735 c 0,7,8
 246 735 246 735 204 690.5 c 128,-1,9
 162 646 162 646 162 586 c 2,10,-1
 162 238 l 2,11,12
 162 178 162 178 204 134.5 c 128,-1,13
 246 91 246 91 306 91 c 0,14,15
 365 91 365 91 407.5 134.5 c 128,-1,16
 450 178 450 178 450 238 c 2,17,-1
 450 358 l 1,18,-1
 311 358 l 1,19,-1
 311 467 l 1,20,-1
 596 467 l 1,21,-1
 596 358 l 1,22,-1
 557 358 l 1,23,-1
 557 238 l 2,24,25
 557 133 557 133 484 57 c 128,-1,26
 411 -19 411 -19 306 -19 c 256,27,28
 201 -19 201 -19 127.5 57 c 128,-1,29
 54 133 54 133 54 238 c 2,30,-1
 54 586 l 2,31,32
 54 691 54 691 127 768 c 128,-1,33
 200 845 200 845 306 845 c 0,34,35
 385 845 385 845 449 798 c 1,36,-1
 449 830 l 1,0,-1
EndSplineSet
Validated: 1
EndChar

StartChar: H
Encoding: 72 72 43
Width: 650
GlyphClass: 1
Flags: W
LayerCount: 2
Fore
SplineSet
50 -9 m 1,0,-1
 50 92 l 1,1,-1
 125 92 l 1,2,-1
 125 730 l 1,3,-1
 50 730 l 1,4,-1
 50 831 l 1,5,-1
 296 831 l 1,6,-1
 296 730 l 1,7,-1
 225 730 l 1,8,-1
 225 463 l 1,9,-1
 425 463 l 1,10,-1
 425 730 l 1,11,-1
 354 730 l 1,12,-1
 354 831 l 1,13,-1
 600 831 l 1,14,-1
 600 730 l 1,15,-1
 525 730 l 1,16,-1
 525 92 l 1,17,-1
 600 92 l 1,18,-1
 600 -9 l 1,19,-1
 354 -9 l 1,20,-1
 354 92 l 1,21,-1
 425 92 l 1,22,-1
 425 362 l 1,23,-1
 225 362 l 1,24,-1
 225 92 l 1,25,-1
 296 92 l 1,26,-1
 296 -9 l 1,27,-1
 50 -9 l 1,0,-1
EndSplineSet
Validated: 1
EndChar

StartChar: I
Encoding: 73 73 44
Width: 650
GlyphClass: 1
Flags: W
LayerCount: 2
Fore
SplineSet
93 -7 m 1,0,-1
 93 111 l 1,1,-1
 270 111 l 1,2,-1
 270 712 l 1,3,-1
 93 712 l 1,4,-1
 93 831 l 1,5,-1
 557 831 l 1,6,-1
 557 712 l 1,7,-1
 384 712 l 1,8,-1
 384 111 l 1,9,-1
 557 111 l 1,10,-1
 557 -7 l 1,11,-1
 93 -7 l 1,0,-1
EndSplineSet
Validated: 1
EndChar

StartChar: J
Encoding: 74 74 45
Width: 650
GlyphClass: 1
Flags: W
LayerCount: 2
Fore
SplineSet
170 285 m 1,0,1
 169 224 169 224 169 234 c 1,2,3
 169 174 169 174 194 138 c 0,4,5
 224 95 224 95 284 95 c 0,6,7
 335 95 335 95 366 132 c 0,8,9
 394 166 394 166 394 217 c 2,10,-1
 394 712 l 1,11,-1
 303 712 l 1,12,-1
 303 831 l 1,13,-1
 596 831 l 1,14,-1
 596 712 l 1,15,-1
 509 712 l 1,16,-1
 509 217 l 2,17,18
 509 116 509 116 448 48 c 0,19,20
 384 -23 384 -23 284 -23 c 0,21,22
 183 -23 183 -23 118 47 c 128,-1,23
 53 117 53 117 54 218 c 2,24,-1
 55 285 l 1,25,-1
 170 285 l 1,0,1
EndSplineSet
Validated: 33
EndChar

StartChar: K
Encoding: 75 75 46
Width: 650
GlyphClass: 1
Flags: W
LayerCount: 2
Fore
SplineSet
50 83 m 1,0,-1
 127 83 l 1,1,-1
 127 739 l 1,2,-1
 50 739 l 1,3,-1
 50 831 l 1,4,-1
 283 831 l 1,5,-1
 283 739 l 1,6,-1
 218 739 l 1,7,-1
 218 420 l 1,8,-1
 423 739 l 1,9,-1
 344 739 l 1,10,-1
 344 831 l 1,11,-1
 600 831 l 1,12,-1
 600 739 l 1,13,-1
 527 739 l 1,14,-1
 360 480 l 1,15,-1
 530 83 l 1,16,-1
 600 83 l 1,17,-1
 600 -9 l 1,18,-1
 344 -9 l 1,19,-1
 344 83 l 1,20,-1
 426 83 l 1,21,-1
 298 383 l 1,22,-1
 218 259 l 1,23,-1
 218 83 l 1,24,-1
 283 83 l 1,25,-1
 283 -9 l 1,26,-1
 50 -9 l 1,27,-1
 50 83 l 1,0,-1
EndSplineSet
Validated: 1
EndChar

StartChar: L
Encoding: 76 76 47
Width: 650
GlyphClass: 1
Flags: W
LayerCount: 2
Fore
SplineSet
599 -9 m 1,0,-1
 51 -9 l 1,1,-1
 51 101 l 1,2,-1
 130 101 l 1,3,-1
 130 721 l 1,4,-1
 51 721 l 1,5,-1
 51 831 l 1,6,-1
 314 831 l 1,7,-1
 314 721 l 1,8,-1
 238 721 l 1,9,-1
 238 101 l 1,10,-1
 492 101 l 1,11,-1
 492 208 l 1,12,-1
 599 208 l 1,13,-1
 599 -9 l 1,0,-1
EndSplineSet
Validated: 1
EndChar

StartChar: M
Encoding: 77 77 48
Width: 650
GlyphClass: 1
Flags: W
LayerCount: 2
Fore
SplineSet
102 747 m 1,0,-1
 48 747 l 1,1,-1
 48 831 l 1,2,-1
 220 831 l 1,3,-1
 325 325 l 1,4,-1
 430 833 l 1,5,-1
 602 833 l 1,6,-1
 602 750 l 1,7,-1
 548 750 l 1,8,-1
 548 77 l 1,9,-1
 602 77 l 1,10,-1
 602 -6 l 1,11,-1
 410 -6 l 1,12,-1
 410 77 l 1,13,-1
 465 77 l 1,14,-1
 465 591 l 1,15,-1
 366 113 l 1,16,-1
 284 113 l 1,17,-1
 185 590 l 1,18,-1
 185 74 l 1,19,-1
 240 74 l 1,20,-1
 240 -9 l 1,21,-1
 48 -9 l 1,22,-1
 48 74 l 1,23,-1
 102 74 l 1,24,-1
 102 747 l 1,0,-1
EndSplineSet
Validated: 1
EndChar

StartChar: N
Encoding: 78 78 49
Width: 650
GlyphClass: 1
Flags: W
LayerCount: 2
Fore
SplineSet
295 -9 m 1,0,-1
 50 -9 l 1,1,-1
 50 83 l 1,2,-1
 126 83 l 1,3,-1
 126 739 l 1,4,-1
 50 739 l 1,5,-1
 50 831 l 1,6,-1
 246 831 l 1,7,-1
 432 279 l 1,8,-1
 432 739 l 1,9,-1
 367 739 l 1,10,-1
 367 831 l 1,11,-1
 600 831 l 1,12,-1
 600 739 l 1,13,-1
 524 739 l 1,14,-1
 524 -4 l 1,15,-1
 431 -4 l 1,16,-1
 218 630 l 1,17,-1
 218 83 l 1,18,-1
 295 83 l 1,19,-1
 295 -9 l 1,0,-1
EndSplineSet
Validated: 1
EndChar

StartChar: O
Encoding: 79 79 50
Width: 650
GlyphClass: 1
Flags: W
LayerCount: 2
Fore
SplineSet
50 264 m 2,0,-1
 50 561 l 2,1,2
 50 677 50 677 130 761 c 128,-1,3
 210 845 210 845 325 845 c 256,4,5
 440 845 440 845 520 761 c 128,-1,6
 600 677 600 677 600 561 c 2,7,-1
 600 264 l 2,8,9
 600 148 600 148 520 62.5 c 128,-1,10
 440 -23 440 -23 325 -23 c 256,11,12
 210 -23 210 -23 130 62.5 c 128,-1,13
 50 148 50 148 50 264 c 2,0,-1
166 561 m 2,14,-1
 166 264 l 2,15,16
 166 196 166 196 212.5 145.5 c 128,-1,17
 259 95 259 95 325 95 c 256,18,19
 391 95 391 95 437.5 146 c 128,-1,20
 484 197 484 197 484 264 c 2,21,-1
 484 561 l 2,22,23
 484 628 484 628 437.5 677 c 128,-1,24
 391 726 391 726 325 726 c 256,25,26
 259 726 259 726 212.5 677 c 128,-1,27
 166 628 166 628 166 561 c 2,14,-1
EndSplineSet
Validated: 1
EndChar

StartChar: P
Encoding: 80 80 51
Width: 650
GlyphClass: 1
Flags: W
LayerCount: 2
Fore
SplineSet
238 721 m 1,0,-1
 238 467 l 1,1,-1
 367 467 l 2,2,3
 418 466 418 466 454.5 504 c 128,-1,4
 491 542 491 542 491 594 c 256,5,6
 491 646 491 646 454.5 683.5 c 128,-1,7
 418 721 418 721 367 721 c 2,8,-1
 238 721 l 1,0,-1
51 101 m 1,9,-1
 130 101 l 1,10,-1
 130 721 l 1,11,-1
 51 721 l 1,12,-1
 51 831 l 1,13,-1
 367 831 l 2,14,15
 464 831 464 831 531.5 761 c 128,-1,16
 599 691 599 691 599 594 c 0,17,18
 599 496 599 496 531 426.5 c 128,-1,19
 463 357 463 357 366 357 c 2,20,-1
 238 357 l 1,21,-1
 238 101 l 1,22,-1
 314 101 l 1,23,-1
 314 -9 l 1,24,-1
 51 -9 l 1,25,-1
 51 101 l 1,9,-1
EndSplineSet
Validated: 33
EndChar

StartChar: Q
Encoding: 81 81 52
Width: 650
GlyphClass: 1
Flags: W
LayerCount: 2
Fore
SplineSet
208 347 m 1,0,1
 269 340 269 340 330 291 c 0,2,3
 368 261 368 261 427 195 c 1,4,-1
 427 644 l 2,5,6
 427 680 427 680 392.5 709 c 128,-1,7
 358 738 358 738 318 738 c 256,8,9
 278 738 278 738 243 709 c 128,-1,10
 208 680 208 680 208 644 c 2,11,-1
 208 347 l 1,0,1
378 99 m 1,12,-1
 249 225 l 2,13,14
 233 241 233 241 208 245 c 1,15,-1
 208 173 l 2,16,17
 208 138 208 138 243 109 c 128,-1,18
 278 80 278 80 318 80 c 0,19,20
 349 80 349 80 378 99 c 1,12,-1
599 -7 m 1,21,22
 540 -7 540 -7 514 -2 c 0,23,24
 484 5 484 5 456 26 c 1,25,26
 393 -25 393 -25 318 -25 c 0,27,28
 237 -25 237 -25 173 33 c 0,29,30
 106 93 106 93 106 173 c 2,31,-1
 106 247 l 1,32,-1
 51 247 l 1,33,-1
 51 343 l 2,34,35
 54 344 54 344 106 347 c 1,36,-1
 106 644 l 2,37,38
 106 725 106 725 173 785 c 0,39,40
 237 843 237 843 318 843 c 256,41,42
 399 843 399 843 464.5 784 c 128,-1,43
 530 725 530 725 530 644 c 2,44,-1
 530 173 l 2,45,46
 530 139 530 139 516 106 c 1,47,48
 530 97 530 97 542 94 c 2,49,-1
 599 94 l 1,50,-1
 599 -7 l 1,21,22
EndSplineSet
Validated: 1
EndChar

StartChar: R
Encoding: 82 82 53
Width: 650
GlyphClass: 1
Flags: W
LayerCount: 2
Fore
SplineSet
238 721 m 1,0,-1
 238 467 l 1,1,-1
 367 467 l 2,2,3
 418 466 418 466 454.5 504 c 128,-1,4
 491 542 491 542 491 594 c 256,5,6
 491 646 491 646 454.5 683.5 c 128,-1,7
 418 721 418 721 367 721 c 2,8,-1
 238 721 l 1,0,-1
51 101 m 1,9,-1
 130 101 l 1,10,-1
 130 721 l 1,11,-1
 51 721 l 1,12,-1
 51 831 l 1,13,-1
 367 831 l 2,14,15
 464 831 464 831 531.5 761 c 128,-1,16
 599 691 599 691 599 594 c 0,17,18
 599 509 599 509 545 442.5 c 128,-1,19
 491 376 491 376 408 361 c 1,20,-1
 517 103 l 1,21,-1
 596 103 l 1,22,-1
 596 -6 l 1,23,-1
 446 -6 l 1,24,-1
 292 357 l 1,25,-1
 238 357 l 1,26,-1
 238 101 l 1,27,-1
 314 101 l 1,28,-1
 314 -9 l 1,29,-1
 51 -9 l 1,30,-1
 51 101 l 1,9,-1
EndSplineSet
Validated: 33
EndChar

StartChar: S
Encoding: 83 83 54
Width: 650
GlyphClass: 1
Flags: W
LayerCount: 2
Fore
SplineSet
453 830 m 1,0,-1
 561 830 l 1,1,-1
 560 596 l 1,2,-1
 453 597 l 1,3,4
 453 655 453 655 405 695 c 128,-1,5
 357 735 357 735 295 735 c 0,6,7
 242 735 242 735 201 700 c 0,8,9
 157 663 157 663 157 611 c 0,10,11
 157 561 157 561 212 526 c 0,12,13
 260 495 260 495 315 495 c 0,14,15
 427 495 427 495 512 423 c 0,16,17
 601 348 601 348 601 239 c 256,18,19
 601 130 601 130 518 53.5 c 128,-1,20
 435 -23 435 -23 325 -23 c 0,21,22
 232 -23 232 -23 157 32 c 1,23,-1
 157 -5 l 1,24,-1
 49 -5 l 1,25,-1
 50 254 l 1,26,-1
 156 254 l 1,27,28
 157 181 157 181 204.5 133.5 c 128,-1,29
 252 86 252 86 325 86 c 0,30,31
 391 86 391 86 442.5 130.5 c 128,-1,32
 494 175 494 175 494 239 c 0,33,34
 494 302 494 302 435 345 c 0,35,36
 381 385 381 385 315 385 c 0,37,38
 215 385 215 385 135 448 c 0,39,40
 50 516 50 516 50 611 c 0,41,42
 50 708 50 708 123.5 776.5 c 128,-1,43
 197 845 197 845 295 845 c 0,44,45
 390 845 390 845 453 803 c 1,46,-1
 453 830 l 1,0,-1
EndSplineSet
Validated: 1
EndChar

StartChar: T
Encoding: 84 84 55
Width: 650
GlyphClass: 1
Flags: W
LayerCount: 2
Fore
SplineSet
174 101 m 1,0,-1
 274 101 l 1,1,-1
 274 721 l 1,2,-1
 159 721 l 1,3,-1
 159 614 l 1,4,-1
 51 614 l 1,5,-1
 51 831 l 1,6,-1
 599 831 l 1,7,-1
 599 614 l 1,8,-1
 491 614 l 1,9,-1
 491 721 l 1,10,-1
 381 721 l 1,11,-1
 381 101 l 1,12,-1
 484 101 l 1,13,-1
 484 -9 l 1,14,-1
 174 -9 l 1,15,-1
 174 101 l 1,0,-1
EndSplineSet
Validated: 1
EndChar

StartChar: U
Encoding: 85 85 56
Width: 650
GlyphClass: 1
Flags: W
LayerCount: 2
Fore
SplineSet
326 -23 m 0,0,1
 236 -23 236 -23 173.5 44 c 128,-1,2
 111 111 111 111 111 201 c 2,3,-1
 111 719 l 1,4,-1
 51 719 l 1,5,-1
 51 829 l 1,6,-1
 280 829 l 1,7,-1
 280 719 l 1,8,-1
 218 719 l 1,9,-1
 218 201 l 2,10,11
 218 156 218 156 249.5 121 c 128,-1,12
 281 86 281 86 326 86 c 0,13,14
 370 86 370 86 401 122 c 0,15,16
 431 155 431 155 431 201 c 2,17,-1
 431 719 l 1,18,-1
 370 719 l 1,19,-1
 370 829 l 1,20,-1
 599 829 l 1,21,-1
 599 719 l 1,22,-1
 539 719 l 1,23,-1
 538 200 l 2,24,25
 538 110 538 110 478 44 c 0,26,27
 415 -23 415 -23 326 -23 c 0,0,1
EndSplineSet
Validated: 1
EndChar

StartChar: V
Encoding: 86 86 57
Width: 650
GlyphClass: 1
Flags: W
LayerCount: 2
Fore
SplineSet
259 -4 m 1,0,-1
 124 719 l 1,1,-1
 51 719 l 1,2,-1
 51 829 l 1,3,-1
 280 829 l 1,4,-1
 280 719 l 1,5,-1
 233 719 l 1,6,-1
 325 228 l 1,7,-1
 416 719 l 1,8,-1
 370 719 l 1,9,-1
 370 829 l 1,10,-1
 599 829 l 1,11,-1
 599 719 l 1,12,-1
 526 719 l 1,13,-1
 392 -4 l 1,14,-1
 259 -4 l 1,0,-1
EndSplineSet
Validated: 1
EndChar

StartChar: W
Encoding: 87 87 58
Width: 650
GlyphClass: 1
Flags: W
LayerCount: 2
Fore
SplineSet
73 748 m 1,0,-1
 51 748 l 1,1,-1
 51 831 l 1,2,-1
 200 831 l 1,3,-1
 200 748 l 1,4,-1
 156 748 l 1,5,-1
 218 182 l 1,6,-1
 279 748 l 1,7,-1
 243 748 l 1,8,-1
 243 831 l 1,9,-1
 411 831 l 1,10,-1
 411 748 l 1,11,-1
 371 748 l 1,12,-1
 432 182 l 1,13,-1
 494 748 l 1,14,-1
 451 748 l 1,15,-1
 451 831 l 1,16,-1
 599 831 l 1,17,-1
 599 748 l 1,18,-1
 577 748 l 1,19,-1
 493 -13 l 1,20,-1
 371 -13 l 1,21,-1
 325 384 l 1,22,-1
 279 -13 l 1,23,-1
 157 -13 l 1,24,-1
 73 748 l 1,0,-1
EndSplineSet
Validated: 1
EndChar

StartChar: X
Encoding: 88 88 59
Width: 650
GlyphClass: 1
Flags: W
LayerCount: 2
Fore
SplineSet
50 101 m 1,0,-1
 120 101 l 1,1,-1
 265 412 l 1,2,-1
 121 721 l 1,3,-1
 50 721 l 1,4,-1
 50 831 l 1,5,-1
 288 831 l 1,6,-1
 288 721 l 1,7,-1
 240 721 l 1,8,-1
 325 540 l 1,9,-1
 409 721 l 1,10,-1
 362 721 l 1,11,-1
 362 831 l 1,12,-1
 600 831 l 1,13,-1
 600 721 l 1,14,-1
 529 721 l 1,15,-1
 384 412 l 1,16,-1
 530 101 l 1,17,-1
 600 101 l 1,18,-1
 600 -9 l 1,19,-1
 362 -9 l 1,20,-1
 362 101 l 1,21,-1
 411 101 l 1,22,-1
 325 285 l 1,23,-1
 239 101 l 1,24,-1
 288 101 l 1,25,-1
 288 -9 l 1,26,-1
 50 -9 l 1,27,-1
 50 101 l 1,0,-1
EndSplineSet
Validated: 1
EndChar

StartChar: Y
Encoding: 89 89 60
Width: 650
GlyphClass: 1
Flags: W
LayerCount: 2
Fore
SplineSet
170 101 m 1,0,-1
 270 101 l 1,1,-1
 270 331 l 1,2,-1
 115 721 l 1,3,-1
 51 721 l 1,4,-1
 51 831 l 1,5,-1
 280 831 l 1,6,-1
 280 721 l 1,7,-1
 232 721 l 1,8,-1
 325 485 l 1,9,-1
 418 721 l 1,10,-1
 370 721 l 1,11,-1
 370 831 l 1,12,-1
 599 831 l 1,13,-1
 599 721 l 1,14,-1
 534 721 l 1,15,-1
 378 322 l 1,16,-1
 378 101 l 1,17,-1
 481 101 l 1,18,-1
 481 -9 l 1,19,-1
 170 -9 l 1,20,-1
 170 101 l 1,0,-1
EndSplineSet
Validated: 1
EndChar

StartChar: Z
Encoding: 90 90 61
Width: 650
GlyphClass: 1
Flags: W
LayerCount: 2
Fore
SplineSet
595 -6 m 1,0,-1
 51 -6 l 1,1,-1
 51 80 l 1,2,-1
 458 721 l 1,3,-1
 161 721 l 1,4,-1
 161 614 l 1,5,-1
 54 614 l 1,6,-1
 54 831 l 1,7,-1
 594 831 l 1,8,-1
 594 733 l 1,9,-1
 194 103 l 1,10,-1
 491 103 l 1,11,-1
 491 210 l 1,12,-1
 594 210 l 1,13,-1
 595 -6 l 1,0,-1
EndSplineSet
Validated: 1
EndChar

StartChar: backslash
Encoding: 92 92 62
Width: 2119
GlyphClass: 1
Flags: W
LayerCount: 2
Fore
SplineSet
2036 884 m 1,0,1
 2024 882 2024 882 2012.5 869 c 128,-1,2
 2001 856 2001 856 2001 844 c 2,3,-1
 2001 684 l 1,4,-1
 1965 684 l 1,5,-1
 1965 884 l 2,6,7
 1965 896 1965 896 1957 903 c 1,8,-1
 1979 930 l 1,9,10
 1999 923 1999 923 2001 895 c 1,11,12
 2028 930 2028 930 2036 930 c 1,13,-1
 2036 884 l 1,0,1
1948 858 m 0,14,15
 1948 794 1948 794 1896 780 c 1,16,17
 1896 760 1896 760 1904 743 c 0,18,19
 1914 721 1914 721 1931 721 c 0,20,21
 1937 721 1937 721 1947 726 c 1,22,-1
 1947 685 l 1,23,24
 1939 682 1939 682 1927 682 c 0,25,26
 1857 682 1857 682 1857 805 c 2,27,-1
 1857 833 l 2,28,29
 1857 930 1857 930 1903 930 c 0,30,31
 1948 930 1948 930 1948 858 c 0,14,15
1839 684 m 1,32,-1
 1802 684 l 1,33,-1
 1802 884 l 2,34,35
 1802 894 1802 894 1793 894 c 0,36,37
 1788 894 1788 894 1784 888 c 1,38,-1
 1784 684 l 1,39,-1
 1747 684 l 1,40,-1
 1747 884 l 2,41,42
 1747 898 1747 898 1740 903 c 1,43,-1
 1763 930 l 1,44,45
 1773 928 1773 928 1781 913 c 1,46,47
 1794 930 1794 930 1809 930 c 0,48,49
 1839 930 1839 930 1839 887 c 2,50,-1
 1839 684 l 1,32,-1
1727 684 m 1,51,-1
 1691 684 l 1,52,-1
 1691 882 l 2,53,54
 1691 894 1691 894 1682 894 c 0,55,56
 1676 891 1676 891 1671 886 c 1,57,-1
 1671 684 l 1,58,-1
 1635 684 l 1,59,-1
 1635 1001 l 1,60,-1
 1672 1001 l 1,61,-1
 1672 916 l 1,62,63
 1684 931 1684 931 1698 931 c 0,64,65
 1727 931 1727 931 1727 884 c 2,66,-1
 1727 684 l 1,51,-1
1619 805 m 0,67,68
 1619 681 1619 681 1575 681 c 0,69,70
 1528 681 1528 681 1528 805 c 0,71,72
 1528 930 1528 930 1573 930 c 0,73,74
 1619 930 1619 930 1619 805 c 0,67,68
1519 684 m 1,75,-1
 1451 684 l 1,76,-1
 1451 1001 l 1,77,-1
 1494 1001 l 1,78,-1
 1494 726 l 1,79,-1
 1519 726 l 1,80,-1
 1519 684 l 1,75,-1
1885 285 m 1,81,-1
 1849 285 l 1,82,-1
 1849 482 l 2,83,84
 1849 495 1849 495 1840 495 c 0,85,86
 1834 493 1834 493 1830 488 c 1,87,-1
 1830 285 l 1,88,-1
 1794 285 l 1,89,-1
 1794 483 l 2,90,91
 1794 495 1794 495 1785 495 c 0,92,93
 1779 493 1779 493 1776 488 c 2,94,-1
 1776 285 l 1,95,-1
 1739 285 l 1,96,-1
 1739 491 l 2,97,98
 1739 501 1739 501 1733 506 c 1,99,-1
 1754 532 l 1,100,101
 1770 527 1770 527 1774 513 c 1,102,103
 1786 532 1786 532 1802 532 c 0,104,105
 1819 532 1819 532 1828 514 c 1,106,107
 1842 532 1842 532 1857 532 c 0,108,109
 1885 532 1885 532 1885 487 c 2,110,-1
 1885 285 l 1,81,-1
1391 713 m 1,111,-1
 1370 681 l 1,112,113
 1355 685 1355 685 1350 703 c 1,114,115
 1338 682 1338 682 1326 682 c 0,116,117
 1290 682 1290 682 1290 774 c 2,118,-1
 1290 818 l 2,119,120
 1290 930 1290 930 1346 930 c 1,121,-1
 1346 1001 l 1,122,-1
 1382 1001 l 1,123,-1
 1382 743 l 2,124,125
 1382 721 1382 721 1391 713 c 1,111,-1
1280 708 m 1,126,-1
 1252 682 l 1,127,128
 1232 688 1232 688 1232 714 c 2,129,-1
 1232 1001 l 1,130,-1
 1268 1001 l 1,131,-1
 1268 733 l 2,132,133
 1268 713 1268 713 1280 708 c 1,126,-1
1721 407 m 256,134,135
 1721 283 1721 283 1676 283 c 0,136,137
 1629 283 1629 283 1629 407 c 256,138,139
 1629 531 1629 531 1674 531 c 0,140,141
 1721 531 1721 531 1721 407 c 256,134,135
2069 -113 m 1,142,-1
 2033 -113 l 1,143,-1
 2033 84 l 2,144,145
 2033 97 2033 97 2024 97 c 0,146,147
 2018 94 2018 94 2014 89 c 1,148,-1
 2014 -113 l 1,149,-1
 1978 -113 l 1,150,-1
 1978 85 l 2,151,152
 1978 97 1978 97 1969 97 c 0,153,154
 1963 94 1963 94 1959 89 c 1,155,-1
 1959 -113 l 1,156,-1
 1923 -113 l 1,157,-1
 1923 93 l 2,158,159
 1923 103 1923 103 1917 108 c 1,160,-1
 1938 134 l 1,161,162
 1953 129 1953 129 1957 115 c 1,163,164
 1970 134 1970 134 1986 134 c 256,165,166
 2002 134 2002 134 2011 116 c 1,167,168
 2025 134 2025 134 2040 134 c 0,169,170
 2069 134 2069 134 2069 89 c 2,171,-1
 2069 -113 l 1,142,-1
1619 289 m 1,172,173
 1610 282 1610 282 1601 282 c 0,174,175
 1550 282 1550 282 1550 393 c 2,176,-1
 1550 428 l 2,177,178
 1550 532 1550 532 1602 532 c 0,179,180
 1610 532 1610 532 1619 529 c 1,181,-1
 1619 492 l 1,182,183
 1612 495 1612 495 1610 495 c 0,184,185
 1587 495 1587 495 1587 428 c 2,186,-1
 1587 391 l 2,187,188
 1587 320 1587 320 1607 320 c 0,189,190
 1615 320 1615 320 1619 325 c 1,191,-1
 1619 289 l 1,172,173
1213 805 m 0,192,193
 1213 681 1213 681 1169 681 c 0,194,195
 1122 681 1122 681 1122 805 c 0,196,197
 1122 930 1122 930 1167 930 c 0,198,199
 1213 930 1213 930 1213 805 c 0,192,193
1489 310 m 1,200,-1
 1461 283 l 1,201,202
 1441 289 1441 289 1441 316 c 2,203,-1
 1441 602 l 1,204,-1
 1477 602 l 1,205,-1
 1477 335 l 2,206,207
 1477 315 1477 315 1489 310 c 1,200,-1
1113 884 m 1,208,209
 1100 882 1100 882 1089 869 c 128,-1,210
 1078 856 1078 856 1078 844 c 2,211,-1
 1078 684 l 1,212,-1
 1041 684 l 1,213,-1
 1041 884 l 2,214,215
 1041 896 1041 896 1033 903 c 1,216,-1
 1055 930 l 1,217,218
 1075 923 1075 923 1078 895 c 1,219,220
 1104 930 1104 930 1113 930 c 1,221,-1
 1113 884 l 1,208,209
1904 9 m 256,222,223
 1904 -115 1904 -115 1860 -115 c 0,224,225
 1812 -115 1812 -115 1812 9 c 256,226,227
 1812 133 1812 133 1858 133 c 256,228,229
 1904 133 1904 133 1904 9 c 256,222,223
1541 306 m 256,230,231
 1541 283 1541 283 1518 283 c 0,232,233
 1494 283 1494 283 1494 306 c 256,234,235
 1494 329 1494 329 1518 329 c 0,236,237
 1541 329 1541 329 1541 306 c 256,230,231
1423 407 m 256,238,239
 1423 283 1423 283 1378 283 c 0,240,241
 1331 283 1331 283 1331 407 c 256,242,243
 1331 531 1331 531 1376 531 c 0,244,245
 1423 531 1423 531 1423 407 c 256,238,239
1029 713 m 1,246,-1
 1008 682 l 1,247,248
 996 684 996 684 988 703 c 1,249,250
 978 682 978 682 963 682 c 0,251,252
 927 682 927 682 927 790 c 2,253,-1
 927 820 l 2,254,255
 927 930 927 930 1002 930 c 2,256,-1
 1019 930 l 1,257,-1
 1019 748 l 2,258,259
 1019 720 1019 720 1029 713 c 1,246,-1
1803 -109 m 1,260,261
 1793 -116 1793 -116 1784 -116 c 0,262,263
 1734 -116 1734 -116 1734 -6 c 2,264,-1
 1734 30 l 2,265,266
 1734 134 1734 134 1785 134 c 0,267,268
 1793 134 1793 134 1802 130 c 1,269,-1
 1802 93 l 1,270,271
 1795 96 1795 96 1793 96 c 0,272,273
 1771 96 1771 96 1771 30 c 2,274,-1
 1771 -7 l 2,275,276
 1771 -78 1771 -78 1790 -78 c 0,277,278
 1799 -78 1799 -78 1803 -73 c 1,279,-1
 1803 -109 l 1,260,261
906 684 m 1,280,-1
 864 684 l 1,281,-1
 864 817 l 1,282,-1
 842 817 l 1,283,-1
 842 684 l 1,284,-1
 799 684 l 1,285,-1
 799 1001 l 1,286,-1
 842 1001 l 1,287,-1
 842 858 l 1,288,-1
 864 858 l 1,289,-1
 864 1001 l 1,290,-1
 906 1001 l 1,291,-1
 906 684 l 1,280,-1
1325 315 m 1,292,-1
 1304 283 l 1,293,294
 1293 286 1293 286 1284 304 c 1,295,296
 1274 283 1274 283 1259 283 c 0,297,298
 1224 283 1224 283 1224 392 c 2,299,-1
 1224 421 l 2,300,301
 1224 531 1224 531 1298 531 c 2,302,-1
 1316 531 l 1,303,-1
 1316 350 l 2,304,305
 1316 322 1316 322 1325 315 c 1,292,-1
1670 -60 m 0,306,307
 1670 -115 1670 -115 1628 -115 c 0,308,309
 1614 -115 1614 -115 1603 -109 c 1,310,-1
 1603 -72 l 1,311,312
 1609 -80 1609 -80 1618 -80 c 0,313,314
 1636 -80 1636 -80 1636 -61 c 0,315,316
 1636 -37 1636 -37 1619.5 8.5 c 128,-1,317
 1603 54 1603 54 1603 78 c 0,318,319
 1603 134 1603 134 1641 134 c 0,320,321
 1652 134 1652 134 1666 126 c 1,322,-1
 1666 92 l 1,323,324
 1659 98 1659 98 1652 98 c 0,325,326
 1638 98 1638 98 1638 79 c 0,327,328
 1638 56 1638 56 1654 10.5 c 128,-1,329
 1670 -35 1670 -35 1670 -60 c 0,306,307
1725 -92 m 256,330,331
 1725 -115 1725 -115 1701 -115 c 0,332,333
 1678 -115 1678 -115 1678 -92 c 256,334,335
 1678 -69 1678 -69 1701 -69 c 0,336,337
 1725 -69 1725 -69 1725 -92 c 256,330,331
1593 -108 m 1,338,339
 1583 -115 1583 -115 1574 -115 c 0,340,341
 1539 -115 1539 -115 1539 -73 c 2,342,-1
 1539 100 l 1,343,-1
 1520 100 l 1,344,-1
 1520 111 l 1,345,346
 1533 124 1533 124 1565 171 c 1,347,-1
 1575 171 l 1,348,-1
 1575 131 l 1,349,-1
 1593 131 l 1,350,-1
 1593 100 l 1,351,-1
 1575 100 l 1,352,-1
 1575 -67 l 2,353,354
 1575 -80 1575 -80 1585 -80 c 0,355,356
 1587 -80 1587 -80 1593 -77 c 1,357,-1
 1593 -108 l 1,338,339
739 774 m 0,358,359
 739 686 739 686 658 681 c 1,360,-1
 658 725 l 1,361,362
 694 729 694 729 694 775 c 0,363,364
 694 824 694 824 658 825 c 1,365,-1
 658 860 l 1,366,-1
 661 860 l 2,367,368
 693 859 693 859 693 919 c 0,369,370
 693 960 693 960 669 960 c 0,371,372
 664 960 664 960 658 958 c 1,373,-1
 658 998 l 1,374,375
 667 1003 667 1003 678 1003 c 0,376,377
 708 1003 708 1003 724 974 c 0,378,379
 737 951 737 951 737 919 c 0,380,381
 737 865 737 865 707 846 c 1,382,383
 739 823 739 823 739 774 c 0,358,359
1193 459 m 0,384,385
 1193 424 1193 424 1179 390 c 0,386,387
 1161 348 1161 348 1131 348 c 0,388,389
 1110 348 1110 348 1104 372 c 1,390,391
 1091 348 1091 348 1070 348 c 0,392,393
 1030 348 1030 348 1030 416 c 0,394,395
 1030 448 1030 448 1044 479 c 0,396,397
 1061 517 1061 517 1088 517 c 0,398,399
 1107 517 1107 517 1116 497 c 1,400,-1
 1118 510 l 1,401,-1
 1150 510 l 1,402,403
 1144 482 1144 482 1137 454 c 0,404,405
 1129 420 1129 420 1129 398 c 0,406,407
 1129 394 1129 394 1132 388 c 2,408,-1
 1136 385 l 1,409,410
 1151 385 1151 385 1159 418 c 0,411,412
 1165 441 1165 441 1165 461 c 0,413,414
 1165 498 1165 498 1150 521 c 0,415,416
 1131 549 1131 549 1097 549 c 0,417,418
 1053 549 1053 549 1028 507 c 0,419,420
 1007 472 1007 472 1007 425 c 0,421,422
 1007 380 1007 380 1026 348 c 0,423,424
 1049 309 1049 309 1091 309 c 0,425,426
 1128 309 1128 309 1164 350 c 1,427,-1
 1177 320 l 1,428,429
 1137 273 1137 273 1089 273 c 0,430,431
 1035 273 1035 273 1005 325 c 0,432,433
 980 367 980 367 980 426 c 256,434,435
 980 485 980 485 1007 531 c 0,436,437
 1039 585 1039 585 1094 585 c 0,438,439
 1142 585 1142 585 1169 544 c 0,440,441
 1193 509 1193 509 1193 459 c 0,384,385
1506 -113 m 1,442,-1
 1469 -113 l 1,443,-1
 1469 87 l 2,444,445
 1469 97 1469 97 1460 97 c 0,446,447
 1455 97 1455 97 1451 91 c 1,448,-1
 1451 -113 l 1,449,-1
 1415 -113 l 1,450,-1
 1415 88 l 2,451,452
 1415 102 1415 102 1407 107 c 1,453,-1
 1430 134 l 1,454,455
 1441 131 1441 131 1449 116 c 1,456,457
 1462 134 1462 134 1477 134 c 0,458,459
 1506 134 1506 134 1506 90 c 2,460,-1
 1506 -113 l 1,442,-1
644 839 m 0,461,462
 644 682 644 682 590 682 c 0,463,464
 530 682 530 682 530 841 c 0,465,466
 530 1003 530 1003 587 1003 c 256,467,468
 644 1003 644 1003 644 839 c 0,461,462
1399 9 m 256,469,470
 1399 -115 1399 -115 1354 -115 c 0,471,472
 1307 -115 1307 -115 1307 9 c 256,473,474
 1307 133 1307 133 1352 133 c 0,475,476
 1399 133 1399 133 1399 9 c 256,469,470
955 486 m 1,477,478
 943 484 943 484 931.5 471 c 128,-1,479
 920 458 920 458 920 445 c 2,480,-1
 920 285 l 1,481,-1
 884 285 l 1,482,-1
 884 486 l 2,483,484
 884 498 884 498 875 505 c 1,485,-1
 897 531 l 1,486,487
 917 524 917 524 920 497 c 1,488,489
 946 531 946 531 955 531 c 1,490,-1
 955 486 l 1,477,478
515 839 m 0,491,492
 515 682 515 682 461 682 c 0,493,494
 402 682 402 682 402 841 c 0,495,496
 402 1003 402 1003 458 1003 c 0,497,498
 515 1003 515 1003 515 839 c 0,491,492
1297 171 m 1,499,500
 1283 170 1283 170 1280 156 c 0,501,502
 1280 153 1280 153 1280 131 c 1,503,-1
 1297 131 l 1,504,-1
 1297 100 l 1,505,-1
 1280 100 l 1,506,-1
 1280 -94 l 2,507,508
 1280 -159 1280 -159 1228 -159 c 1,509,-1
 1228 -119 l 1,510,511
 1244 -120 1244 -120 1244 -88 c 2,512,-1
 1244 100 l 1,513,-1
 1228 100 l 1,514,-1
 1228 131 l 1,515,-1
 1243 131 l 1,516,517
 1243 208 1243 208 1292 206 c 2,518,-1
 1297 206 l 1,519,-1
 1297 171 l 1,499,500
867 460 m 0,520,521
 867 395 867 395 815 382 c 1,522,523
 815 362 815 362 822 345 c 0,524,525
 832 323 832 323 850 323 c 0,526,527
 855 323 855 323 866 327 c 1,528,-1
 866 286 l 1,529,530
 858 283 858 283 846 283 c 0,531,532
 776 283 776 283 776 406 c 2,533,-1
 776 435 l 2,534,535
 776 531 776 531 822 531 c 0,536,537
 867 531 867 531 867 460 c 0,520,521
1218 -60 m 0,538,539
 1218 -115 1218 -115 1176 -115 c 0,540,541
 1162 -115 1162 -115 1151 -109 c 1,542,-1
 1151 -72 l 1,543,544
 1157 -80 1157 -80 1166 -80 c 0,545,546
 1184 -80 1184 -80 1184 -61 c 0,547,548
 1184 -37 1184 -37 1168 8.5 c 128,-1,549
 1152 54 1152 54 1152 78 c 0,550,551
 1152 134 1152 134 1190 134 c 0,552,553
 1200 134 1200 134 1214 126 c 1,554,-1
 1214 92 l 1,555,556
 1207 98 1207 98 1201 98 c 0,557,558
 1186 98 1186 98 1186 79 c 0,559,560
 1186 56 1186 56 1202 10.5 c 128,-1,561
 1218 -35 1218 -35 1218 -60 c 0,538,539
386 684 m 1,562,-1
 298 684 l 1,563,564
 339 829 339 829 339 919 c 0,565,566
 339 955 339 955 318 955 c 0,567,568
 307 955 307 955 298 945 c 1,569,-1
 298 986 l 1,570,571
 317 1003 317 1003 334 1003 c 0,572,573
 383 1003 383 1003 383 926 c 0,574,575
 383 864 383 864 352 725 c 1,576,-1
 386 725 l 1,577,-1
 386 684 l 1,562,-1
1145 -84 m 1,578,-1
 1124 -116 l 1,579,580
 1109 -112 1109 -112 1104 -94 c 1,581,582
 1092 -115 1092 -115 1080 -115 c 0,583,584
 1044 -115 1044 -115 1044 -23 c 2,585,-1
 1044 21 l 2,586,587
 1044 134 1044 134 1100 134 c 1,588,-1
 1100 204 l 1,589,-1
 1136 204 l 1,590,-1
 1136 -54 l 2,591,592
 1136 -76 1136 -76 1145 -84 c 1,578,-1
757 285 m 1,593,-1
 721 285 l 1,594,-1
 721 485 l 2,595,596
 721 496 721 496 712 496 c 0,597,598
 706 496 706 496 702 490 c 1,599,-1
 702 285 l 1,600,-1
 666 285 l 1,601,-1
 666 486 l 2,602,603
 666 500 666 500 659 505 c 1,604,-1
 682 532 l 1,605,606
 692 529 692 529 700 515 c 1,607,608
 713 532 713 532 728 532 c 0,609,610
 757 532 757 532 757 489 c 2,611,-1
 757 285 l 1,593,-1
1034 -88 m 1,612,-1
 1006 -115 l 1,613,614
 986 -109 986 -109 986 -83 c 2,615,-1
 986 204 l 1,616,-1
 1022 204 l 1,617,-1
 1022 -63 l 2,618,619
 1022 -83 1022 -83 1034 -88 c 1,612,-1
646 285 m 1,620,-1
 610 285 l 1,621,-1
 610 484 l 2,622,623
 610 496 610 496 601 496 c 0,624,625
 595 493 595 493 590 488 c 1,626,-1
 590 285 l 1,627,-1
 554 285 l 1,628,-1
 554 602 l 1,629,-1
 591 602 l 1,630,-1
 591 517 l 1,631,632
 602 532 602 532 616 532 c 0,633,634
 646 532 646 532 646 486 c 2,635,-1
 646 285 l 1,620,-1
277 827 m 256,636,637
 277 775 277 775 255 732 c 0,638,639
 227 680 227 680 179 680 c 0,640,641
 132 680 132 680 104 732 c 0,642,643
 82 775 82 775 82 827 c 256,644,645
 82 879 82 879 104 922 c 0,646,647
 132 974 132 974 179 974 c 0,648,649
 227 974 227 974 255 922 c 0,650,651
 277 879 277 879 277 827 c 256,636,637
968 9 m 256,652,653
 968 -115 968 -115 923 -115 c 0,654,655
 876 -115 876 -115 876 9 c 256,656,657
 876 133 876 133 921 133 c 0,658,659
 968 133 968 133 968 9 c 256,652,653
538 407 m 256,660,661
 538 283 538 283 494 283 c 0,662,663
 446 283 446 283 446 407 c 256,664,665
 446 531 446 531 492 531 c 256,666,667
 538 531 538 531 538 407 c 256,660,661
437 285 m 1,668,-1
 370 285 l 1,669,-1
 370 602 l 1,670,-1
 412 602 l 1,671,-1
 412 327 l 1,672,-1
 437 327 l 1,673,-1
 437 285 l 1,668,-1
867 88 m 1,674,675
 854 85 854 85 843 72 c 128,-1,676
 832 59 832 59 832 47 c 2,677,-1
 832 -113 l 1,678,-1
 795 -113 l 1,679,-1
 795 87 l 2,680,681
 795 99 795 99 787 106 c 1,682,-1
 809 133 l 1,683,684
 829 126 829 126 832 98 c 1,685,686
 858 133 858 133 867 133 c 1,687,-1
 867 88 l 1,674,675
783 -84 m 1,688,-1
 762 -115 l 1,689,690
 750 -112 750 -112 742 -94 c 1,691,692
 732 -115 732 -115 717 -115 c 0,693,694
 681 -115 681 -115 681 -6 c 2,695,-1
 681 23 l 2,696,697
 681 133 681 133 756 133 c 2,698,-1
 773 133 l 1,699,-1
 773 -49 l 2,700,701
 773 -76 773 -76 783 -84 c 1,688,-1
347 285 m 1,702,-1
 305 285 l 1,703,-1
 305 419 l 1,704,-1
 282 419 l 1,705,-1
 282 285 l 1,706,-1
 240 285 l 1,707,-1
 240 602 l 1,708,-1
 282 602 l 1,709,-1
 282 460 l 1,710,-1
 305 460 l 1,711,-1
 305 602 l 1,712,-1
 347 602 l 1,713,-1
 347 285 l 1,702,-1
661 -113 m 1,714,-1
 625 -113 l 1,715,-1
 625 85 l 2,716,717
 625 97 625 97 616 97 c 0,718,719
 610 95 610 95 605 90 c 1,720,-1
 605 -113 l 1,721,-1
 569 -113 l 1,722,-1
 569 204 l 1,723,-1
 606 204 l 1,724,-1
 606 119 l 1,725,726
 618 134 618 134 632 134 c 0,727,728
 661 134 661 134 661 88 c 2,729,-1
 661 -113 l 1,714,-1
556 -92 m 256,730,731
 556 -115 556 -115 532 -115 c 0,732,733
 509 -115 509 -115 509 -92 c 256,734,735
 509 -69 509 -69 532 -69 c 0,736,737
 556 -69 556 -69 556 -92 c 256,730,731
501 131 m 1,738,-1
 473 -115 l 1,739,-1
 443 -115 l 1,740,-1
 429 41 l 1,741,-1
 415 -115 l 1,742,-1
 386 -115 l 1,743,-1
 357 131 l 1,744,-1
 393 131 l 1,745,-1
 401 -36 l 1,746,-1
 412 131 l 1,747,-1
 445 131 l 1,748,-1
 457 -34 l 1,749,-1
 465 131 l 1,750,-1
 501 131 l 1,738,-1
348 131 m 1,751,-1
 320 -115 l 1,752,-1
 290 -115 l 1,753,-1
 276 41 l 1,754,-1
 261 -115 l 1,755,-1
 232 -115 l 1,756,-1
 203 131 l 1,757,-1
 240 131 l 1,758,-1
 247 -36 l 1,759,-1
 259 131 l 1,760,-1
 292 131 l 1,761,-1
 304 -34 l 1,762,-1
 312 131 l 1,763,-1
 348 131 l 1,751,-1
195 131 m 1,764,-1
 166 -115 l 1,765,-1
 137 -115 l 1,766,-1
 123 41 l 1,767,-1
 108 -115 l 1,768,-1
 79 -115 l 1,769,-1
 50 131 l 1,770,-1
 87 131 l 1,771,-1
 94 -36 l 1,772,-1
 106 131 l 1,773,-1
 139 131 l 1,774,-1
 151 -34 l 1,775,-1
 159 131 l 1,776,-1
 195 131 l 1,764,-1
1912 858 m 0,777,778
 1912 881 1912 881 1904 892 c 1,779,780
 1895 875 1895 875 1895 852 c 2,781,-1
 1895 821 l 1,782,783
 1912 827 1912 827 1912 858 c 0,777,778
1583 805 m 0,784,785
 1583 881 1583 881 1574 888 c 1,786,787
 1565 881 1565 881 1565 809 c 0,788,789
 1565 732 1565 732 1574 723 c 1,790,791
 1583 733 1583 733 1583 805 c 0,784,785
1346 721 m 2,792,-1
 1346 886 l 1,793,794
 1327 880 1327 880 1327 830 c 2,795,-1
 1327 779 l 2,796,797
 1327 717 1327 717 1340 717 c 0,798,799
 1344 717 1344 717 1346 721 c 2,792,-1
1684 406 m 0,800,801
 1684 483 1684 483 1675 489 c 1,802,803
 1666 483 1666 483 1666 411 c 0,804,805
 1666 333 1666 333 1675 325 c 1,806,807
 1684 335 1684 335 1684 406 c 0,800,801
1177 805 m 0,808,809
 1177 881 1177 881 1168 888 c 1,810,811
 1159 881 1159 881 1159 809 c 0,812,813
 1159 732 1159 732 1168 723 c 1,814,815
 1177 733 1177 733 1177 805 c 0,808,809
1867 8 m 0,816,817
 1867 85 1867 85 1859 91 c 1,818,819
 1850 84 1850 84 1850 12 c 0,820,821
 1850 -65 1850 -65 1859 -73 c 1,822,823
 1867 -63 1867 -63 1867 8 c 0,816,817
1386 406 m 0,824,825
 1386 483 1386 483 1377 489 c 1,826,827
 1368 483 1368 483 1368 411 c 0,828,829
 1368 333 1368 333 1377 325 c 1,830,831
 1386 335 1386 335 1386 406 c 0,824,825
983 720 m 2,832,-1
 983 884 l 1,833,834
 964 878 964 878 964 822 c 2,835,-1
 964 778 l 2,836,837
 964 717 964 717 977 717 c 0,838,839
 980 717 980 717 983 720 c 2,832,-1
1279 322 m 2,840,-1
 1279 486 l 1,841,842
 1261 480 1261 480 1261 424 c 2,843,-1
 1261 379 l 2,844,845
 1261 319 1261 319 1273 319 c 0,846,847
 1277 319 1277 319 1279 322 c 2,840,-1
1106 462 m 0,848,849
 1106 482 1106 482 1094 482 c 256,850,851
 1082 482 1082 482 1073 453 c 0,852,853
 1066 430 1066 430 1066 412 c 0,854,855
 1066 384 1066 384 1078 384 c 0,856,857
 1089 384 1089 384 1098 417 c 0,858,859
 1106 444 1106 444 1106 462 c 0,848,849
599 837 m 0,860,861
 599 934 599 934 587 954 c 1,862,863
 575 938 575 938 575 848 c 0,864,865
 575 746 575 746 588 730 c 1,866,867
 599 748 599 748 599 837 c 0,860,861
1362 8 m 0,868,869
 1362 85 1362 85 1353 91 c 1,870,871
 1344 84 1344 84 1344 12 c 0,872,873
 1344 -65 1344 -65 1353 -73 c 1,874,875
 1362 -63 1362 -63 1362 8 c 0,868,869
471 837 m 0,876,877
 471 934 471 934 458 954 c 1,878,879
 446 938 446 938 446 848 c 0,880,881
 446 746 446 746 459 730 c 1,882,883
 471 748 471 748 471 837 c 0,876,877
831 459 m 0,884,885
 831 483 831 483 823 494 c 1,886,887
 813 477 813 477 813 454 c 2,888,-1
 813 422 l 1,889,890
 831 429 831 429 831 459 c 0,884,885
1100 -76 m 2,891,-1
 1100 89 l 1,892,893
 1081 83 1081 83 1081 33 c 2,894,-1
 1081 -17 l 2,895,896
 1081 -79 1081 -79 1094 -79 c 0,897,898
 1098 -79 1098 -79 1100 -76 c 2,891,-1
250 827 m 256,899,900
 250 867 250 867 235 900 c 0,901,902
 215 942 215 942 179 942 c 0,903,904
 144 942 144 942 124 900 c 0,905,906
 108 867 108 867 108 827 c 256,907,908
 108 787 108 787 124 753 c 0,909,910
 144 711 144 711 179 711 c 0,911,912
 215 711 215 711 235 753 c 0,913,914
 250 787 250 787 250 827 c 256,899,900
931 8 m 0,915,916
 931 85 931 85 922 91 c 1,917,918
 913 84 913 84 913 12 c 0,919,920
 913 -65 913 -65 922 -73 c 1,921,922
 931 -63 931 -63 931 8 c 0,915,916
501 406 m 0,923,924
 501 483 501 483 493 489 c 1,925,926
 484 483 484 483 484 411 c 0,927,928
 484 333 484 333 493 325 c 1,929,930
 501 335 501 335 501 406 c 0,923,924
737 -77 m 2,931,-1
 737 88 l 1,932,933
 718 82 718 82 718 26 c 2,934,-1
 718 -19 l 2,935,936
 718 -79 718 -79 731 -79 c 0,937,938
 734 -79 734 -79 737 -77 c 2,931,-1
232 845 m 1,939,-1
 200 845 l 1,940,941
 197 875 197 875 181 875 c 0,942,943
 161 875 161 875 161 826 c 0,944,945
 161 779 161 779 183 779 c 0,946,947
 197 779 197 779 200 807 c 1,948,-1
 231 807 l 1,949,950
 223 738 223 738 182 738 c 0,951,952
 153 738 153 738 138 770 c 0,953,954
 125 795 125 795 125 827 c 256,955,956
 125 859 125 859 136 883 c 0,957,958
 151 916 151 916 179 916 c 0,959,960
 224 916 224 916 232 845 c 1,939,-1
EndSplineSet
Validated: 33
EndChar

StartChar: asciicircum
Encoding: 94 94 63
Width: 1533
GlyphClass: 1
Flags: W
LayerCount: 2
Fore
SplineSet
1220 474 m 1,0,1
 1271 526 1271 526 1271 584 c 0,2,3
 1271 591 1271 591 1267.5 604.5 c 128,-1,4
 1264 618 1264 618 1264 624 c 0,5,6
 1264 633 1264 633 1272 633 c 0,7,8
 1285 633 1285 633 1288 622 c 2,9,-1
 1288 601 l 2,10,11
 1288 559 1288 559 1273 524 c 0,12,13
 1254 480 1254 480 1220 474 c 1,0,1
1478 -77 m 1,14,-1
 1469 -89 l 1,15,-1
 1470 -105 l 1,16,17
 1456 -102 1456 -102 1453 -94 c 0,18,19
 1452 -90 1452 -90 1452 -74 c 0,20,21
 1450 -71 1450 -71 1444 -67 c 1,22,23
 1444 -55 1444 -55 1451 -55 c 2,24,-1
 1467 -55 l 2,25,26
 1470 -55 1470 -55 1478 -63 c 1,27,-1
 1478 -77 l 1,14,-1
1281 65 m 0,28,29
 1273 67 1273 67 1273 74 c 0,30,31
 1273 82 1273 82 1279 89 c 1,32,33
 1289 89 1289 89 1295 83 c 0,34,35
 1296 79 1296 79 1296 75 c 0,36,37
 1296 67 1296 67 1281 65 c 0,28,29
1244 75 m 0,38,39
 1244 84 1244 84 1252 89 c 1,40,41
 1264 89 1264 89 1264 74 c 2,42,-1
 1264 65 l 1,43,44
 1260 58 1260 58 1254 58 c 0,45,46
 1244 58 1244 58 1244 75 c 0,38,39
1288 -25 m 0,47,48
 1288 -32 1288 -32 1281 -37 c 1,49,50
 1262 -37 1262 -37 1262 -26 c 0,51,52
 1263 -23 1263 -23 1265 -19 c 0,53,54
 1252 -1 1252 -1 1252 10 c 0,55,56
 1252 19 1252 19 1258 28 c 0,57,58
 1258 31 1258 31 1256.5 36.5 c 128,-1,59
 1255 42 1255 42 1255 45 c 2,60,-1
 1260 53 l 1,61,62
 1271 50 1271 50 1272.5 47.5 c 128,-1,63
 1274 45 1274 45 1274 33 c 128,-1,64
 1274 21 1274 21 1281 2.5 c 128,-1,65
 1288 -16 1288 -16 1288 -25 c 0,47,48
664 -89 m 1,66,67
 693 -109 693 -109 726 -109 c 0,68,69
 760 -109 760 -109 813 -86 c 2,70,-1
 898 -48 l 1,71,72
 880 -74 880 -74 827 -96 c 0,73,74
 778 -116 778 -116 744 -116 c 1,75,76
 739 -124 739 -124 717 -128 c 0,77,78
 701 -130 701 -130 685 -133 c 0,79,80
 662 -139 662 -139 651 -139 c 0,81,82
 630 -139 630 -139 598 -111.5 c 128,-1,83
 566 -84 566 -84 554 -84 c 0,84,85
 545 -84 545 -84 543 -103 c 0,86,87
 542 -116 542 -116 540 -130 c 1,88,-1
 535 -131 l 2,89,90
 530 -128 530 -128 523 -119 c 1,91,92
 523 -107 523 -107 529 -86 c 128,-1,93
 535 -65 535 -65 535 -54 c 0,94,95
 535 -42 535 -42 526.5 -25.5 c 128,-1,96
 518 -9 518 -9 507 -9 c 0,97,98
 489 -14 489 -14 468 -70 c 0,99,100
 442 -137 442 -137 435 -147 c 1,101,102
 440 -88 440 -88 479 -9 c 1,103,-1
 475 -5 l 1,104,105
 468 -11 468 -11 463 -24 c 0,106,107
 455 -43 455 -43 454 -45 c 0,108,109
 450 -51 450 -51 433.5 -64 c 128,-1,110
 417 -77 417 -77 417 -89 c 1,111,-1
 421 -90 l 2,112,113
 424 -89 424 -89 425 -89 c 0,114,115
 433 -89 433 -89 433 -93 c 2,116,-1
 429 -99 l 2,117,118
 426 -102 426 -102 420 -108 c 1,119,-1
 417 -96 l 1,120,121
 381 -106 381 -106 381 -125 c 0,122,123
 381 -135 381 -135 410 -135 c 1,124,-1
 410 -140 l 1,125,-1
 371 -141 l 2,126,127
 314 -142 314 -142 314 -115 c 0,128,129
 314 -107 314 -107 319 -98 c 1,130,-1
 316 -96 l 1,131,132
 309 -99 309 -99 289 -123 c 0,133,134
 272 -143 272 -143 257 -143 c 0,135,136
 239 -143 239 -143 224.5 -117.5 c 128,-1,137
 210 -92 210 -92 204 -92 c 0,138,139
 199 -92 199 -92 199 -98 c 0,140,141
 199 -120 199 -120 219 -140 c 1,142,143
 167 -140 167 -140 50 -142 c 1,144,-1
 50 1006 l 1,145,-1
 419 1006 l 1,146,147
 413 986 413 986 400 945 c 0,148,149
 384 896 384 896 377 896 c 0,150,151
 371 896 371 896 359 902 c 1,152,153
 343 894 343 894 343 875 c 0,154,155
 343 860 343 860 362.5 815 c 128,-1,156
 382 770 382 770 382 749 c 0,157,158
 382 700 382 700 413 700 c 1,159,160
 413 676 413 676 422 676 c 0,161,162
 441 676 441 676 475 683 c 0,163,164
 513 690 513 690 525 698 c 1,165,-1
 510 708 l 2,166,167
 503 714 503 714 503 724 c 0,168,169
 502 725 502 725 538 725 c 0,170,171
 545 725 545 725 613 704 c 0,172,173
 623 701 623 701 647 678 c 0,174,175
 666 660 666 660 705 660 c 0,176,177
 738 660 738 660 808 700 c 128,-1,178
 878 740 878 740 908 740 c 0,179,180
 910 739 910 739 916 716 c 1,181,-1
 988 707 l 1,182,-1
 1006 708 l 1,183,184
 1026 722 1026 722 1057 722 c 0,185,186
 1060 722 1060 722 1074 717 c 128,-1,187
 1088 712 1088 712 1097 712 c 0,188,189
 1143 712 1143 712 1143 769 c 0,190,191
 1143 834 1143 834 1103 890 c 0,192,193
 1099 896 1099 896 1102 910 c 1,194,195
 1081 920 1081 920 1060 969 c 0,196,197
 1057 972 1057 972 1050 974 c 2,198,-1
 1043 981 l 1,199,200
 1043 990 1043 990 1038 1006 c 1,201,-1
 1285 1006 l 1,202,203
 1281 998 1281 998 1261 885.5 c 128,-1,204
 1241 773 1241 773 1238 751 c 1,205,-1
 1243 739 l 1,206,207
 1241 740 1241 740 1265 740 c 0,208,209
 1298 740 1298 740 1308 671 c 1,210,211
 1296 687 1296 687 1286 687 c 0,212,213
 1279 687 1279 687 1265.5 683 c 128,-1,214
 1252 679 1252 679 1245 679 c 1,215,216
 1248 689 1248 689 1260.5 697.5 c 128,-1,217
 1273 706 1273 706 1273 709 c 0,218,219
 1273 725 1273 725 1263 725 c 0,220,221
 1240 725 1240 725 1224 716 c 0,222,223
 1203 704 1203 704 1203 684 c 256,224,225
 1203 664 1203 664 1218 664 c 0,226,227
 1222 664 1222 664 1227 666 c 1,228,-1
 1212 637 l 1,229,-1
 1216 629 l 1,230,231
 1233 619 1233 619 1233 613 c 256,232,233
 1233 607 1233 607 1212 592 c 1,234,235
 1228 587 1228 587 1228 578 c 0,236,237
 1228 573 1228 573 1213 561 c 128,-1,238
 1198 549 1198 549 1198 537 c 0,239,240
 1198 518 1198 518 1210 518 c 0,241,242
 1216 518 1216 518 1228 530 c 1,243,244
 1236 526 1236 526 1236 521 c 2,245,-1
 1234 516 l 1,246,247
 1207 501 1207 501 1207 471 c 0,248,249
 1207 462 1207 462 1209.5 444 c 128,-1,250
 1212 426 1212 426 1213 418 c 0,251,252
 1213 405 1213 405 1217 405 c 0,253,254
 1236 405 1236 405 1268 480 c 0,255,256
 1296 544 1296 544 1301 579 c 1,257,-1
 1307 578 l 1,258,259
 1300 517 1300 517 1269 460 c 0,260,261
 1259 441 1259 441 1216 378 c 0,262,263
 1189 339 1189 339 1189 316 c 0,264,265
 1189 283 1189 283 1261 222 c 0,266,267
 1295 194 1295 194 1362 140 c 0,268,269
 1387 119 1387 119 1418 101 c 0,270,271
 1436 92 1436 92 1454 83 c 0,272,273
 1483 66 1483 66 1483 57 c 0,274,275
 1483 39 1483 39 1467 39 c 1,276,277
 1486 39 1486 39 1446 59 c 128,-1,278
 1406 79 1406 79 1392 79 c 2,279,-1
 1388 79 l 1,280,-1
 1386 70 l 1,281,-1
 1381 70 l 1,282,283
 1378 83 1378 83 1365 103.5 c 128,-1,284
 1352 124 1352 124 1340 124 c 1,285,-1
 1334 119 l 1,286,287
 1323 101 1323 101 1323 51 c 128,-1,288
 1323 1 1323 1 1315 -19 c 1,289,-1
 1317 -27 l 1,290,-1
 1319 -27 l 2,291,292
 1320 -27 1320 -27 1331.5 -23.5 c 128,-1,293
 1343 -20 1343 -20 1354.5 -20 c 128,-1,294
 1366 -20 1366 -20 1366 -4 c 0,295,296
 1366 4 1366 4 1359 7 c 1,297,298
 1351 0 1351 0 1345 -5 c 1,299,300
 1333 -5 1333 -5 1333 3 c 0,301,302
 1333 49 1333 49 1352 92 c 1,303,304
 1357 80 1357 80 1357 46 c 0,305,306
 1357 25 1357 25 1367 25 c 0,307,308
 1373 25 1373 25 1385 26.5 c 128,-1,309
 1397 28 1397 28 1403 28 c 0,310,311
 1406 28 1406 28 1410.5 41 c 128,-1,312
 1415 54 1415 54 1419 54 c 0,313,314
 1426 54 1426 54 1430.5 38.5 c 128,-1,315
 1435 23 1435 23 1447 21 c 1,316,317
 1443 -6 1443 -6 1426 -6 c 0,318,319
 1421 -6 1421 -6 1416 2 c 2,320,-1
 1410 10 l 1,321,-1
 1404 11 l 1,322,-1
 1396 5 l 1,323,324
 1392 -3 1392 -3 1379 -12 c 1,325,326
 1381 -36 1381 -36 1396 -36 c 0,327,328
 1402 -36 1402 -36 1414 -27 c 128,-1,329
 1426 -18 1426 -18 1432 -18 c 0,330,331
 1439 -18 1439 -18 1447 -25 c 1,332,-1
 1447 -37 l 1,333,-1
 1432 -37 l 1,334,335
 1409 -51 1409 -51 1406 -51 c 0,336,337
 1402 -51 1402 -51 1396 -48 c 1,338,339
 1386 -52 1386 -52 1386 -58 c 0,340,341
 1386 -63 1386 -63 1395 -67 c 0,342,343
 1400 -67 1400 -67 1409 -58 c 1,344,345
 1441 -67 1441 -67 1441 -82 c 1,346,347
 1437 -95 1437 -95 1420 -95 c 0,348,349
 1414 -95 1414 -95 1414 -97 c 0,350,351
 1414 -113 1414 -113 1443 -113 c 0,352,353
 1453 -113 1453 -113 1476 -129 c 1,354,355
 1453 -143 1453 -143 1423 -143 c 0,356,357
 1403 -143 1403 -143 1380 -136 c 1,358,-1
 1375 -129 l 1,359,360
 1381 -124 1381 -124 1388 -111 c 1,361,-1
 1384 -109 l 1,362,363
 1375 -114 1375 -114 1358 -123 c 1,364,-1
 1357 -129 l 2,365,366
 1357 -132 1357 -132 1372 -140 c 1,367,-1
 1325 -140 l 1,368,-1
 1325 -124 l 2,369,370
 1325 -101 1325 -101 1308 -101 c 0,371,372
 1301 -101 1301 -101 1301 -109 c 2,373,-1
 1303 -124 l 1,374,-1
 1291 -124 l 2,375,376
 1283 -123 1283 -123 1280 -127 c 0,377,378
 1278 -131 1278 -131 1281 -140 c 1,379,-1
 1244 -140 l 1,380,381
 1263 -127 1263 -127 1263 -111 c 0,382,383
 1260 -108 1260 -108 1254 -108 c 0,384,385
 1249 -108 1249 -108 1238.5 -114 c 128,-1,386
 1228 -120 1228 -120 1223 -120 c 0,387,388
 1212 -120 1212 -120 1212 -107 c 0,389,390
 1212 -99 1212 -99 1232 -93.5 c 128,-1,391
 1252 -88 1252 -88 1254 -84 c 0,392,393
 1267 -71 1267 -71 1286 -43 c 1,394,395
 1303 -43 1303 -43 1303 -49 c 0,396,397
 1303 -59 1303 -59 1288.5 -72.5 c 128,-1,398
 1274 -86 1274 -86 1273 -89 c 2,399,-1
 1282 -94 l 2,400,401
 1285 -93 1285 -93 1294 -87.5 c 128,-1,402
 1303 -82 1303 -82 1309 -82 c 0,403,404
 1316 -82 1316 -82 1326.5 -95 c 128,-1,405
 1337 -108 1337 -108 1345 -108 c 0,406,407
 1359 -108 1359 -108 1364 -95 c 1,408,409
 1336 -90 1336 -90 1309 -62 c 1,410,411
 1313 -58 1313 -58 1317 -46 c 1,412,413
 1305 -29 1305 -29 1305 -8 c 0,414,415
 1305 4 1305 4 1309.5 26.5 c 128,-1,416
 1314 49 1314 49 1314 61 c 0,417,418
 1314 166 1314 166 1282 166 c 0,419,420
 1278 166 1278 166 1270.5 164 c 128,-1,421
 1263 162 1263 162 1260 162 c 0,422,423
 1252 162 1252 162 1250 169 c 0,424,425
 1249 172 1249 172 1249 176 c 256,426,427
 1249 180 1249 180 1250 185 c 2,428,-1
 1251 199 l 2,429,430
 1251 203 1251 203 1248 206 c 0,431,432
 1235 218 1235 218 1207 240 c 1,433,-1
 1207 236 l 2,434,435
 1207 218 1207 218 1219.5 184 c 128,-1,436
 1232 150 1232 150 1232 133 c 0,437,438
 1232 74 1232 74 1228 45 c 1,439,440
 1234 37 1234 37 1239 31 c 1,441,442
 1239 19 1239 19 1227 19 c 2,443,-1
 1214 19 l 1,444,445
 1214 33 1214 33 1215 60.5 c 128,-1,446
 1216 88 1216 88 1216 102 c 0,447,448
 1216 184 1216 184 1181 224 c 1,449,450
 1163 196 1163 196 1128 155 c 0,451,452
 1086 106 1086 106 1068 96 c 1,453,454
 1066 90 1066 90 1054.5 75 c 128,-1,455
 1043 60 1043 60 1043 53 c 0,456,457
 1043 48 1043 48 1044 46 c 1,458,459
 1074 63 1074 63 1103 106 c 0,460,461
 1119 130 1119 130 1151 177 c 1,462,463
 1127 69 1127 69 1008 4 c 0,464,465
 1006 3 1006 3 1002 3 c 256,466,467
 998 3 998 3 990.5 7 c 128,-1,468
 983 11 983 11 979 11 c 0,469,470
 975 9 975 9 973.5 -3 c 128,-1,471
 972 -15 972 -15 967 -17 c 0,472,473
 960 -22 960 -22 944 -28 c 0,474,475
 859 -54 859 -54 829 -53 c 1,476,477
 820 -63 820 -63 762 -76 c 0,478,479
 711 -88 711 -88 689 -88 c 0,480,481
 683 -88 683 -88 677 -80 c 1,482,-1
 664 -89 l 1,66,67
451 714 m 0,483,484
 449 714 449 714 439 717 c 1,485,-1
 446 724 l 1,486,-1
 448 730 l 1,487,488
 454 726 454 726 458 729 c 0,489,490
 465 731 465 731 468 731 c 0,491,492
 474 731 474 731 484 718 c 1,493,494
 478 718 478 718 467 716 c 128,-1,495
 456 714 456 714 451 714 c 0,483,484
1040 -88 m 1,496,-1
 1036 -84 l 1,497,498
 1062 -60 1062 -60 1112 -12 c 0,499,500
 1156 31 1156 31 1156 78 c 0,501,502
 1156 82 1156 82 1150 114 c 1,503,504
 1156 119 1156 119 1166 133 c 1,505,506
 1165 141 1165 141 1165 148 c 0,507,508
 1165 166 1165 166 1178 192 c 1,509,510
 1186 166 1186 166 1186 139 c 0,511,512
 1186 26 1186 26 1040 -88 c 1,496,-1
1102 41 m 1,513,514
 1102 54 1102 54 1112 54 c 0,515,516
 1126 54 1126 54 1126 46 c 0,517,518
 1122 39 1122 39 1118 34 c 1,519,520
 1109 34 1109 34 1102 41 c 1,513,514
1202 -87 m 1,521,522
 1202 -63 1202 -63 1194 -63 c 0,523,524
 1184 -63 1184 -63 1176 -78 c 0,525,526
 1166 -97 1166 -97 1163 -99 c 1,527,-1
 1166 -103 l 1,528,-1
 1177 -106 l 1,529,530
 1180 -102 1180 -102 1189 -94 c 1,531,532
 1196 -94 1196 -94 1196 -110 c 1,533,534
 1187 -116 1187 -116 1179 -129 c 1,535,536
 1183 -135 1183 -135 1193 -135 c 1,537,-1
 1193 -140 l 1,538,539
 1165 -140 1165 -140 1064 -141 c 1,540,541
 1090 -120 1090 -120 1142 -77 c 0,542,543
 1182 -41 1182 -41 1198 4 c 1,544,545
 1205 10 1205 10 1210 10 c 0,546,547
 1213 10 1213 10 1215 8 c 0,548,549
 1218 0 1218 0 1216 -11 c 2,550,-1
 1215 -29 l 1,551,-1
 1215 -34 l 1,552,-1
 1218 -34 l 2,553,554
 1220 -34 1220 -34 1225 -36.5 c 128,-1,555
 1230 -39 1230 -39 1232 -39 c 0,556,557
 1234 -38 1234 -38 1236 -38 c 0,558,559
 1240 -38 1240 -38 1239 -41 c 0,560,561
 1232 -67 1232 -67 1228 -70 c 2,562,563
 1228 -70 1228 -70 1202 -87 c 1,521,522
892 710 m 0,564,565
 873 710 873 710 829 687.5 c 128,-1,566
 785 665 785 665 785 648 c 0,567,568
 785 640 785 640 790.5 628 c 128,-1,569
 796 616 796 616 796 613 c 0,570,571
 796 608 796 608 792 603 c 1,572,573
 799 598 799 598 830 563 c 0,574,575
 847 544 847 544 885 544 c 256,576,577
 923 544 923 544 961 554 c 0,578,579
 1016 570 1016 570 1016 595 c 0,580,581
 1016 615 1016 615 995 615 c 0,582,583
 986 615 986 615 962 581 c 1,584,585
 959 586 959 586 950.5 587.5 c 128,-1,586
 942 589 942 589 942 594 c 0,587,588
 942 596 942 596 954.5 613 c 128,-1,589
 967 630 967 630 967 638 c 256,590,591
 967 646 967 646 960 650 c 1,592,593
 941 609 941 609 920 609 c 0,594,595
 895 609 895 609 881 650 c 1,596,597
 862 643 862 643 862 630 c 2,598,-1
 865 620 l 2,599,600
 866 618 866 618 882 612 c 0,601,602
 894 607 894 607 894 599 c 0,603,604
 894 583 894 583 883 583 c 256,605,606
 872 583 872 583 865 587 c 2,607,-1
 863 588 l 1,608,609
 855 581 855 581 843 572 c 1,610,611
 852 602 852 602 852 602 c 2,612,613
 852 609 852 609 846 612 c 0,614,615
 828 620 828 620 823 624 c 128,-1,616
 818 628 818 628 808 642 c 1,617,618
 872 685 872 685 902 685 c 0,619,620
 908 685 908 685 923 681.5 c 128,-1,621
 938 678 938 678 945 679 c 0,622,623
 969 682 969 682 966 682 c 1,624,625
 983 682 983 682 1016 639 c 1,626,-1
 1028 643 l 1,627,628
 1030 652 1030 652 1030 658 c 0,629,630
 1030 689 1030 689 981 698 c 1,631,-1
 911 702 l 2,632,633
 909 703 909 703 902 706.5 c 128,-1,634
 895 710 895 710 892 710 c 0,564,565
1166 566 m 0,635,636
 1166 572 1166 572 1168.5 585 c 128,-1,637
 1171 598 1171 598 1171 604 c 0,638,639
 1171 628 1171 628 1160 656 c 0,640,641
 1146 690 1146 690 1126 690 c 1,642,643
 1130 690 1130 690 1086 679 c 0,644,645
 1079 677 1079 677 1070 679 c 0,646,647
 1057 680 1057 680 1054 680 c 0,648,649
 1046 680 1046 680 1046 666 c 0,650,651
 1046 658 1046 658 1053 645 c 128,-1,652
 1060 632 1060 632 1060 624 c 0,653,654
 1060 623 1060 623 1052 594 c 1,655,656
 1046 548 1046 548 1012 532 c 0,657,658
 995 524 995 524 931 516 c 0,659,660
 927 515 927 515 922.5 507.5 c 128,-1,661
 918 500 918 500 911 500 c 0,662,663
 899 500 899 500 874 507.5 c 128,-1,664
 849 515 849 515 839.5 516 c 128,-1,665
 830 517 830 517 813 530 c 0,666,667
 792 546 792 546 788 548 c 0,668,669
 766 548 766 548 766 533 c 0,670,671
 766 525 766 525 772.5 517 c 128,-1,672
 779 509 779 509 779 509 c 2,673,674
 779 503 779 503 775 499 c 1,675,676
 786 464 786 464 787.5 456 c 128,-1,677
 789 448 789 448 789 412 c 0,678,679
 789 388 789 388 807 388 c 0,680,681
 828 388 828 388 828 408 c 0,682,683
 828 415 828 415 818.5 430.5 c 128,-1,684
 809 446 809 446 809 455 c 2,685,-1
 810 465 l 1,686,687
 846 429 846 429 846 419 c 0,688,689
 846 404 846 404 840 389 c 0,690,691
 831 370 831 370 818 370 c 0,692,693
 815 370 815 370 805 374 c 128,-1,694
 795 378 795 378 790 378 c 0,695,696
 773 378 773 378 751.5 361.5 c 128,-1,697
 730 345 730 345 724 345 c 0,698,699
 720 345 720 345 712 347 c 128,-1,700
 704 349 704 349 700 349 c 2,701,-1
 693 347 l 1,702,703
 704 337 704 337 704 325 c 0,704,705
 704 316 704 316 695.5 298 c 128,-1,706
 687 280 687 280 687 274 c 0,707,708
 687 257 687 257 712 257 c 0,709,710
 730 257 730 257 742 266 c 0,711,712
 741 269 741 269 735 285 c 0,713,714
 731 296 731 296 731 303 c 0,715,716
 731 321 731 321 744 334 c 128,-1,717
 757 347 757 347 775 347 c 0,718,719
 783 347 783 347 787 339 c 128,-1,720
 791 331 791 331 796 331 c 2,721,-1
 802 336 l 1,722,-1
 804 340 l 1,723,-1
 812 347 l 1,724,725
 825 344 825 344 840 331 c 2,726,-1
 864 311 l 1,727,-1
 871 312 l 1,728,729
 884 329 884 329 895 327 c 0,730,731
 898 328 898 328 907.5 339.5 c 128,-1,732
 917 351 917 351 922 351 c 0,733,734
 938 351 938 351 958 320.5 c 128,-1,735
 978 290 978 290 978 271 c 0,736,737
 978 242 978 242 947 242 c 1,738,739
 947 235 947 235 958 222.5 c 128,-1,740
 969 210 969 210 969 206 c 0,741,742
 969 199 969 199 960 196 c 0,743,744
 946 193 946 193 945 191 c 0,745,746
 940 181 940 181 940 175 c 0,747,748
 940 155 940 155 956 155 c 0,749,750
 966 155 966 155 989.5 176.5 c 128,-1,751
 1013 198 1013 198 1013 208 c 256,752,753
 1013 218 1013 218 993 244 c 1,754,755
 1000 243 1000 243 1004 243 c 0,756,757
 1013 243 1013 243 1023 255 c 128,-1,758
 1033 267 1033 267 1036 267 c 256,759,760
 1039 267 1039 267 1043.5 265 c 128,-1,761
 1048 263 1048 263 1050 263 c 0,762,763
 1057 263 1057 263 1059 276 c 0,764,765
 1060 288 1060 288 1059 300 c 0,766,767
 1058 311 1058 311 1057 318 c 0,768,769
 1057 326 1057 326 1060 336 c 1,770,771
 1072 329 1072 329 1074 309.5 c 128,-1,772
 1076 290 1076 290 1083 290 c 0,773,774
 1111 290 1111 290 1127 320 c 1,775,776
 1100 327 1100 327 1100 333 c 2,777,-1
 1103 342 l 2,778,779
 1105 344 1105 344 1108 344 c 0,780,781
 1110 343 1110 343 1117 338 c 1,782,783
 1127 346 1127 346 1127 358 c 0,784,785
 1127 381 1127 381 1099 381 c 1,786,787
 1099 395 1099 395 1109 395 c 0,788,789
 1113 395 1113 395 1122 391.5 c 128,-1,790
 1131 388 1131 388 1136 388 c 0,791,792
 1152 388 1152 388 1167 424 c 0,793,794
 1181 455 1181 455 1181 473 c 0,795,796
 1181 486 1181 486 1173 506 c 128,-1,797
 1165 526 1165 526 1165 528 c 0,798,799
 1165 531 1165 531 1169.5 537 c 128,-1,800
 1174 543 1174 543 1174 546 c 0,801,802
 1171 552 1171 552 1166 566 c 0,635,636
1081 246 m 2,803,-1
 1079 246 l 1,804,-1
 1077 241 l 1,805,-1
 1083 235 l 1,806,-1
 1086 244 l 2,807,808
 1085 246 1085 246 1081 246 c 2,803,-1
1355 -49 m 0,809,810
 1355 -59 1355 -59 1364 -59 c 0,811,812
 1375 -59 1375 -59 1375 -43 c 1,813,-1
 1373 -36 l 2,814,815
 1370 -32 1370 -32 1367 -32 c 0,816,817
 1355 -32 1355 -32 1355 -49 c 0,809,810
1043 253 m 1,818,819
 1035 248 1035 248 1035 241 c 2,820,-1
 1040 231 l 1,821,822
 1047 235 1047 235 1047 241 c 2,823,-1
 1051 248 l 1,824,-1
 1043 253 l 1,818,819
1067 225 m 1,825,-1
 1061 212 l 1,826,-1
 1069 212 l 2,827,828
 1072 213 1072 213 1072 220 c 2,829,-1
 1071 227 l 1,830,-1
 1067 225 l 1,825,-1
647 659 m 0,831,832
 644 659 644 659 641 654 c 1,833,834
 652 645 652 645 652 606 c 1,835,-1
 655 604 l 1,836,837
 657 608 657 608 657 614 c 0,838,839
 657 649 657 649 647 659 c 0,831,832
1060 182 m 1,840,841
 1055 181 1055 181 1052 174 c 1,842,-1
 1057 172 l 1,843,-1
 1062 177 l 1,844,-1
 1060 182 l 1,840,841
747 582 m 1,845,846
 747 648 747 648 711 648 c 0,847,848
 671 648 671 648 671 589 c 1,849,850
 671 596 671 596 672 566 c 2,851,852
 672 566 672 566 672 545 c 0,853,854
 672 537 672 537 670 521.5 c 128,-1,855
 668 506 668 506 668 498 c 0,856,857
 668 496 668 496 670 490.5 c 128,-1,858
 672 485 672 485 672 482 c 0,859,860
 655 449 655 449 629 421 c 0,861,862
 621 412 621 412 621 405 c 0,863,864
 621 391 621 391 630 391 c 0,865,866
 632 391 632 391 637 401 c 128,-1,867
 642 411 642 411 648 411 c 0,868,869
 650 411 650 411 672.5 389 c 128,-1,870
 695 367 695 367 711 364 c 0,871,872
 714 361 714 361 720 361 c 0,873,874
 731 361 731 361 758 386 c 128,-1,875
 785 411 785 411 785 422 c 256,876,877
 785 433 785 433 764.5 480 c 128,-1,878
 744 527 744 527 745 551 c 0,879,880
 747 592 747 592 747 582 c 1,845,846
879 291 m 0,881,882
 874 291 874 291 874 280 c 1,883,-1
 883 276 l 2,884,885
 890 276 890 276 902 271 c 1,886,-1
 906 279 l 1,887,888
 881 291 881 291 879 291 c 0,881,882
496 682 m 0,889,890
 435 682 435 682 435 653 c 1,891,-1
 440 645 l 2,892,893
 443 642 443 642 446 642 c 0,894,895
 450 642 450 642 468 655 c 0,896,897
 477 662 477 662 486 662 c 0,898,899
 509 658 509 658 504 658 c 1,900,901
 519 658 519 658 519 667 c 0,902,903
 519 682 519 682 496 682 c 0,889,890
608 630 m 1,904,905
 608 595 608 595 572 595 c 1,906,907
 574 598 574 598 586.5 631 c 128,-1,908
 599 664 599 664 599 667 c 0,909,910
 599 673 599 673 591 680 c 128,-1,911
 583 687 583 687 576 687 c 0,912,913
 555 687 555 687 555 670 c 0,914,915
 555 664 555 664 566 651 c 0,916,917
 580 635 580 635 581 632 c 0,918,919
 573 629 573 629 560.5 609 c 128,-1,920
 548 589 548 589 529 589 c 0,921,922
 513 589 513 589 505 603.5 c 128,-1,923
 497 618 497 618 491 632 c 1,924,-1
 480 629 l 1,925,-1
 480 626 l 2,926,927
 480 617 480 617 492.5 603 c 128,-1,928
 505 589 505 589 505 582 c 0,929,930
 505 572 505 572 487 570 c 0,931,932
 464 567 464 567 461 565 c 2,933,-1
 461 552 l 1,934,935
 457 551 457 551 454 551 c 0,936,937
 439 551 439 551 435 569 c 0,938,939
 434 581 434 581 432 598 c 0,940,941
 430 606 430 606 427 606 c 0,942,943
 416 606 416 606 416 570 c 0,944,945
 416 535 416 535 450 526 c 0,946,947
 461 522 461 522 512 522 c 0,948,949
 586 522 586 522 630 600 c 1,950,-1
 630 603 l 2,951,952
 631 613 631 613 624.5 621.5 c 128,-1,953
 618 630 618 630 608 630 c 1,904,905
1014 118 m 2,954,955
 1006 118 1006 118 1006 107 c 1,956,-1
 1010 105 l 1,957,958
 1024 105 1024 105 1024 117 c 1,959,-1
 1014 118 l 2,954,955
812 293 m 1,960,-1
 809 293 l 1,961,962
 800 284 800 284 800 276 c 2,963,-1
 805 267 l 1,964,-1
 808 266 l 2,965,966
 811 266 811 266 817 278 c 1,967,968
 815 284 815 284 812 293 c 1,960,-1
755 307 m 0,969,970
 747 307 747 307 747 292 c 0,971,972
 747 279 747 279 768 271 c 1,973,-1
 773 274 l 1,974,-1
 774 279 l 2,975,976
 774 286 774 286 767.5 296.5 c 128,-1,977
 761 307 761 307 755 307 c 0,969,970
876 112 m 1,978,979
 922 114 922 114 922 183 c 0,980,981
 922 194 922 194 919 203 c 1,982,983
 921 203 921 203 924.5 201.5 c 128,-1,984
 928 200 928 200 930 200 c 0,985,986
 932 202 932 202 940 212 c 1,987,988
 938 227 938 227 924.5 238.5 c 128,-1,989
 911 250 911 250 895 250 c 0,990,991
 849 250 849 250 757 241.5 c 128,-1,992
 665 233 665 233 619 233 c 0,993,994
 613 233 613 233 603.5 237.5 c 128,-1,995
 594 242 594 242 589 242 c 0,996,997
 582 233 582 233 574 226 c 0,998,999
 568 226 568 226 561 230 c 0,1000,1001
 559 228 559 228 553.5 218.5 c 128,-1,1002
 548 209 548 209 546 209 c 2,1003,-1
 544 210 l 1,1004,1005
 517 216 517 216 517 284 c 0,1006,1007
 517 291 517 291 519 298 c 1,1008,1009
 525 300 525 300 536 305 c 1,1010,1011
 564 347 564 347 588 347 c 0,1012,1013
 602 347 602 347 601 340 c 0,1014,1015
 596 329 596 329 591 326 c 0,1016,1017
 572 319 572 319 572 304 c 1,1018,1019
 576 298 576 298 580 298 c 2,1020,-1
 584 298 l 1,1021,1022
 631 352 631 352 640 352 c 0,1023,1024
 644 352 644 352 652 350 c 128,-1,1025
 660 348 660 348 663 348 c 0,1026,1027
 670 348 670 348 670 358 c 0,1028,1029
 670 377 670 377 649 377 c 0,1030,1031
 645 377 645 377 637.5 374 c 128,-1,1032
 630 371 630 371 626 371 c 0,1033,1034
 615 371 615 371 608 382 c 128,-1,1035
 601 393 601 393 601 404 c 0,1036,1037
 601 440 601 440 643 469 c 1,1038,1039
 651 482 651 482 651 522 c 0,1040,1041
 651 530 651 530 648 553 c 0,1042,1043
 647 573 647 573 649 585 c 1,1044,-1
 645 587 l 1,1045,1046
 639 583 639 583 627 554 c 128,-1,1047
 615 525 615 525 601 513 c 0,1048,1049
 575 491 575 491 528 491 c 0,1050,1051
 512 491 512 491 482 502 c 128,-1,1052
 452 513 452 513 442 513 c 0,1053,1054
 438 513 438 513 433 510 c 2,1055,-1
 425 507 l 1,1056,1057
 381 530 381 530 365 567 c 1,1058,-1
 361 567 l 1,1059,-1
 360 551 l 2,1060,1061
 359 527 359 527 364 481 c 0,1062,1063
 370 431 370 431 370 411 c 0,1064,1065
 370 402 370 402 384 399 c 128,-1,1066
 398 396 398 396 398 393 c 2,1067,-1
 392 381 l 1,1068,1069
 377 374 377 374 377 360 c 0,1070,1071
 377 350 377 350 387 329.5 c 128,-1,1072
 397 309 397 309 405 309 c 0,1073,1074
 410 309 410 309 417.5 316 c 128,-1,1075
 425 323 425 323 426 323 c 0,1076,1077
 430 323 430 323 433 321 c 0,1078,1079
 455 294 455 294 489 230 c 1,1080,1081
 470 225 470 225 470 203 c 0,1082,1083
 470 183 470 183 503 144 c 1,1084,-1
 513 140 l 1,1085,1086
 520 144 520 144 520 151 c 2,1087,-1
 519 156 l 2,1088,1089
 516 158 516 158 503 158 c 1,1090,-1
 503 169 l 1,1091,1092
 507 176 507 176 513 176 c 0,1093,1094
 516 176 516 176 522.5 170 c 128,-1,1095
 529 164 529 164 529 164 c 1,1096,1097
 535 169 535 169 552 193 c 0,1098,1099
 565 212 565 212 581 212 c 0,1100,1101
 588 212 588 212 588 195 c 1,1102,1103
 561 184 561 184 561 161 c 1,1104,-1
 564 149 l 1,1105,1106
 571 144 571 144 576 144 c 0,1107,1108
 580 144 580 144 582 146 c 2,1109,-1
 579 158 l 1,1110,-1
 579 167 l 1,1111,1112
 599 177 599 177 601 178 c 0,1113,1114
 610 185 610 185 610 199 c 1,1115,1116
 627 199 627 199 628 192 c 0,1117,1118
 613 160 613 160 588 93 c 1,1119,-1
 590 84 l 1,1120,-1
 598 85 l 1,1121,1122
 603 100 603 100 601 108 c 1,1123,1124
 621 108 621 108 652 148 c 1,1125,1126
 671 147 671 147 683.5 162 c 128,-1,1127
 696 177 696 177 703 177 c 0,1128,1129
 708 177 708 177 716.5 171.5 c 128,-1,1130
 725 166 725 166 730 166 c 0,1131,1132
 751 166 751 166 766 173 c 2,1133,1134
 766 173 766 173 796 192 c 1,1135,1136
 803 190 803 190 810.5 176.5 c 128,-1,1137
 818 163 818 163 823 158 c 1,1138,1139
 818 158 818 158 811 160.5 c 128,-1,1140
 804 163 804 163 800 163 c 2,1141,-1
 794 160 l 1,1142,1143
 787 136 787 136 771 93 c 0,1144,1145
 770 91 770 91 750 84 c 1,1146,-1
 750 77 l 2,1147,1148
 748 60 748 60 768 26 c 1,1149,1150
 773 29 773 29 777 29 c 0,1151,1152
 789 29 789 29 794 15 c 1,1153,-1
 801 20 l 2,1154,1155
 803 24 803 24 816 45 c 128,-1,1156
 829 66 829 66 829 67 c 0,1157,1158
 829 80 829 80 791 88 c 1,1159,1160
 794 92 794 92 797 115 c 0,1161,1162
 800 132 800 132 813 132 c 0,1163,1164
 824 132 824 132 827 113 c 0,1165,1166
 831 90 831 90 833 88 c 2,1167,-1
 846 84 l 1,1168,1169
 859 91 859 91 858 107 c 0,1170,1171
 857 116 857 116 857 121 c 0,1172,1173
 857 128 857 128 867 128 c 0,1174,1175
 875 125 875 125 876 112 c 1,978,979
653 320 m 1,1176,1177
 646 317 646 317 636 286 c 1,1178,-1
 639 283 l 1,1179,1180
 647 294 647 294 658 318 c 1,1181,-1
 653 320 l 1,1176,1177
849 68 m 0,1182,1183
 849 53 849 53 860 53 c 0,1184,1185
 868 53 868 53 868 65 c 1,1186,-1
 873 74 l 1,1187,1188
 873 84 873 84 861 84 c 256,1189,1190
 849 84 849 84 849 68 c 0,1182,1183
885 27 m 1,1191,-1
 883 28 l 2,1192,1193
 881 28 881 28 865 20 c 1,1194,-1
 868 12 l 1,1195,-1
 878 16 l 1,1196,1197
 882 22 882 22 888 24 c 1,1198,-1
 885 27 l 1,1191,-1
325 511 m 2,1199,1200
 325 514 325 514 320 525.5 c 128,-1,1201
 315 537 315 537 315 543 c 0,1202,1203
 315 546 315 546 323.5 567.5 c 128,-1,1204
 332 589 332 589 332 601 c 0,1205,1206
 332 608 332 608 318.5 631.5 c 128,-1,1207
 305 655 305 655 300 655 c 0,1208,1209
 273 655 273 655 273 613 c 0,1210,1211
 273 594 273 594 317 504 c 1,1212,-1
 324 500 l 1,1213,-1
 325 511 l 2,1199,1200
855 39 m 1,1214,-1
 851 40 l 2,1215,1216
 838 40 838 40 838 25 c 1,1217,-1
 839 23 l 2,1218,1219
 839 20 839 20 842 20 c 0,1220,1221
 846 20 846 20 852.5 23.5 c 128,-1,1222
 859 27 859 27 859 31 c 2,1223,-1
 855 39 l 1,1214,-1
827 4 m 1,1224,1225
 818 4 818 4 818 -10 c 0,1226,1227
 818 -15 818 -15 827 -15 c 2,1228,-1
 834 -15 l 2,1229,1230
 839 -12 839 -12 839 -8 c 0,1231,1232
 839 -2 839 -2 827 4 c 1,1224,1225
674 116 m 2,1233,-1
 680 116 l 2,1234,1235
 696 116 696 116 696 131 c 2,1236,-1
 694 139 l 2,1237,1238
 692 140 692 140 690 140 c 0,1239,1240
 672 140 672 140 672 122 c 0,1241,1242
 672 119 672 119 674 116 c 2,1233,-1
746 144 m 2,1243,1244
 724 145 724 145 720 131 c 0,1245,1246
 719 129 719 129 719 98 c 1,1247,1248
 712 107 712 107 697 115 c 1,1249,-1
 691 112 l 2,1250,1251
 690 108 690 108 690 105 c 0,1252,1253
 690 88 690 88 705 78 c 1,1254,1255
 697 71 697 71 691 62 c 1,1256,1257
 700 16 700 16 716 16 c 2,1258,-1
 719 16 l 1,1259,-1
 721 22 l 1,1260,1261
 713 31 713 31 713 43 c 0,1262,1263
 713 68 713 68 735 99 c 128,-1,1264
 757 130 757 130 757 133 c 2,1265,-1
 754 143 l 1,1266,-1
 746 144 l 2,1243,1244
748 26 m 1,1267,-1
 741 31 l 1,1268,1269
 727 26 727 26 727 2 c 0,1270,1271
 727 -4 727 -4 736 -7 c 1,1272,1273
 745 -2 745 -2 753 13 c 1,1274,-1
 748 26 l 1,1267,-1
658 105 m 1,1275,-1
 653 107 l 2,1276,1277
 649 106 649 106 640 99 c 1,1278,-1
 640 90 l 1,1279,1280
 644 82 644 82 649 82 c 256,1281,1282
 654 82 654 82 659 88 c 1,1283,-1
 660 97 l 1,1284,-1
 658 105 l 1,1275,-1
670 70 m 1,1285,-1
 668 75 l 1,1286,1287
 652 72 652 72 652 58 c 0,1288,1289
 652 48 652 48 664 48 c 1,1290,-1
 670 51 l 1,1291,-1
 670 70 l 1,1285,-1
432 296 m 1,1292,-1
 425 301 l 1,1293,1294
 412 299 412 299 412 282 c 0,1295,1296
 412 269 412 269 424 269 c 256,1297,1298
 436 269 436 269 435 288 c 1,1299,-1
 432 296 l 1,1292,-1
451 230 m 0,1300,1301
 462 230 462 230 462 249 c 1,1302,-1
 457 258 l 1,1303,-1
 454 258 l 2,1304,1305
 442 258 442 258 442 243 c 0,1306,1307
 442 230 442 230 451 230 c 0,1300,1301
619 74 m 1,1308,-1
 623 84 l 2,1309,1310
 623 87 623 87 620 90 c 0,1311,1312
 598 83 598 83 598 58 c 0,1313,1314
 598 30 598 30 615 30 c 0,1315,1316
 623 30 623 30 622 50 c 0,1317,1318
 620 62 620 62 619 74 c 1,1308,-1
639 8 m 1,1319,-1
 640 7 l 1,1320,-1
 646 4 l 1,1321,1322
 662 18 662 18 663 20 c 0,1323,1324
 663 22 663 22 662 24 c 0,1325,1326
 639 23 639 23 639 8 c 1,1319,-1
602 -71 m 0,1327,1328
 591 -71 591 -71 591 -81 c 0,1329,1330
 591 -98 591 -98 642 -119 c 1,1331,-1
 651 -120 l 1,1332,-1
 658 -116 l 1,1333,-1
 659 -112 l 2,1334,1335
 659 -101 659 -101 636.5 -86 c 128,-1,1336
 614 -71 614 -71 602 -71 c 0,1327,1328
391 23 m 2,1337,-1
 391 20 l 1,1338,1339
 395 22 395 22 413 33 c 0,1340,1341
 428 43 428 43 428 50 c 2,1342,-1
 424 59 l 1,1343,-1
 420 60 l 2,1344,1345
 410 60 410 60 400.5 46.5 c 128,-1,1346
 391 33 391 33 391 23 c 2,1337,-1
402 -4 m 1,1347,-1
 404 -14 l 2,1348,1349
 408 -17 408 -17 420.5 -8.5 c 128,-1,1350
 433 0 433 0 433 6 c 0,1351,1352
 433 8 433 8 432 9 c 0,1353,1354
 431 15 431 15 425 15 c 0,1355,1356
 410 15 410 15 402 -4 c 1,1347,-1
377 51 m 1,1357,-1
 375 51 l 2,1358,1359
 370 51 370 51 361 33 c 1,1360,1361
 361 21 361 21 371 21 c 1,1362,1363
 382 26 382 26 382 40 c 1,1364,-1
 377 51 l 1,1357,-1
401 -31 m 1,1365,1366
 394 -27 394 -27 388 -27 c 0,1367,1368
 372 -27 372 -27 351 -63 c 128,-1,1369
 330 -99 330 -99 330 -118 c 0,1370,1371
 330 -122 330 -122 333 -122 c 1,1372,1373
 326 -122 326 -122 356 -114 c 1,1374,1375
 356 -101 356 -101 372 -80 c 1,1376,1377
 374 -59 374 -59 389 -53 c 0,1378,1379
 400 -48 400 -48 404 -41 c 1,1380,-1
 401 -31 l 1,1365,1366
367 7 m 1,1381,1382
 309 7 309 7 274 -96 c 1,1383,-1
 279 -98 l 1,1384,1385
 288 -94 288 -94 304.5 -72 c 128,-1,1386
 321 -50 321 -50 334 -43 c 0,1387,1388
 336 -39 336 -39 336 -34 c 256,1389,1390
 336 -29 336 -29 334 -22 c 1,1391,-1
 342 -23 l 2,1392,1393
 369 -23 369 -23 375 3 c 1,1394,-1
 367 7 l 1,1381,1382
257 16 m 1,1395,1396
 259 -5 259 -5 267 -5 c 0,1397,1398
 277 -5 277 -5 277 8 c 0,1399,1400
 277 20 277 20 266 20 c 1,1401,-1
 257 16 l 1,1395,1396
331 -72 m 1,1402,1403
 322 -72 322 -72 322 -85 c 1,1404,-1
 326 -87 l 1,1405,1406
 337 -81 337 -81 337 -77 c 2,1407,-1
 336 -75 l 1,1408,-1
 331 -72 l 1,1402,1403
227 -17 m 1,1409,-1
 218 -23 l 1,1410,-1
 218 -27 l 2,1411,1412
 218 -39 218 -39 232 -39 c 1,1413,1414
 243 -30 243 -30 243 -24 c 0,1415,1416
 243 -17 243 -17 227 -17 c 1,1409,-1
248 -62 m 256,1417,1418
 248 -64 248 -64 262 -67 c 0,1419,1420
 272 -67 272 -67 272 -58 c 0,1421,1422
 270 -53 270 -53 264 -53 c 0,1423,1424
 261 -53 261 -53 254.5 -56.5 c 128,-1,1425
 248 -60 248 -60 248 -62 c 256,1417,1418
248 -108 m 2,1426,-1
 242 -110 l 1,1427,1428
 243 -122 243 -122 251 -122 c 0,1429,1430
 260 -122 260 -122 260 -114 c 0,1431,1432
 257 -108 257 -108 248 -108 c 2,1426,-1
141 -95 m 2,1433,-1
 137 -96 l 2,1434,1435
 131 -99 131 -99 131 -109 c 0,1436,1437
 131 -124 131 -124 142 -124 c 0,1438,1439
 154 -124 154 -124 154 -110 c 0,1440,1441
 154 -95 154 -95 141 -95 c 2,1433,-1
766 64 m 0,1442,1443
 766 77 766 77 777 77 c 0,1444,1445
 791 77 791 77 791 58 c 0,1446,1447
 791 47 791 47 780 47 c 0,1448,1449
 766 47 766 47 766 64 c 0,1442,1443
406 335 m 1,1450,1451
 400 341 400 341 399.5 354 c 128,-1,1452
 399 367 399 367 396 369 c 1,1453,-1
 401 374 l 1,1454,1455
 415 360 415 360 415 350 c 2,1456,-1
 412 342 l 1,1457,-1
 406 335 l 1,1450,1451
1026 195 m 2,1458,1459
 1024 192 1024 192 1024 190 c 2,1460,-1
 1024 187 l 2,1461,1462
 1024 185 1024 185 1026 182 c 2,1463,-1
 1034 184 l 2,1464,1465
 1038 186 1038 186 1037 190 c 0,1466,1467
 1036 191 1036 191 1034 195 c 1,1468,-1
 1026 195 l 2,1458,1459
EndSplineSet
Validated: 165
EndChar

StartChar: underscore
Encoding: 95 95 64
Width: 650
GlyphClass: 1
Flags: W
LayerCount: 2
Fore
SplineSet
50 564 m 2,0,1
 50 678 50 678 130 761.5 c 128,-1,2
 210 845 210 845 325 845 c 256,3,4
 440 845 440 845 520 761.5 c 128,-1,5
 600 678 600 678 600 564 c 2,6,-1
 600 260 l 2,7,8
 600 146 600 146 519.5 61.5 c 128,-1,9
 439 -23 439 -23 325 -23 c 256,10,11
 211 -23 211 -23 130.5 61.5 c 128,-1,12
 50 146 50 146 50 260 c 2,13,-1
 50 564 l 2,0,1
369 83 m 1,14,15
 476 124 476 124 498 229 c 1,16,-1
 369 356 l 1,17,-1
 369 83 l 1,14,15
369 482 m 1,18,-1
 501 353 l 1,19,-1
 501 564 l 2,20,21
 501 621 501 621 466 668.5 c 128,-1,22
 431 716 431 716 369 739 c 1,23,-1
 369 482 l 1,18,-1
279 482 m 1,24,-1
 279 738 l 1,25,26
 217 715 217 715 183 667.5 c 128,-1,27
 149 620 149 620 149 564 c 2,28,-1
 149 355 l 1,29,-1
 279 482 l 1,24,-1
152 230 m 1,30,31
 173 125 173 125 279 83 c 1,32,-1
 279 356 l 1,33,-1
 152 230 l 1,30,31
EndSplineSet
Validated: 1
EndChar

StartChar: grave
Encoding: 96 96 65
Width: 650
GlyphClass: 1
Flags: W
LayerCount: 2
Fore
SplineSet
428 865 m 1,0,-1
 199 926 l 1,1,-1
 222 1010 l 1,2,-1
 451 948 l 1,3,-1
 428 865 l 1,0,-1
EndSplineSet
Validated: 1
EndChar

StartChar: exclamdown
Encoding: 161 161 94
Width: 650
GlyphClass: 1
Flags: W
LayerCount: 2
Fore
SplineSet
282 576 m 1,0,-1
 370 576 l 1,1,-1
 393 346 l 1,2,-1
 393 -5 l 1,3,-1
 260 -5 l 1,4,-1
 260 346 l 1,5,-1
 282 576 l 1,0,-1
395 692 m 1,6,-1
 256 692 l 1,7,-1
 256 829 l 1,8,-1
 395 829 l 1,9,-1
 395 692 l 1,6,-1
EndSplineSet
Validated: 1
EndChar

StartChar: cent
Encoding: 162 162 95
Width: 650
GlyphClass: 1
Flags: W
LayerCount: 2
Fore
SplineSet
276 640 m 1,0,1
 243 625 243 625 223 594 c 128,-1,2
 203 563 203 563 203 527 c 2,3,-1
 203 298 l 2,4,5
 203 261 203 261 223 230 c 128,-1,6
 243 199 243 199 276 184 c 1,7,-1
 276 640 l 1,0,1
371 829 m 1,8,-1
 371 742 l 1,9,10
 385 739 385 739 447 699 c 1,11,-1
 447 727 l 1,12,-1
 542 727 l 1,13,-1
 542 520 l 1,14,-1
 447 520 l 1,15,16
 445 611 445 611 371 641 c 1,17,-1
 371 183 l 1,18,19
 444 214 444 214 447 305 c 1,20,-1
 542 305 l 1,21,22
 540 222 540 222 495 162 c 0,23,24
 449 99 449 99 371 83 c 1,25,-1
 371 -4 l 1,26,-1
 276 -4 l 1,27,-1
 276 83 l 1,28,29
 203 100 203 100 155.5 160.5 c 128,-1,30
 108 221 108 221 108 298 c 2,31,-1
 108 527 l 2,32,33
 108 603 108 603 155.5 663.5 c 128,-1,34
 203 724 203 724 276 741 c 1,35,-1
 276 829 l 1,36,-1
 371 829 l 1,8,-1
EndSplineSet
Validated: 1
EndChar

StartChar: sterling
Encoding: 163 163 96
Width: 650
GlyphClass: 1
Flags: W
LayerCount: 2
Fore
SplineSet
490 210 m 1,0,-1
 598 210 l 1,1,-1
 598 -7 l 1,2,3
 522 -7 522 -7 326 -8 c 0,4,5
 153 -9 153 -9 54 -9 c 1,6,7
 54 -7 54 -7 54 102 c 1,8,9
 92 100 92 100 120.5 122 c 128,-1,10
 149 144 149 144 149 182 c 2,11,-1
 149 359 l 1,12,-1
 52 359 l 1,13,-1
 52 469 l 1,14,-1
 149 469 l 1,15,-1
 149 652 l 2,16,17
 149 731 149 731 203.5 788 c 128,-1,18
 258 845 258 845 336 845 c 0,19,20
 422 845 422 845 473 784.5 c 128,-1,21
 524 724 524 724 524 638 c 1,22,-1
 416 638 l 1,23,24
 416 679 416 679 398 705 c 0,25,26
 376 735 376 735 336 735 c 0,27,28
 303 735 303 735 279.5 710.5 c 128,-1,29
 256 686 256 686 256 652 c 2,30,-1
 256 469 l 1,31,-1
 418 469 l 1,32,-1
 418 359 l 1,33,-1
 256 359 l 1,34,35
 256 344 256 344 258 302 c 128,-1,36
 260 260 260 260 260 236 c 0,37,38
 260 147 260 147 239 102 c 1,39,-1
 490 102 l 1,40,-1
 490 210 l 1,0,-1
EndSplineSet
Validated: 33
EndChar

StartChar: currency
Encoding: 164 164 97
Width: 650
GlyphClass: 1
Flags: W
LayerCount: 2
Fore
SplineSet
49 368 m 1,0,-1
 119 368 l 1,1,-1
 119 452 l 1,2,-1
 49 452 l 1,3,-1
 49 561 l 1,4,-1
 119 561 l 1,5,-1
 119 598 l 2,6,7
 119 699 119 699 189.5 771.5 c 128,-1,8
 260 844 260 844 360 844 c 0,9,10
 433 844 433 844 493 803 c 1,11,-1
 493 830 l 1,12,-1
 600 830 l 1,13,-1
 601 584 l 1,14,-1
 493 584 l 1,15,16
 493 647 493 647 459 689 c 0,17,18
 422 734 422 734 360 734 c 0,19,20
 227 734 227 734 227 561 c 1,21,-1
 352 561 l 1,22,-1
 352 452 l 1,23,-1
 227 452 l 1,24,-1
 227 368 l 1,25,-1
 352 368 l 1,26,-1
 352 259 l 1,27,-1
 227 259 l 1,28,-1
 227 225 l 2,29,30
 227 169 227 169 266 129 c 128,-1,31
 305 89 305 89 360 89 c 0,32,33
 420 89 420 89 458 135 c 0,34,35
 493 178 493 178 493 239 c 1,36,-1
 601 239 l 1,37,38
 601 131 601 131 535 57 c 0,39,40
 467 -21 467 -21 360 -21 c 0,41,42
 260 -21 260 -21 189.5 51.5 c 128,-1,43
 119 124 119 124 119 225 c 2,44,-1
 119 259 l 1,45,-1
 49 259 l 1,46,-1
 49 368 l 1,0,-1
EndSplineSet
Validated: 1
EndChar

StartChar: yen
Encoding: 165 165 98
Width: 650
GlyphClass: 1
Flags: W
LayerCount: 2
Fore
SplineSet
528 95 m 1,0,-1
 528 -6 l 1,1,-1
 123 -6 l 1,2,-1
 123 95 l 1,3,-1
 274 95 l 1,4,-1
 274 225 l 1,5,-1
 167 225 l 1,6,-1
 167 325 l 1,7,-1
 274 325 l 1,8,-1
 274 334 l 1,9,-1
 195 534 l 1,10,11
 195 533 195 533 115 733 c 1,12,-1
 51 733 l 1,13,-1
 51 834 l 1,14,-1
 274 834 l 1,15,-1
 274 733 l 1,16,-1
 222 733 l 1,17,-1
 325 475 l 1,18,-1
 427 733 l 1,19,-1
 376 733 l 1,20,-1
 376 834 l 1,21,-1
 599 834 l 1,22,-1
 599 733 l 1,23,-1
 534 733 l 1,24,-1
 374 325 l 1,25,-1
 475 325 l 1,26,-1
 475 225 l 1,27,-1
 374 225 l 1,28,-1
 374 95 l 1,29,-1
 528 95 l 1,0,-1
EndSplineSet
Validated: 33
EndChar

StartChar: dieresis
Encoding: 168 168 99
Width: 650
GlyphClass: 1
Flags: W
LayerCount: 2
Fore
SplineSet
392 921 m 0,0,1
 392 943 392 943 408 959 c 128,-1,2
 424 975 424 975 447 975 c 0,3,4
 469 975 469 975 485 959 c 128,-1,5
 501 943 501 943 501 921 c 0,6,7
 501 898 501 898 485 882 c 128,-1,8
 469 866 469 866 447 866 c 0,9,10
 424 866 424 866 408 882 c 128,-1,11
 392 898 392 898 392 921 c 0,0,1
149 921 m 0,12,13
 149 943 149 943 165 959 c 128,-1,14
 181 975 181 975 203 975 c 0,15,16
 226 975 226 975 242 959 c 128,-1,17
 258 943 258 943 258 921 c 0,18,19
 258 898 258 898 242 882 c 128,-1,20
 226 866 226 866 203 866 c 0,21,22
 181 866 181 866 165 882 c 128,-1,23
 149 898 149 898 149 921 c 0,12,13
EndSplineSet
Validated: 1
EndChar

StartChar: degree
Encoding: 176 176 101
Width: 650
GlyphClass: 1
Flags: W
LayerCount: 2
Fore
SplineSet
325 526 m 256,0,1
 263 526 263 526 218.5 570.5 c 128,-1,2
 174 615 174 615 174 678 c 0,3,4
 174 740 174 740 218.5 785 c 128,-1,5
 263 830 263 830 325 830 c 256,6,7
 387 830 387 830 431.5 785 c 128,-1,8
 476 740 476 740 476 678 c 0,9,10
 476 615 476 615 431.5 570.5 c 128,-1,11
 387 526 387 526 325 526 c 256,0,1
325 742 m 256,12,13
 299 742 299 742 280 723 c 128,-1,14
 261 704 261 704 261 678 c 0,15,16
 261 651 261 651 280 632.5 c 128,-1,17
 299 614 299 614 325 614 c 256,18,19
 351 614 351 614 370 632.5 c 128,-1,20
 389 651 389 651 389 678 c 0,21,22
 389 704 389 704 370 723 c 128,-1,23
 351 742 351 742 325 742 c 256,12,13
EndSplineSet
Validated: 1
EndChar

StartChar: acute
Encoding: 180 180 102
Width: 650
GlyphClass: 1
Flags: W
LayerCount: 2
Fore
SplineSet
222 865 m 1,0,-1
 199 948 l 1,1,-1
 428 1010 l 1,2,-1
 451 926 l 1,3,-1
 222 865 l 1,0,-1
EndSplineSet
Validated: 1
EndChar

StartChar: cedilla
Encoding: 184 184 104
Width: 650
GlyphClass: 1
Flags: W
LayerCount: 2
Fore
SplineSet
276 80 m 1,0,-1
 374 80 l 1,1,-1
 374 -126 l 1,2,-1
 276 -126 l 1,3,-1
 276 80 l 1,0,-1
EndSplineSet
Validated: 1
EndChar

StartChar: guillemotright
Encoding: 187 187 105
Width: 650
GlyphClass: 1
Flags: W
LayerCount: 2
Fore
SplineSet
602 256 m 1,0,-1
 350 509 l 1,1,-1
 288 447 l 1,2,-1
 479 256 l 1,3,-1
 288 65 l 1,4,-1
 350 4 l 1,5,-1
 602 256 l 1,0,-1
362 256 m 1,6,-1
 110 509 l 1,7,-1
 48 447 l 1,8,-1
 239 256 l 1,9,-1
 48 65 l 1,10,-1
 110 4 l 1,11,-1
 362 256 l 1,6,-1
EndSplineSet
Validated: 9
EndChar

StartChar: questiondown
Encoding: 191 191 106
Width: 650
GlyphClass: 1
Flags: W
LayerCount: 2
Fore
SplineSet
392 707 m 1,0,-1
 258 707 l 1,1,-1
 258 845 l 1,2,-1
 392 845 l 1,3,-1
 392 707 l 1,0,-1
325 105 m 0,4,5
 402 105 402 105 447 153 c 0,6,7
 487 196 487 196 491 269 c 1,8,-1
 598 269 l 1,9,10
 593 153 593 153 519 75 c 0,11,12
 442 -5 442 -5 325 -5 c 0,13,14
 214 -5 214 -5 133 71 c 128,-1,15
 52 147 52 147 52 255 c 0,16,17
 52 346 52 346 112 414.5 c 128,-1,18
 172 483 172 483 271 506 c 1,19,-1
 271 589 l 1,20,-1
 378 589 l 1,21,-1
 379 402 l 1,22,-1
 325 402 l 2,23,24
 261 402 261 402 212 362 c 0,25,26
 159 319 159 319 159 255 c 0,27,28
 159 190 159 190 210 147.5 c 128,-1,29
 261 105 261 105 325 105 c 0,4,5
EndSplineSet
Validated: 1
EndChar

StartChar: Aring
Encoding: 197 197 112
Width: 650
GlyphClass: 1
Flags: W
LayerCount: 2
Fore
SplineSet
599 -9 m 1,0,-1
 376 -9 l 1,1,-1
 376 92 l 1,2,-1
 424 92 l 1,3,-1
 408 180 l 1,4,-1
 242 180 l 1,5,-1
 226 92 l 1,6,-1
 274 92 l 1,7,-1
 274 -9 l 1,8,-1
 51 -9 l 1,9,-1
 51 92 l 1,10,-1
 124 92 l 1,11,-1
 260 821 l 1,12,13
 217 853 217 853 217 908 c 0,14,15
 217 952 217 952 249 984 c 128,-1,16
 281 1016 281 1016 325 1016 c 0,17,18
 370 1016 370 1016 401.5 984 c 128,-1,19
 433 952 433 952 433 908 c 0,20,21
 433 853 433 853 389 820 c 1,22,-1
 526 92 l 1,23,-1
 599 92 l 1,24,-1
 599 -9 l 1,0,-1
367 908 m 256,25,26
 367 925 367 925 354.5 937 c 128,-1,27
 342 949 342 949 325 949 c 256,28,29
 308 949 308 949 295.5 937 c 128,-1,30
 283 925 283 925 283 908 c 256,31,32
 283 891 283 891 295.5 878.5 c 128,-1,33
 308 866 308 866 325 866 c 256,34,35
 342 866 342 866 354.5 878.5 c 128,-1,36
 367 891 367 891 367 908 c 256,25,26
389 281 m 1,37,-1
 325 622 l 1,38,-1
 261 281 l 1,39,-1
 389 281 l 1,37,-1
EndSplineSet
Validated: 1
EndChar

StartChar: AE
Encoding: 198 198 113
Width: 650
GlyphClass: 1
Flags: W
LayerCount: 2
Fore
SplineSet
322 277 m 1,0,-1
 322 649 l 1,1,-1
 252 277 l 1,2,-1
 322 277 l 1,0,-1
302 829 m 1,3,-1
 302 831 l 1,4,-1
 601 831 l 1,5,-1
 601 629 l 1,6,-1
 510 629 l 1,7,-1
 510 739 l 1,8,-1
 414 739 l 1,9,-1
 414 458 l 1,10,-1
 527 458 l 1,11,-1
 527 367 l 1,12,-1
 414 367 l 1,13,-1
 414 83 l 1,14,-1
 510 83 l 1,15,-1
 510 193 l 1,16,-1
 601 193 l 1,17,-1
 601 -9 l 1,18,-1
 322 -9 l 1,19,-1
 322 185 l 1,20,-1
 234 185 l 1,21,-1
 216 85 l 1,22,-1
 266 85 l 1,23,-1
 266 -6 l 1,24,-1
 49 -6 l 1,25,-1
 49 85 l 1,26,-1
 123 85 l 1,27,-1
 264 829 l 1,28,-1
 302 829 l 1,3,-1
EndSplineSet
Validated: 1
EndChar

StartChar: Eth
Encoding: 208 208 123
Width: 650
GlyphClass: 1
Flags: W
LayerCount: 2
Fore
SplineSet
147 467 m 1,0,-1
 147 721 l 1,1,-1
 48 721 l 1,2,-1
 48 831 l 1,3,-1
 290 831 l 2,4,5
 459 831 459 831 538 699 c 0,6,7
 602 593 602 593 602 412 c 0,8,9
 602 252 602 252 542 137 c 0,10,11
 466 -9 466 -9 318 -9 c 2,12,-1
 48 -9 l 1,13,-1
 48 101 l 1,14,-1
 147 101 l 1,15,-1
 147 358 l 1,16,-1
 50 358 l 1,17,-1
 50 467 l 1,18,-1
 147 467 l 1,0,-1
372 358 m 1,19,-1
 255 358 l 1,20,-1
 255 101 l 1,21,-1
 312 101 l 2,22,23
 412 100 412 100 459 214 c 0,24,25
 494 297 494 297 494 412 c 0,26,27
 494 603 494 603 418 678 c 0,28,29
 372 722 372 722 314 722 c 0,30,31
 303 722 303 722 296 721 c 2,32,-1
 255 721 l 1,33,-1
 255 467 l 1,34,-1
 372 467 l 1,35,-1
 372 358 l 1,19,-1
EndSplineSet
Validated: 33
EndChar

StartChar: Oslash
Encoding: 216 216 130
Width: 650
GlyphClass: 1
Flags: W
LayerCount: 2
Fore
SplineSet
325 742 m 0,0,1
 262 742 262 742 217.5 696.5 c 128,-1,2
 173 651 173 651 173 588 c 2,3,-1
 173 232 l 1,4,-1
 423 705 l 1,5,6
 381 742 381 742 325 742 c 0,0,1
325 82 m 0,7,8
 387 82 387 82 432 127 c 128,-1,9
 477 172 477 172 477 236 c 2,10,-1
 477 593 l 1,11,-1
 226 119 l 1,12,13
 269 82 269 82 325 82 c 0,7,8
542 716 m 1,14,15
 576 657 576 657 576 588 c 2,16,-1
 576 236 l 2,17,18
 576 130 576 130 502.5 55.5 c 128,-1,19
 429 -19 429 -19 325 -19 c 0,20,21
 244 -19 244 -19 179 29 c 1,22,-1
 160 -7 l 1,23,-1
 47 -7 l 1,24,-1
 108 108 l 1,25,26
 74 167 74 167 74 236 c 2,27,-1
 74 588 l 2,28,29
 74 693 74 693 147.5 767.5 c 128,-1,30
 221 842 221 842 325 842 c 0,31,32
 405 842 405 842 471 795 c 1,33,-1
 490 832 l 1,34,-1
 603 832 l 1,35,-1
 542 716 l 1,14,15
EndSplineSet
Validated: 1
EndChar

StartChar: Thorn
Encoding: 222 222 136
Width: 650
GlyphClass: 1
Flags: W
LayerCount: 2
Fore
SplineSet
238 540 m 1,0,-1
 238 286 l 1,1,-1
 367 285 l 2,2,3
 418 285 418 285 454.5 322.5 c 128,-1,4
 491 360 491 360 491 412 c 256,5,6
 491 464 491 464 454.5 502 c 128,-1,7
 418 540 418 540 367 540 c 2,8,-1
 238 540 l 1,0,-1
51 101 m 1,9,-1
 130 101 l 1,10,-1
 130 721 l 1,11,-1
 51 721 l 1,12,-1
 51 831 l 1,13,-1
 314 831 l 1,14,-1
 314 721 l 1,15,-1
 238 721 l 1,16,-1
 238 649 l 1,17,-1
 367 649 l 2,18,19
 464 649 464 649 531.5 579.5 c 128,-1,20
 599 510 599 510 599 412 c 0,21,22
 599 315 599 315 531 245 c 128,-1,23
 463 175 463 175 366 176 c 2,24,-1
 238 176 l 1,25,-1
 238 101 l 1,26,-1
 314 101 l 1,27,-1
 314 -9 l 1,28,-1
 51 -9 l 1,29,-1
 51 101 l 1,9,-1
EndSplineSet
Validated: 33
EndChar

StartChar: aring
Encoding: 229 229 143
Width: 650
GlyphClass: 1
Flags: W
LayerCount: 2
Fore
SplineSet
599 -9 m 1,0,-1
 376 -9 l 1,1,-1
 376 92 l 1,2,-1
 424 92 l 1,3,-1
 408 180 l 1,4,-1
 242 180 l 1,5,-1
 226 92 l 1,6,-1
 274 92 l 1,7,-1
 274 -9 l 1,8,-1
 51 -9 l 1,9,-1
 51 92 l 1,10,-1
 124 92 l 1,11,-1
 260 821 l 1,12,13
 217 853 217 853 217 908 c 0,14,15
 217 952 217 952 248.5 984 c 128,-1,16
 280 1016 280 1016 325 1016 c 256,17,18
 370 1016 370 1016 401.5 984 c 128,-1,19
 433 952 433 952 433 908 c 0,20,21
 433 853 433 853 389 820 c 1,22,-1
 526 92 l 1,23,-1
 599 92 l 1,24,-1
 599 -9 l 1,0,-1
367 908 m 256,25,26
 367 925 367 925 354.5 937 c 128,-1,27
 342 949 342 949 325 949 c 256,28,29
 308 949 308 949 295.5 937 c 128,-1,30
 283 925 283 925 283 908 c 0,31,32
 283 890 283 890 295.5 878 c 128,-1,33
 308 866 308 866 325 866 c 256,34,35
 342 866 342 866 354.5 878.5 c 128,-1,36
 367 891 367 891 367 908 c 256,25,26
389 281 m 1,37,-1
 325 622 l 1,38,-1
 261 281 l 1,39,-1
 389 281 l 1,37,-1
EndSplineSet
Validated: 1
EndChar

StartChar: Lslash
Encoding: 321 321 170
Width: 650
GlyphClass: 1
Flags: W
LayerCount: 2
Fore
SplineSet
326 431 m 1,0,-1
 244 384 l 1,1,-1
 244 109 l 1,2,-1
 484 109 l 1,3,-1
 484 215 l 1,4,-1
 599 215 l 1,5,-1
 599 -9 l 1,6,-1
 51 -9 l 1,7,-1
 51 109 l 1,8,-1
 129 109 l 1,9,-1
 129 317 l 1,10,-1
 53 273 l 1,11,-1
 53 399 l 1,12,-1
 129 443 l 1,13,-1
 129 712 l 1,14,-1
 51 712 l 1,15,-1
 51 831 l 1,16,-1
 319 831 l 1,17,-1
 319 712 l 1,18,-1
 244 712 l 1,19,-1
 244 509 l 1,20,-1
 326 556 l 1,21,-1
 326 431 l 1,0,-1
EndSplineSet
Validated: 1
EndChar

StartChar: OE
Encoding: 338 338 172
Width: 650
GlyphClass: 1
Flags: W
LayerCount: 2
Fore
SplineSet
600 832 m 1,0,-1
 600 627 l 1,1,-1
 504 627 l 1,2,-1
 504 736 l 1,3,-1
 373 736 l 1,4,-1
 373 462 l 1,5,-1
 519 462 l 1,6,-1
 519 366 l 1,7,-1
 373 366 l 1,8,-1
 373 89 l 1,9,-1
 504 89 l 1,10,-1
 504 198 l 1,11,-1
 600 198 l 1,12,-1
 600 -7 l 1,13,-1
 325 -6 l 2,14,15
 212 -6 212 -6 131 75 c 128,-1,16
 50 156 50 156 50 271 c 2,17,-1
 50 553 l 2,18,19
 50 668 50 668 131.5 749.5 c 128,-1,20
 213 831 213 831 329 832 c 0,21,22
 417 833 417 833 600 832 c 1,0,-1
146 271 m 2,23,24
 146 209 146 209 182.5 161.5 c 128,-1,25
 219 114 219 114 278 98 c 1,26,-1
 278 726 l 1,27,28
 219 710 219 710 182.5 662.5 c 128,-1,29
 146 615 146 615 146 553 c 2,30,-1
 146 271 l 2,23,24
EndSplineSet
Validated: 33
EndChar

StartChar: circumflex
Encoding: 710 710 179
Width: 650
GlyphClass: 1
Flags: W
LayerCount: 2
Fore
SplineSet
418 866 m 1,0,-1
 325 916 l 1,1,-1
 232 866 l 1,2,-1
 191 943 l 1,3,-1
 325 1014 l 1,4,-1
 459 943 l 1,5,-1
 418 866 l 1,0,-1
EndSplineSet
Validated: 1
EndChar

StartChar: caron
Encoding: 711 711 180
Width: 650
GlyphClass: 1
Flags: W
LayerCount: 2
Fore
SplineSet
232 1017 m 1,0,-1
 325 967 l 1,1,-1
 418 1017 l 1,2,-1
 459 940 l 1,3,-1
 325 868 l 1,4,-1
 191 940 l 1,5,-1
 232 1017 l 1,0,-1
EndSplineSet
Validated: 1
EndChar

StartChar: ring
Encoding: 730 730 181
Width: 650
GlyphClass: 1
Flags: W
LayerCount: 2
Fore
SplineSet
433 908 m 0,0,1
 433 863 433 863 401.5 831 c 128,-1,2
 370 799 370 799 325 799 c 256,3,4
 280 799 280 799 248.5 831 c 128,-1,5
 217 863 217 863 217 908 c 0,6,7
 217 952 217 952 248.5 984 c 128,-1,8
 280 1016 280 1016 325 1016 c 256,9,10
 370 1016 370 1016 401.5 984 c 128,-1,11
 433 952 433 952 433 908 c 0,0,1
367 908 m 256,12,13
 367 925 367 925 354.5 937 c 128,-1,14
 342 949 342 949 325 949 c 256,15,16
 308 949 308 949 295.5 937 c 128,-1,17
 283 925 283 925 283 908 c 0,18,19
 283 890 283 890 295.5 878 c 128,-1,20
 308 866 308 866 325 866 c 256,21,22
 342 866 342 866 354.5 878.5 c 128,-1,23
 367 891 367 891 367 908 c 256,12,13
EndSplineSet
Validated: 1
EndChar

StartChar: tilde
Encoding: 732 732 182
Width: 650
GlyphClass: 1
Flags: W
LayerCount: 2
Fore
SplineSet
365 877 m 0,0,1
 338 877 338 877 311.5 893.5 c 128,-1,2
 285 910 285 910 285 910 c 1,3,4
 272 910 272 910 272 887 c 1,5,-1
 185 887 l 1,6,7
 185 935 185 935 214 966 c 128,-1,8
 243 997 243 997 285 997 c 0,9,10
 312 997 312 997 338.5 980.5 c 128,-1,11
 365 964 365 964 365 964 c 1,12,13
 378 964 378 964 378 987 c 1,14,-1
 465 987 l 1,15,16
 465 939 465 939 436 908 c 128,-1,17
 407 877 407 877 365 877 c 0,0,1
EndSplineSet
Validated: 1
EndChar

StartChar: endash
Encoding: 8211 8211 183
Width: 650
GlyphClass: 1
Flags: W
LayerCount: 2
Fore
SplineSet
84 467 m 1,0,-1
 566 467 l 1,1,-1
 566 358 l 1,2,-1
 84 358 l 1,3,-1
 84 467 l 1,0,-1
EndSplineSet
Validated: 1
EndChar

StartChar: emdash
Encoding: 8212 8212 184
Width: 650
GlyphClass: 1
Flags: W
LayerCount: 2
Fore
SplineSet
0 467 m 1,0,-1
 650 467 l 1,1,-1
 650 358 l 1,2,-1
 0 358 l 1,3,-1
 0 467 l 1,0,-1
EndSplineSet
Validated: 1
EndChar

StartChar: quoteleft
Encoding: 8216 8216 185
Width: 650
GlyphClass: 1
Flags: W
LayerCount: 2
Fore
SplineSet
317 832 m 1,0,-1
 385 832 l 1,1,-1
 335 708 l 1,2,-1
 400 708 l 1,3,-1
 400 554 l 1,4,-1
 251 554 l 1,5,-1
 251 708 l 1,6,-1
 317 832 l 1,0,-1
EndSplineSet
Validated: 1
EndChar

StartChar: quoteright
Encoding: 8217 8217 186
Width: 650
GlyphClass: 1
Flags: W
LayerCount: 2
Fore
SplineSet
335 554 m 1,0,-1
 266 554 l 1,1,-1
 316 678 l 1,2,-1
 251 678 l 1,3,-1
 251 832 l 1,4,-1
 400 832 l 1,5,-1
 400 678 l 1,6,-1
 335 554 l 1,0,-1
EndSplineSet
Validated: 1
EndChar

StartChar: bullet
Encoding: 8226 8226 191
Width: 650
GlyphClass: 1
Flags: W
LayerCount: 2
Fore
SplineSet
437 300 m 1,0,-1
 214 300 l 1,1,-1
 214 531 l 1,2,-1
 437 531 l 1,3,-1
 437 300 l 1,0,-1
EndSplineSet
Validated: 1
EndChar

StartChar: guilsinglleft
Encoding: 8249 8249 193
Width: 650
GlyphClass: 1
Flags: W
LayerCount: 2
Fore
SplineSet
168 256 m 1,0,-1
 420 509 l 1,1,-1
 482 447 l 1,2,-1
 291 256 l 1,3,-1
 482 65 l 1,4,-1
 420 4 l 1,5,-1
 168 256 l 1,0,-1
EndSplineSet
Validated: 1
EndChar

StartChar: guilsinglright
Encoding: 8250 8250 194
Width: 650
GlyphClass: 1
Flags: W
LayerCount: 2
Fore
SplineSet
482 256 m 1,0,-1
 230 4 l 1,1,-1
 168 65 l 1,2,-1
 359 256 l 1,3,-1
 168 447 l 1,4,-1
 230 509 l 1,5,-1
 482 256 l 1,0,-1
EndSplineSet
Validated: 1
EndChar

StartChar: uni2469
Encoding: 9321 9321 196
Width: 650
GlyphClass: 2
Flags: W
LayerCount: 2
Fore
SplineSet
409 -23 m 0,0,1
 336 -23 336 -23 284.5 30 c 128,-1,2
 233 83 233 83 233 157 c 2,3,-1
 233 665 l 2,4,5
 233 738 233 738 284.5 791.5 c 128,-1,6
 336 845 336 845 409 845 c 0,7,8
 483 845 483 845 534.5 791.5 c 128,-1,9
 586 738 586 738 586 665 c 2,10,-1
 586 157 l 2,11,12
 586 83 586 83 534.5 30 c 128,-1,13
 483 -23 483 -23 409 -23 c 0,0,1
409 735 m 0,14,15
 381 735 381 735 361 714 c 128,-1,16
 341 693 341 693 341 665 c 2,17,-1
 341 157 l 2,18,19
 341 128 341 128 361 107 c 128,-1,20
 381 86 381 86 409 86 c 0,21,22
 438 86 438 86 458 107 c 128,-1,23
 478 128 478 128 478 157 c 2,24,-1
 478 665 l 2,25,26
 478 693 478 693 458 714 c 128,-1,27
 438 735 438 735 409 735 c 0,14,15
64 830 m 1,28,-1
 172 830 l 1,29,-1
 172 -5 l 1,30,-1
 64 -5 l 1,31,-1
 64 830 l 1,28,-1
EndSplineSet
Validated: 1
EndChar

StartChar: spade
Encoding: 9824 9824 197
Width: 900
GlyphClass: 2
Flags: W
LayerCount: 2
Fore
SplineSet
450 858 m 1,0,1
 454 829 454 829 565 689 c 0,2,3
 637 600 637 600 709 511 c 1,4,5
 762 438 762 438 781 387 c 0,6,7
 803 328 803 328 803 246 c 0,8,9
 803 177 803 177 763 125 c 0,10,11
 719 68 719 68 652 68 c 256,12,13
 585 68 585 68 542 123 c 0,14,15
 502 174 502 174 502 243 c 1,16,-1
 478 243 l 1,17,18
 478 168 478 168 497 90 c 0,19,20
 518 5 518 5 554 -53 c 1,21,-1
 346 -53 l 1,22,23
 422 67 422 67 422 243 c 1,24,-1
 398 243 l 1,25,26
 398 174 398 174 358 123 c 0,27,28
 315 68 315 68 248 68 c 256,29,30
 181 68 181 68 137 125 c 0,31,32
 97 177 97 177 97 246 c 0,33,34
 97 328 97 328 119 387 c 0,35,36
 138 438 138 438 191 511 c 1,37,38
 263 600 263 600 335 689 c 0,39,40
 446 829 446 829 450 858 c 1,0,1
EndSplineSet
Validated: 1
EndChar

StartChar: club
Encoding: 9827 9827 198
Width: 900
GlyphClass: 2
Flags: W
LayerCount: 2
Fore
SplineSet
690 470 m 0,0,1
 767 470 767 470 822 414.5 c 128,-1,2
 877 359 877 359 877 282 c 256,3,4
 877 205 877 205 822 150 c 128,-1,5
 767 95 767 95 690 95 c 0,6,7
 620 95 620 95 566.5 141.5 c 128,-1,8
 513 188 513 188 504 258 c 1,9,-1
 478 258 l 1,10,11
 482 81 482 81 554 -34 c 1,12,-1
 346 -34 l 1,13,14
 418 81 418 81 422 258 c 1,15,-1
 396 258 l 1,16,17
 387 188 387 188 333.5 141.5 c 128,-1,18
 280 95 280 95 210 95 c 0,19,20
 133 95 133 95 78 150 c 128,-1,21
 23 205 23 205 23 282 c 256,22,23
 23 359 23 359 78 414.5 c 128,-1,24
 133 470 133 470 210 470 c 0,25,26
 284 470 284 470 338 419 c 1,27,-1
 356 450 l 1,28,29
 309 476 309 476 281 523 c 128,-1,30
 253 570 253 570 253 623 c 0,31,32
 253 704 253 704 311 762 c 128,-1,33
 369 820 369 820 450 820 c 256,34,35
 531 820 531 820 589 762 c 128,-1,36
 647 704 647 704 647 623 c 0,37,38
 647 570 647 570 619 523 c 128,-1,39
 591 476 591 476 544 450 c 1,40,-1
 562 419 l 1,41,42
 616 470 616 470 690 470 c 0,0,1
EndSplineSet
Validated: 1
EndChar

StartChar: heart
Encoding: 9829 9829 199
Width: 900
GlyphClass: 2
Flags: W
LayerCount: 2
Fore
SplineSet
270 834 m 0,0,1
 189 834 189 834 139 758 c 0,2,3
 94 692 94 692 94 606 c 0,4,5
 94 517 94 517 168 392 c 0,6,7
 196 344 196 344 321 169 c 0,8,9
 418 32 418 32 450 -47 c 1,10,11
 482 32 482 32 579 169 c 0,12,13
 704 344 704 344 732 392 c 0,14,15
 806 517 806 517 806 606 c 0,16,17
 806 692 806 692 761 758 c 0,18,19
 711 834 711 834 630 834 c 0,20,21
 550 834 550 834 501 761 c 0,22,23
 457 697 457 697 457 613 c 1,24,-1
 442 613 l 1,25,26
 442 697 442 697 399 761 c 0,27,28
 350 834 350 834 270 834 c 0,0,1
EndSplineSet
Validated: 9
EndChar

StartChar: diamond
Encoding: 9830 9830 200
Width: 900
GlyphClass: 2
Flags: W
LayerCount: 2
Fore
SplineSet
122 394 m 1,0,1
 300 551 300 551 450 835 c 1,2,3
 600 551 600 551 778 394 c 1,4,5
 600 237 600 237 450 -47 c 1,6,7
 300 237 300 237 122 394 c 1,0,1
EndSplineSet
Validated: 1
EndChar

StartChar: uni2491
Encoding: 9361 9361 201
Width: 650
Flags: W
LayerCount: 2
Fore
SplineSet
409 -23 m 0,0,1
 336 -23 336 -23 284.5 30 c 128,-1,2
 233 83 233 83 233 157 c 2,3,-1
 233 665 l 2,4,5
 233 738 233 738 284.5 791.5 c 128,-1,6
 336 845 336 845 409 845 c 0,7,8
 483 845 483 845 534.5 791.5 c 128,-1,9
 586 738 586 738 586 665 c 2,10,-1
 586 157 l 2,11,12
 586 83 586 83 534.5 30 c 128,-1,13
 483 -23 483 -23 409 -23 c 0,0,1
409 735 m 0,14,15
 381 735 381 735 361 714 c 128,-1,16
 341 693 341 693 341 665 c 2,17,-1
 341 157 l 2,18,19
 341 128 341 128 361 107 c 128,-1,20
 381 86 381 86 409 86 c 0,21,22
 438 86 438 86 458 107 c 128,-1,23
 478 128 478 128 478 157 c 2,24,-1
 478 665 l 2,25,26
 478 693 478 693 458 714 c 128,-1,27
 438 735 438 735 409 735 c 0,14,15
64 830 m 1,28,-1
 172 830 l 5,29,-1
 172 -5 l 1,30,-1
 64 -5 l 1,31,-1
 64 830 l 1,28,-1
EndSplineSet
EndChar

StartChar: uni247D
Encoding: 9341 9341 204
Width: 650
Flags: W
LayerCount: 2
Fore
SplineSet
409 -23 m 0,0,1
 336 -23 336 -23 284.5 30 c 128,-1,2
 233 83 233 83 233 157 c 2,3,-1
 233 665 l 2,4,5
 233 738 233 738 284.5 791.5 c 128,-1,6
 336 845 336 845 409 845 c 0,7,8
 483 845 483 845 534.5 791.5 c 128,-1,9
 586 738 586 738 586 665 c 2,10,-1
 586 157 l 2,11,12
 586 83 586 83 534.5 30 c 128,-1,13
 483 -23 483 -23 409 -23 c 0,0,1
409 735 m 0,14,15
 381 735 381 735 361 714 c 128,-1,16
 341 693 341 693 341 665 c 2,17,-1
 341 157 l 2,18,19
 341 128 341 128 361 107 c 128,-1,20
 381 86 381 86 409 86 c 0,21,22
 438 86 438 86 458 107 c 128,-1,23
 478 128 478 128 478 157 c 2,24,-1
 478 665 l 2,25,26
 478 693 478 693 458 714 c 128,-1,27
 438 735 438 735 409 735 c 0,14,15
64 830 m 1,28,-1
 172 830 l 1,29,-1
 172 -5 l 1,30,-1
 64 -5 l 1,31,-1
 64 830 l 1,28,-1
EndSplineSet
Validated: 1
EndChar

StartChar: uni24FE
Encoding: 9470 9470 205
Width: 650
Flags: W
LayerCount: 2
Fore
SplineSet
409 -23 m 0,0,1
 336 -23 336 -23 284.5 30 c 128,-1,2
 233 83 233 83 233 157 c 2,3,-1
 233 665 l 2,4,5
 233 738 233 738 284.5 791.5 c 128,-1,6
 336 845 336 845 409 845 c 0,7,8
 483 845 483 845 534.5 791.5 c 128,-1,9
 586 738 586 738 586 665 c 2,10,-1
 586 157 l 2,11,12
 586 83 586 83 534.5 30 c 128,-1,13
 483 -23 483 -23 409 -23 c 0,0,1
409 735 m 0,14,15
 381 735 381 735 361 714 c 128,-1,16
 341 693 341 693 341 665 c 2,17,-1
 341 157 l 2,18,19
 341 128 341 128 361 107 c 128,-1,20
 381 86 381 86 409 86 c 0,21,22
 438 86 438 86 458 107 c 128,-1,23
 478 128 478 128 478 157 c 2,24,-1
 478 665 l 2,25,26
 478 693 478 693 458 714 c 128,-1,27
 438 735 438 735 409 735 c 0,14,15
64 830 m 1,28,-1
 172 830 l 1,29,-1
 172 -5 l 1,30,-1
 64 -5 l 1,31,-1
 64 830 l 1,28,-1
EndSplineSet
Validated: 1
EndChar

StartChar: uni277F
Encoding: 10111 10111 206
Width: 650
Flags: W
LayerCount: 2
Fore
SplineSet
409 -23 m 0,0,1
 336 -23 336 -23 284.5 30 c 128,-1,2
 233 83 233 83 233 157 c 2,3,-1
 233 665 l 2,4,5
 233 738 233 738 284.5 791.5 c 128,-1,6
 336 845 336 845 409 845 c 0,7,8
 483 845 483 845 534.5 791.5 c 128,-1,9
 586 738 586 738 586 665 c 2,10,-1
 586 157 l 2,11,12
 586 83 586 83 534.5 30 c 128,-1,13
 483 -23 483 -23 409 -23 c 0,0,1
409 735 m 0,14,15
 381 735 381 735 361 714 c 128,-1,16
 341 693 341 693 341 665 c 2,17,-1
 341 157 l 2,18,19
 341 128 341 128 361 107 c 128,-1,20
 381 86 381 86 409 86 c 0,21,22
 438 86 438 86 458 107 c 128,-1,23
 478 128 478 128 478 157 c 2,24,-1
 478 665 l 2,25,26
 478 693 478 693 458 714 c 128,-1,27
 438 735 438 735 409 735 c 0,14,15
64 830 m 1,28,-1
 172 830 l 1,29,-1
 172 -5 l 1,30,-1
 64 -5 l 1,31,-1
 64 830 l 1,28,-1
EndSplineSet
Validated: 1
EndChar

StartChar: uni2793
Encoding: 10131 10131 207
Width: 650
Flags: W
LayerCount: 2
Fore
SplineSet
409 -23 m 0,0,1
 336 -23 336 -23 284.5 30 c 128,-1,2
 233 83 233 83 233 157 c 2,3,-1
 233 665 l 2,4,5
 233 738 233 738 284.5 791.5 c 128,-1,6
 336 845 336 845 409 845 c 0,7,8
 483 845 483 845 534.5 791.5 c 128,-1,9
 586 738 586 738 586 665 c 2,10,-1
 586 157 l 2,11,12
 586 83 586 83 534.5 30 c 128,-1,13
 483 -23 483 -23 409 -23 c 0,0,1
409 735 m 0,14,15
 381 735 381 735 361 714 c 128,-1,16
 341 693 341 693 341 665 c 2,17,-1
 341 157 l 2,18,19
 341 128 341 128 361 107 c 128,-1,20
 381 86 381 86 409 86 c 0,21,22
 438 86 438 86 458 107 c 128,-1,23
 478 128 478 128 478 157 c 2,24,-1
 478 665 l 2,25,26
 478 693 478 693 458 714 c 128,-1,27
 438 735 438 735 409 735 c 0,14,15
64 830 m 1,28,-1
 172 830 l 1,29,-1
 172 -5 l 1,30,-1
 64 -5 l 1,31,-1
 64 830 l 1,28,-1
EndSplineSet
Validated: 1
EndChar

StartChar: uni2789
Encoding: 10121 10121 208
Width: 650
Flags: W
LayerCount: 2
Fore
SplineSet
409 -23 m 0,0,1
 336 -23 336 -23 284.5 30 c 128,-1,2
 233 83 233 83 233 157 c 2,3,-1
 233 665 l 2,4,5
 233 738 233 738 284.5 791.5 c 128,-1,6
 336 845 336 845 409 845 c 0,7,8
 483 845 483 845 534.5 791.5 c 128,-1,9
 586 738 586 738 586 665 c 2,10,-1
 586 157 l 2,11,12
 586 83 586 83 534.5 30 c 128,-1,13
 483 -23 483 -23 409 -23 c 0,0,1
409 735 m 0,14,15
 381 735 381 735 361 714 c 128,-1,16
 341 693 341 693 341 665 c 2,17,-1
 341 157 l 2,18,19
 341 128 341 128 361 107 c 128,-1,20
 381 86 381 86 409 86 c 0,21,22
 438 86 438 86 458 107 c 128,-1,23
 478 128 478 128 478 157 c 2,24,-1
 478 665 l 2,25,26
 478 693 478 693 458 714 c 128,-1,27
 438 735 438 735 409 735 c 0,14,15
64 830 m 1,28,-1
 172 830 l 1,29,-1
 172 -5 l 1,30,-1
 64 -5 l 1,31,-1
 64 830 l 1,28,-1
EndSplineSet
Validated: 1
EndChar
